<svg width="105" height="32" viewBox="0 0 105 32" fill="none" xmlns="http://www.w3.org/2000/svg">
<mask id="mask0_1289_4428" style="mask-type:luminance" maskUnits="userSpaceOnUse" x="0" y="0" width="105" height="32">
<path d="M104.828 0H0V32H104.828V0Z" fill="white"/>
</mask>
<g mask="url(#mask0_1289_4428)">
<path d="M104.295 16.2711C104.033 16.0988 103.713 16.0357 103.404 16.0956C103.095 16.1556 102.822 16.3336 102.645 16.5912C102.58 16.6864 101.155 18.7364 98.663 18.7364C97.691 18.7364 96.947 18.4488 96.46 17.839C96.429 17.8086 96.397 17.7438 96.364 17.7114C96.372 17.7114 96.381 17.708 96.387 17.7019C96.393 17.6958 96.397 17.6876 96.397 17.679C102.289 14.3487 102.224 11.4986 101.961 10.4412C101.607 9.15888 100.473 8.32628 99.017 8.32628C95.649 8.32628 93.416 12.0415 93.416 15.5014C93.415 15.9306 93.447 16.3592 93.512 16.7836C92.314 17.6486 90.469 18.7364 88.85 18.7364C87.912 18.7364 87.2 18.4488 86.747 17.9038C86.587 17.7102 86.456 17.4946 86.358 17.2637C90.862 15.9815 92.574 13.1313 92.251 10.8564C92.056 9.38368 90.922 8.32628 89.532 8.32628C86.391 8.32628 84.124 11.5938 83.768 14.7964C83.19 14.753 82.633 14.5656 82.149 14.2515C82.223 13.7529 82.267 13.2503 82.28 12.7464C82.28 11.691 82.085 10.7936 81.696 10.0887C81.47 9.65298 81.127 9.28768 80.704 9.03308C80.281 8.77858 79.796 8.64468 79.301 8.64638C79.026 8.64848 78.757 8.72508 78.523 8.86798C78.289 9.01088 78.099 9.21448 77.974 9.45668C77.39 10.5121 77.769 12.5621 78.846 14.1968C79.045 14.5163 79.273 14.8168 79.528 15.0942C78.944 16.9518 77.714 18.7121 76.16 18.7121C75.847 18.7223 75.535 18.6666 75.245 18.5486C74.955 18.4305 74.694 18.2529 74.479 18.0274C73.865 17.3549 73.443 16.1698 73.314 14.6647C77.716 9.21968 79.884 3.86978 78.656 1.33968C78.471 0.933577 78.17 0.590076 77.79 0.351676C77.41 0.113276 76.968 -0.00952355 76.518 -0.00132355C73.476 -0.00132355 71.66 3.90618 70.949 11.9503C70.916 12.4304 70.886 13.0401 70.886 13.6803C69.266 15.8579 66.5862 18.708 64.1826 18.708C63.5028 18.708 62.9848 18.4852 62.6613 18.0051C62.6286 17.9727 62.5979 17.9079 62.5651 17.8755C62.5979 17.8755 62.6286 17.8431 62.6613 17.8127C68.587 14.0327 68.49 11.1826 68.189 10.1576C67.874 9.03128 66.8381 8.30398 65.5175 8.30398C62.086 8.30398 59.754 12.2137 59.754 15.864C59.7595 16.1849 59.7814 16.5054 59.8195 16.8241C58.718 17.5939 57.8438 18.2989 56.9695 18.9714C57.1005 17.9788 57.293 16.6965 57.5203 14.8065C57.5858 14.4237 57.6185 14.1016 57.6493 13.9416C57.8438 12.5641 55.5466 12.2764 55.2865 13.814C55.0286 15.4163 54.3488 18.7141 52.4386 18.7141C51.3043 18.7141 50.6901 17.4663 50.8191 15.6391C50.9808 12.7565 52.5676 10.4189 54.5044 10.4189C55.1842 10.4189 55.5077 11.1238 55.5077 11.1238C56.1219 12.2136 58.0321 11.2839 57.6124 10.1312C57.4179 9.61868 56.7934 8.30808 54.5679 8.30808C50.0349 8.30808 48.612 12.8578 48.4257 15.868C48.3875 16.3486 48.3984 16.8319 48.4584 17.3103C47.8094 18.0781 47.0662 18.7283 46.3209 18.7283C45.6084 18.7283 45.1559 17.918 45.4139 16.0949C45.6739 14.3325 45.8684 12.8923 45.9647 12.0577C46.5154 8.24728 41.6917 8.34248 41.6917 8.34248C41.6917 8.34248 41.618 6.07578 39.7733 6.07578C38.8335 6.07578 37.9593 6.81308 37.9593 8.19058C37.9655 8.57488 38.066 8.95198 38.2522 9.28928C38.4384 9.62668 38.7046 9.91418 39.028 10.1272C38.8028 12.1124 37.863 18.7101 35.7522 18.7101C34.8144 18.7101 34.7489 17.7175 34.8452 17.0125C34.9762 16.0524 35.1379 14.3791 35.2014 13.974C35.3959 12.5965 33.0987 12.3089 32.8387 13.8464C32.5807 15.4487 31.901 18.7465 29.9907 18.7465C28.8565 18.7465 28.2422 17.3285 28.3385 15.6087C28.5002 12.6937 30.087 10.4513 32.0238 10.4513C32.7036 10.4513 33.0271 11.1562 33.0271 11.1562C33.5451 12.244 35.5208 11.4763 35.1318 10.1636C34.9701 9.58628 34.3128 8.34048 32.0873 8.34048C27.5564 8.34048 26.1314 12.8902 25.9451 15.9004C25.9123 16.3482 25.9123 16.7977 25.9451 17.2455C25.2981 18.1105 24.5119 18.7506 23.7768 18.7506C23.0971 18.7506 22.5791 18.3981 22.7081 16.893C22.7716 16.1881 23.5823 11.3527 23.5496 10.4878C23.4533 9.01298 22.7716 8.37288 21.1213 8.37288C19.7815 8.38238 18.4959 8.89838 17.5281 9.81518C17.5281 9.81518 18.3471 3.73808 18.4986 2.54298C18.6604 1.32748 16.2649 1.29308 16.1359 2.54298C16.0745 3.07368 15.4275 7.87858 14.844 12.3554C13.4845 15.3089 10.7983 19.7938 6.81609 19.7938C-0.726613 19.7938 2.73759 3.52138 9.82779 3.52138C11.478 3.52138 10.7328 6.15478 9.62309 7.71858C8.84499 8.87118 10.8208 10.1495 11.9203 8.32628C14.975 3.23978 12.4178 1.34368 9.98959 1.34368C-0.501413 1.34368 -4.38531 22.0363 6.52529 22.0363C10.1185 22.0363 12.5468 20.0511 14.1008 17.8714C13.939 19.0869 13.8407 19.9214 13.808 20.0815C13.6155 21.3637 16.0438 21.2665 16.1727 20.1787C16.269 19.5062 16.6252 16.654 16.916 14.4439C17.0798 13.1961 18.6317 10.8888 20.3802 10.8888C20.4746 10.8954 20.5667 10.9207 20.6509 10.9633C20.7352 11.006 20.8099 11.065 20.8705 11.1369C20.9311 11.2088 20.9764 11.2921 21.0037 11.3817C21.031 11.4714 21.0396 11.5656 21.0292 11.6586C20.9637 12.0637 20.2102 17.4886 20.2512 18.2887C20.3802 20.5636 22.0324 21.0761 23.5864 21.0761C24.8149 21.0761 25.8202 20.4988 26.6289 19.6014C27.1796 20.4988 28.0211 21.0761 29.1861 21.0761C31.8088 21.0761 32.7158 19.2165 32.7158 19.2165C32.7158 19.2165 33.0393 21.0761 35.3058 21.0761C39.9023 21.0761 40.971 13.1637 41.1983 10.504C41.4563 10.504 43.0758 10.6012 43.3665 11.4986C43.6265 12.3636 42.8157 15.1165 42.7523 17.9687C42.7195 19.4738 43.2703 21.0761 45.6657 21.0761C46.9496 21.0494 48.1755 20.5427 49.0972 19.6581C49.3523 20.0954 49.7208 20.4574 50.1646 20.7067C50.6084 20.9559 51.1114 21.0835 51.6217 21.0761C52.5976 21.1074 53.5558 20.8135 54.3427 20.2415C54.3099 20.4988 54.2772 20.7236 54.2444 20.9789V21.0113C54.2444 20.9789 48.1902 25.3037 48.1902 29.3713C48.1902 30.9737 48.9355 32.0047 50.8518 32.0047C54.6396 32.0047 55.8373 26.9749 56.3799 22.8425C56.4153 22.6628 56.4365 22.4806 56.4433 22.2976C57.0268 21.8499 57.5776 21.4326 58.1284 21.0173C58.9043 20.4096 59.6823 19.8323 60.5545 19.1942C60.5873 19.257 60.6528 19.3218 60.6856 19.3846C61.4943 20.4745 62.692 21.0518 64.1498 21.0518C66.9015 21.0518 69.459 18.9694 71.271 16.9194C71.563 17.9119 71.983 18.8721 72.704 19.6419C73.142 20.1064 73.674 20.4748 74.265 20.7233C74.856 20.9717 75.493 21.0947 76.135 21.0842C78.758 21.0842 80.572 19.0018 81.543 16.5993C82.29 16.9257 83.09 17.1204 83.905 17.1746C84.069 17.9821 84.424 18.7395 84.941 19.3846C85.588 20.1544 86.784 21.0842 88.891 21.0842C90.998 21.0842 93.067 19.962 94.46 19.0342L94.654 19.3218C95.301 20.1321 96.564 21.0842 98.7 21.0842C102.488 21.0842 104.592 18.0092 104.691 17.8795C104.832 17.6094 104.87 17.2978 104.797 17.0021C104.725 16.7065 104.547 16.4468 104.295 16.2711ZM51.1364 29.7238C50.7802 29.7238 50.5222 29.499 50.5222 29.0513C50.5222 27.0013 53.7264 24.2139 53.7592 24.2139C53.3702 26.9689 52.2379 29.7238 51.1364 29.7238ZM65.4458 10.504C65.7365 10.504 65.8021 10.7288 65.8676 10.8564C65.9966 11.3061 65.5441 13.0037 62.0799 15.3737C62.2744 13.1313 63.6748 10.504 65.4458 10.504ZM76.453 2.40118C77.458 2.40118 76.647 5.79618 73.443 10.5364C74.186 4.22628 75.222 2.40118 76.453 2.40118ZM89.274 10.504C89.792 10.504 89.824 11.0165 89.857 11.2089C89.986 12.1711 89.079 13.9011 86.1 14.8937C86.426 12.8112 87.816 10.504 89.267 10.504H89.274ZM98.987 10.504C99.343 10.504 99.537 10.7612 99.634 11.0813C99.828 11.7538 98.921 13.4514 95.743 15.3737C95.819 13.1313 97.173 10.504 98.987 10.504Z" fill="white"/>
</g>
</svg>
