<svg width="133" height="21" viewBox="0 0 133 21" fill="none" xmlns="http://www.w3.org/2000/svg">
<mask id="mask0_1289_4434" style="mask-type:luminance" maskUnits="userSpaceOnUse" x="0" y="0" width="133" height="21">
<path d="M0 0H133V21H0V0Z" fill="white"/>
</mask>
<g mask="url(#mask0_1289_4434)">
<path d="M124.884 11.1933C127.447 12.5269 128.514 13.7536 128.514 15.5404C128.514 17.7006 126.779 19.8605 123.069 19.8605C121.093 19.8605 119.945 19.5405 118.984 19.1404L117.73 15.2469L118.424 15.0337L119.038 15.6204C120.933 17.4071 122.561 18.5807 123.816 18.5807C124.751 18.5807 125.258 17.9937 125.258 17.3805C125.258 16.7671 125.151 16.127 123.549 15.3003L121.173 14.0736C119.091 13.0067 118.103 11.7268 118.103 10.2335C118.103 7.6733 120.346 6.18 123.229 6.18C125.177 6.18 126.272 6.4466 126.272 6.4466L127.367 9.8335L126.672 10.0467L126.245 9.6735C124.03 7.7267 123.256 7.3267 122.321 7.3267C121.653 7.3267 121.093 7.7533 121.093 8.3399C121.093 8.7668 121.173 9.2734 122.508 9.9666L124.884 11.1933ZM113.672 11.1668C116.261 12.4735 117.302 13.7536 117.302 15.5404C117.302 17.7006 115.567 19.8605 111.857 19.8605C109.881 19.8605 108.733 19.5405 107.772 19.1404L106.518 15.2469L107.212 15.0337L107.826 15.6204C109.721 17.4071 111.349 18.5807 112.604 18.5807C113.539 18.5807 114.046 17.9937 114.046 17.3805C114.046 16.7671 113.939 16.1004 112.337 15.3003L109.961 14.1002C107.879 13.0335 106.891 11.7268 106.891 10.2335C106.891 7.6733 109.134 6.18 112.017 6.18C113.965 6.18 115.06 6.4466 115.06 6.4466L116.154 9.8335L115.46 10.0467L115.034 9.6735C112.817 7.7267 112.044 7.3267 111.109 7.3267C110.442 7.3267 109.881 7.7533 109.881 8.3399C109.881 8.7668 109.961 9.3 111.296 9.9666L113.672 11.1668ZM95.706 10.2867C95.706 11.4602 96.107 12.6866 96.801 13.7267L97.976 12.6066C98.777 11.8603 99.443 11.0333 99.443 9.8866C99.443 9.0068 98.856 7.9667 97.682 7.9667C96.587 7.9667 95.706 8.7934 95.706 10.2867ZM105.93 13.3001L106.224 14.2068C105.77 17.3271 103.234 19.8605 99.924 19.8605C95.679 19.8605 92.957 16.687 92.957 12.6866C92.957 9.0334 95.519 6.1 99.123 6.1C101.739 6.1 103.688 7.6998 104.489 9.8601L97.495 14.5803C98.483 15.6204 99.871 16.3402 101.473 16.3402C103.662 16.3402 105.317 14.8203 105.93 13.3001ZM91.996 18.8204V19.6205H85.162V18.8204C86.043 18.5272 86.39 17.9672 86.39 17.2202V5.2999C86.39 4.1263 85.802 3.7263 84.841 3.6463V2.9262L90.53 1.0863H90.77V17.2202C90.77 17.9672 91.117 18.5272 91.998 18.8204H91.996ZM78.5948 15.2469V8.2599C78.408 8.1799 78.0879 8.0733 77.6073 8.0733C76.0321 8.0733 74.0834 9.2734 74.0834 12.6335C74.0834 15.7538 75.2844 17.4605 76.9133 17.4605C77.5268 17.4605 78.5948 17.1671 78.5948 15.2469ZM84.201 18.8204V19.6205H78.8086L78.8354 19.5939L78.7017 19.6205L78.7283 17.8872H78.5948C78.1677 18.5272 77.0467 19.7273 75.0446 19.7273C72.0016 19.7273 70.1063 17.1671 70.1063 13.8602C70.1063 9.5134 73.0422 6.3666 77.8476 6.3666C78.2208 6.3666 78.5948 6.3931 78.5948 6.3931V5.2999C78.5948 4.1263 78.0076 3.7263 77.0467 3.6463V2.9262L82.735 1.0863H82.975V17.2202C82.975 17.9672 83.322 18.5272 84.203 18.8204H84.201ZM70.6135 10.1801L69.9192 10.4201C68.4777 9.7535 67.9434 9.7 66.7424 9.7C66.0221 9.7 65.328 10.0201 65.328 10.0201V17.2202C65.328 17.9672 65.7012 18.5272 66.689 18.8204V19.6205H59.9886V18.8204C60.8698 18.5272 60.9498 17.9672 60.9498 17.2202V9.54C60.9498 8.1533 60.5492 7.6733 59.1345 7.0866V6.2866H65.2743L65.168 9.1934H65.2212L65.7281 8.5265C66.7424 7.1932 68.0239 6.2331 69.2786 6.2331H69.3851L70.6135 10.1801ZM51.9001 13.2736L51.3395 11.5934C49.818 12.7403 49.0705 14.2068 49.0705 15.2738C49.0705 16.6605 49.7646 17.3005 50.7257 17.3005C52.3807 17.3005 52.7276 15.7538 51.9001 13.2736ZM59.4546 17.4605L59.7217 18.3138C59.5083 18.6872 58.5739 19.8339 56.919 19.8339C54.7031 19.8339 53.7954 18.5272 53.1548 16.7671C52.541 18.4204 51.1261 19.8605 48.5633 19.8605C46.2675 19.8605 45.0128 18.3404 45.0128 16.687C45.0128 14.3937 46.9081 12.7669 50.966 10.6601C50.4586 9.7 49.3108 9.2466 48.083 9.2466C46.5881 9.22 44.9328 9.8601 44.0785 11.0067L43.785 10.1001C44.4257 8.3668 46.5612 6.0731 49.9783 6.0731C53.0482 6.0731 55.1303 7.9399 56.0912 10.9002L57.933 16.5536C58.2002 17.4071 58.6271 17.6471 58.9742 17.6471C59.1611 17.6471 59.348 17.5671 59.4546 17.4605ZM43.8916 13.8336L44.2122 14.9003C43.785 17.2737 41.9964 19.8605 38.4193 19.8605C34.3885 19.8605 31.2383 16.4736 31.2383 11.5934C31.2383 6.34 35.1091 3.0331 39.8874 3.0331C40.5817 3.0331 41.1955 3.0862 41.5426 3.1397L43.2776 8.6334L42.557 8.8734L40.7149 7.1932C39.1399 5.7799 38.179 5.2464 37.0847 5.2464C35.5897 5.2464 34.6019 6.3666 34.6019 8.5265C34.6019 12.5803 36.8444 16.2338 40.1277 16.2338C42.1567 16.2338 43.251 15.1137 43.8916 13.8336ZM25.4323 12.2066C24.3911 9.06 23.0298 7.1666 21.4014 7.6998C19.7731 8.2333 19.7731 10.5536 20.7874 13.7002C21.8286 16.8471 23.1898 18.7404 24.8182 18.2072C26.4466 17.6737 26.4466 15.3538 25.4323 12.2066ZM30.2108 12.9535C30.2108 16.8471 27.2206 19.9139 23.1098 19.9139C18.9987 19.9139 16.0088 16.8471 16.0088 12.9535C16.0088 9.06 18.9987 5.9931 23.1098 5.9931C27.2206 5.9931 30.2108 9.06 30.2108 12.9535ZM8.84157 9.7H14.7142C14.8213 10.2867 14.9545 11.3534 14.9545 12.6603C14.9545 16.2338 12.1783 19.8605 8.04067 19.8605C3.90297 19.8605 0.459271 16.3415 0.485871 11.4602C0.512771 6.34 4.38357 3.0331 9.50867 3.0331C10.0693 3.0331 10.7102 3.0862 11.164 3.1397L12.8989 8.6334L12.1783 8.8734L10.3362 7.1932C8.73467 5.7531 7.64007 5.273 6.54567 5.273C5.05077 5.273 3.84947 6.3666 3.84947 8.5265C3.84947 12.5803 6.75937 16.7671 9.96277 16.7671C11.4843 16.7671 12.2318 16.207 12.7658 15.6469L8.84157 10.5001V9.7Z" fill="white"/>
</g>
</svg>
