<svg width="120" height="18" viewBox="0 0 120 18" fill="none" xmlns="http://www.w3.org/2000/svg">
<mask id="mask0_1289_4485" style="mask-type:luminance" maskUnits="userSpaceOnUse" x="0" y="0" width="120" height="18">
<path d="M120 0H0V17.561H120V0Z" fill="white"/>
</mask>
<g mask="url(#mask0_1289_4485)">
<path d="M12.2914 6.25094C12.2914 6.25094 1.28785 -1.33886 0.645453 11.1099C0.645453 11.1099 -1.16185 5.92944 2.73375 2.67674C2.73375 2.67674 7.01035 -1.17836 13.3153 2.77724L14.0182 0.488037L18.6762 7.43534L11.4679 8.49974C11.4479 8.47974 12.0904 7.15434 12.2914 6.25094Z" fill="white"/>
<path d="M8.49615 11.4308C8.49615 11.4308 19.4995 19.0206 20.142 6.57178C20.142 6.57178 21.9493 11.7523 18.0537 15.0049C18.0537 15.0049 13.7771 18.8601 7.47225 14.9045L6.76935 17.1932L2.15125 10.2464L9.35955 9.22248C9.35955 9.18198 8.77765 10.5274 8.49615 11.4308Z" fill="white"/>
<path d="M40.5621 16.5108H38.3733L32.4904 8.70013L30.844 10.206V16.5108H28.9767V0.427933H30.844V8.37913L38.1123 0.427933H40.3011L33.8962 7.43523L40.5621 16.5108ZM48.5738 16.5108L48.2523 14.9045H48.1518C47.5694 15.6074 47.0275 16.0894 46.445 16.3504C45.9031 16.6113 45.1601 16.7318 44.3567 16.7318C43.2323 16.7318 42.3889 16.4708 41.7465 15.8684C41.104 15.286 40.7826 14.483 40.7826 13.4187C40.7826 11.1299 42.5899 9.94503 46.224 9.84453L48.1518 9.78453V9.08163C48.1518 8.17823 47.9309 7.53573 47.5694 7.11383C47.1879 6.69233 46.5455 6.47133 45.7621 6.47133C44.7982 6.47133 43.7343 6.73233 42.5494 7.33473L42.0075 6.04993C42.5494 5.72843 43.1923 5.50793 43.8148 5.34693C44.4572 5.18653 45.1601 5.08603 45.7826 5.08603C47.1279 5.08603 48.1318 5.40743 48.7743 5.98943C49.4167 6.57183 49.7382 7.53523 49.7382 8.88063V16.5708H48.5533V16.5108H48.5738ZM44.7187 15.266C45.7831 15.266 46.6465 15.005 47.2284 14.4026C47.8109 13.8001 48.1318 13.0172 48.1318 11.9528V10.9289L46.425 10.9889C45.0796 11.0489 44.0757 11.2499 43.4933 11.6313C42.9109 12.0128 42.5899 12.5952 42.5899 13.3982C42.5899 14.0406 42.7504 14.4626 43.1723 14.7835C43.5543 15.1055 44.0762 15.266 44.7187 15.266ZM60.6411 13.3987C60.6411 14.463 60.2597 15.266 59.4562 15.8484C58.6533 16.4308 57.5889 16.7118 56.1431 16.7118C54.6372 16.7118 53.4728 16.4908 52.6094 16.0089V14.4026C53.1514 14.6635 53.7338 14.8845 54.3762 15.045C55.0187 15.2055 55.6011 15.266 56.1836 15.266C57.087 15.266 57.7899 15.1055 58.2718 14.8445C58.7538 14.5835 58.9748 14.1416 58.9748 13.5596C58.9748 13.1382 58.7538 12.7567 58.3923 12.4352C58.0109 12.1138 57.2679 11.7323 56.1436 11.3108C55.0792 10.9294 54.3362 10.5679 53.8948 10.2869C53.4528 10.006 53.1518 9.64453 52.8709 9.26303C52.6499 8.88163 52.5494 8.46013 52.5494 7.91773C52.5494 7.01433 52.9309 6.27133 53.6738 5.72893C54.4167 5.18693 55.4406 4.92603 56.766 4.92603C57.9909 4.92603 59.1753 5.18693 60.3401 5.66893L59.7577 7.05433C58.6333 6.57233 57.6294 6.35133 56.6655 6.35133C55.8626 6.35133 55.2197 6.45183 54.8582 6.73283C54.4367 6.99383 54.2157 7.31523 54.2157 7.79723C54.2157 8.11873 54.2757 8.33913 54.4367 8.54013C54.5972 8.76113 54.8582 8.96163 55.1796 9.12263C55.5011 9.34353 56.2036 9.60453 57.1475 9.98603C58.4928 10.4679 59.3962 10.9499 59.8782 11.4918C60.4401 12.0738 60.6411 12.6557 60.6411 13.3987ZM71.1826 16.5108V9.18213C71.1826 8.27873 70.9616 7.57573 70.5401 7.09383C70.1187 6.67233 69.4757 6.39083 68.5723 6.39083C67.3875 6.39083 66.5445 6.71233 65.9621 7.35473C65.4201 7.99723 65.1592 9.06163 65.1592 10.5069V16.3904H63.4523V0.367432H65.1592V5.22653C65.1592 5.80893 65.0992 6.29083 65.0587 6.67233H65.1592C65.4806 6.13043 65.9621 5.70843 66.605 5.38743C67.2475 5.06603 67.9504 4.90553 68.7333 4.90553C70.1187 4.90553 71.1426 5.22693 71.8255 5.86943C72.5284 6.51183 72.8494 7.57623 72.8494 9.02163V16.3904H71.2031V16.5108H71.1826ZM77.9691 16.5108H76.1021V0.467932H85.0171V2.11433H77.9691V7.99723H84.6551V9.64353H78.0291V16.4904H77.9691V16.5108ZM89.0121 16.5108H87.3051V0.467932H89.0121V16.5108ZM102.385 10.8489C102.385 12.6562 101.903 14.1016 101 15.186C100.096 16.2099 98.8111 16.7318 97.1441 16.7318C96.1211 16.7318 95.2171 16.5108 94.4741 16.0289C93.6711 15.5469 93.0891 14.844 92.6671 14.0011C92.2451 13.0977 92.0241 12.0733 92.0241 10.9089C92.0241 9.10163 92.5061 7.65623 93.4101 6.63233C94.3131 5.60843 95.5991 5.08653 97.2651 5.08653C98.8711 5.08653 100.096 5.62843 101 6.63233C101.903 7.63623 102.385 9.02163 102.385 10.8489ZM93.7711 10.8489C93.7711 12.2948 94.0321 13.4191 94.6351 14.1621C95.2171 14.905 96.0811 15.2865 97.2051 15.2865C98.3291 15.2865 99.1731 14.905 99.7751 14.1621C100.378 13.4191 100.639 12.2948 100.639 10.8489C100.639 9.40303 100.378 8.33913 99.7751 7.59623C99.1731 6.85333 98.3291 6.47183 97.2051 6.47183C96.0811 6.47183 95.2371 6.85333 94.6951 7.59623C94.0521 8.27873 93.7711 9.40303 93.7711 10.8489ZM114.613 16.5108L112.524 9.88503C112.424 9.46353 112.143 8.53963 111.782 7.11433H111.681C111.42 8.29913 111.139 9.24263 110.978 9.88503L108.85 16.5108H106.882L103.83 5.22653H105.637C106.38 8.05773 106.922 10.246 107.283 11.6918C107.665 13.1977 107.866 14.1416 107.926 14.6835H108.026C108.086 14.3021 108.247 13.7801 108.408 13.1777C108.568 12.5352 108.729 12.0533 108.829 11.6718L110.857 5.20653H112.724L114.752 11.6718C115.134 12.8567 115.395 13.8606 115.555 14.6635H115.656C115.716 14.4026 115.756 14.0211 115.877 13.5391C115.977 12.9972 116.74 10.226 118.005 5.20653H119.772L116.68 16.4708H114.611V16.5108H114.613Z" fill="white"/>
</g>
</svg>
