<svg width="139" height="27" viewBox="0 0 139 27" fill="none" xmlns="http://www.w3.org/2000/svg">
<path d="M138.126 20.5069C138.126 20.2228 137.887 20.1176 137.637 20.1176H137.174V21.4412H137.409V20.8962H137.579L137.887 21.449H138.173L137.818 20.8651C137.901 20.8502 137.975 20.8059 138.028 20.7401C138.081 20.6744 138.109 20.5917 138.107 20.5069H138.126ZM137.413 20.6977V20.3084H137.629C137.753 20.3084 137.891 20.3473 137.891 20.4913C137.891 20.6354 137.741 20.686 137.606 20.686H137.413V20.6977ZM137.633 19.6077C137.404 19.6077 137.181 19.6762 136.99 19.8045C136.8 19.9328 136.652 20.1152 136.565 20.3286C136.477 20.542 136.454 20.7768 136.499 21.0033C136.543 21.2299 136.654 21.438 136.815 21.6013C136.977 21.7646 137.183 21.8758 137.407 21.9209C137.632 21.966 137.864 21.9428 138.076 21.8544C138.287 21.7661 138.467 21.6164 138.595 21.4243C138.722 21.2323 138.789 21.0065 138.789 20.7755C138.789 20.4658 138.668 20.1688 138.451 19.9497C138.234 19.7307 137.94 19.6077 137.633 19.6077ZM137.633 21.7915C137.438 21.7915 137.247 21.7331 137.085 21.6236C136.922 21.5141 136.796 21.3584 136.721 21.1763C136.647 20.9942 136.627 20.7939 136.665 20.6006C136.703 20.4073 136.797 20.2297 136.935 20.0903C137.073 19.951 137.249 19.856 137.44 19.8176C137.632 19.7791 137.83 19.7989 138.011 19.8743C138.191 19.9497 138.345 20.0775 138.454 20.2413C138.562 20.4052 138.62 20.5979 138.62 20.795C138.617 21.0546 138.514 21.3027 138.332 21.4867C138.151 21.6706 137.905 21.7758 137.648 21.7798L137.633 21.7915ZM62.319 19.7945C60.6074 19.7945 59.7439 18.2375 59.7439 16.7582C59.7439 15.279 60.6652 13.7881 62.238 13.7881C62.6158 13.7843 62.99 13.8607 63.3367 14.0122C63.6833 14.1638 63.9946 14.3871 64.2503 14.6678L66.0622 12.8421C65.5559 12.3479 64.9567 11.9613 64.2998 11.7052C63.6429 11.4491 62.9418 11.3287 62.238 11.3512C59.0886 11.3512 56.7949 13.6362 56.7949 16.801C56.7949 19.9658 59.0384 22.2509 62.292 22.2509C63.834 22.2509 65.2565 21.7837 66.1007 20.8767L64.339 18.9654C64.0755 19.2386 63.76 19.4552 63.4116 19.6024C63.0632 19.7495 62.689 19.8242 62.3113 19.8218L62.319 19.7945ZM52.1728 21.9356H54.9869V11.6587H52.1728V21.9356ZM47.0573 17.2915C47.0573 18.5022 46.2863 19.8023 44.8253 19.8023C43.7035 19.8023 43.106 18.9965 43.106 17.3343V11.6587H40.2919V18.0311C40.2919 20.1566 41.3443 22.2236 44.1468 22.2236C45.4691 22.2236 46.5793 21.1726 47.1344 20.394H47.1768V21.9511H49.8753V11.6587H47.0573V17.2915ZM35.2072 12.9589H35.1417C34.7471 12.4756 34.2547 12.0831 33.6975 11.8079C33.1403 11.5326 32.5313 11.3809 31.9112 11.3629C29.0431 11.3629 26.8381 13.6324 26.8381 16.7504C26.8381 19.8685 28.9005 22.2275 31.8264 22.2275C32.4473 22.2119 33.0584 22.0685 33.6225 21.8062C34.1866 21.5438 34.6917 21.1679 35.107 20.7016H35.1494V27H37.9635V11.6315H35.2226V12.9356L35.2072 12.9589ZM32.5087 19.7945C30.7702 19.7945 29.7833 18.2608 29.7833 16.7465C29.7833 15.2323 30.7046 13.7375 32.5087 13.7375C34.1818 13.7375 35.2072 15.3218 35.2072 16.7855C35.2072 18.2491 34.1933 19.7907 32.5087 19.7907V19.7945ZM96.562 11.3551C93.363 11.3551 91.027 13.6246 91.027 16.7504C91.027 19.9814 93.401 22.2509 96.562 22.2509C99.723 22.2509 102.098 19.958 102.098 16.7504C102.098 13.6051 99.793 11.3551 96.562 11.3551ZM96.562 19.7945C94.716 19.7945 93.891 18.2141 93.891 16.7465C93.891 15.279 94.727 13.7375 96.562 13.7375C98.397 13.7375 99.234 15.2946 99.234 16.7426C99.234 18.1907 98.397 19.7907 96.562 19.7907V19.7945ZM131.727 15.6021C130.278 15.2517 129.773 15.0649 129.773 14.4732C129.773 13.6596 130.798 13.4766 131.261 13.4766C131.68 13.4893 132.092 13.5864 132.473 13.7622C132.855 13.938 133.197 14.189 133.481 14.5004L135.143 12.8927C134.372 11.9195 132.868 11.3356 131.288 11.3356C129.252 11.3356 127.136 12.3711 127.136 14.6795C127.136 16.6648 128.678 17.2604 130.181 17.6263C131.77 18.0156 132.336 18.2725 132.336 18.9148C132.336 19.8452 131.265 20.0242 130.898 20.0242C130.407 20.0044 129.926 19.8846 129.482 19.6718C129.038 19.4591 128.641 19.1579 128.316 18.7863L126.608 20.5342C127.155 21.0839 127.808 21.5157 128.525 21.8035C129.243 22.0912 130.011 22.2288 130.783 22.208C133.551 22.208 135.166 20.8845 135.166 18.7046C135.166 16.6142 133.169 15.9096 131.747 15.5904L131.727 15.6021ZM126.411 11.6587H122.788L119.156 15.9407H119.091V5.97925H116.277V21.9394H119.091V16.8789H119.145L122.915 21.9394H126.604L122.229 16.33L126.38 11.6587H126.411ZM84.7008 11.3668C84.1138 11.3779 83.5349 11.5072 82.998 11.7471C82.4612 11.9871 81.9772 12.3329 81.5744 12.7643H81.5243V5.97925H78.7102V21.9394H81.4087V20.4797H81.4395C81.7861 21.0172 82.2605 21.4584 82.8194 21.763C83.3783 22.0677 84.004 22.226 84.6391 22.2236C87.542 22.2236 89.747 19.923 89.747 16.7504C89.747 13.5779 87.557 11.3551 84.6892 11.3551L84.7008 11.3668ZM84.138 19.7945C82.4418 19.7945 81.4395 18.2686 81.4395 16.7894C81.4395 15.3101 82.4765 13.7413 84.138 13.7413C85.961 13.7413 86.863 15.2984 86.863 16.7465C86.863 18.1946 85.884 19.7945 84.138 19.7945ZM77.6385 11.6587H74.0072L70.3758 15.9407H70.3103V5.97925H67.4962V21.9394H70.3103V16.8789H70.3758L74.146 21.9394H77.8351L73.4791 16.33L77.6308 11.6587H77.6385ZM108.91 11.3707C105.71 11.3707 103.374 13.6401 103.374 16.766C103.374 19.997 105.749 22.2664 108.91 22.2664C112.071 22.2664 114.446 19.9736 114.446 16.766C114.446 13.5584 112.133 11.3551 108.914 11.3551L108.91 11.3707ZM108.91 19.8101C107.063 19.8101 106.238 18.2297 106.238 16.7621C106.238 15.2946 107.075 13.7569 108.91 13.7569C110.745 13.7569 111.581 15.314 111.581 16.7621C111.581 18.2102 110.749 19.7945 108.914 19.7945L108.91 19.8101Z" fill="white"/>
<path d="M11.8501 0C9.50639 0 7.21529 0.701801 5.26649 2.0167C3.31779 3.3315 1.79889 5.2004 0.901993 7.387C0.00509334 9.5735 -0.229507 11.9795 0.227693 14.3008C0.684893 16.622 1.81359 18.7542 3.47079 20.4277C5.12809 22.1012 7.23959 23.2409 9.53829 23.7026C11.837 24.1643 14.2196 23.9273 16.3849 23.0216C18.5503 22.1159 20.401 20.5822 21.7031 18.6144C23.0052 16.6465 23.7002 14.333 23.7002 11.9663C23.7002 10.3948 23.3937 8.8388 22.7982 7.387C22.2026 5.9352 21.3298 4.616 20.2294 3.5048C19.129 2.3937 17.8226 1.5122 16.3849 0.9109C14.9472 0.3095 13.4063 0 11.8501 0ZM11.2063 19.8101C10.7524 19.8101 10.317 19.628 9.99599 19.3039C9.67509 18.9798 9.49469 18.5401 9.49469 18.0817V9.0506H7.91419C7.17319 9.0893 6.47519 9.4137 5.96429 9.957C5.45339 10.5003 5.16849 11.2209 5.16849 11.9702C5.16849 12.7194 5.45339 13.44 5.96429 13.9833C6.47519 14.5266 7.17319 14.8511 7.91419 14.8897H8.58109V16.6375H7.91419C6.68729 16.6401 5.50969 16.1504 4.64039 15.2762C3.77099 14.402 3.28119 13.2149 3.27859 11.976C3.27609 10.7371 3.76099 9.5479 4.62669 8.6701C5.49239 7.7922 6.66809 7.2976 7.89489 7.295H11.2063V19.8101ZM15.7976 16.6142H12.5054V4.1224C12.9594 4.1224 13.3947 4.3045 13.7157 4.6286C14.0367 4.9528 14.217 5.3924 14.217 5.8508V14.8547H15.8014C16.5424 14.816 17.2404 14.4916 17.7513 13.9483C18.2623 13.405 18.5471 12.6844 18.5471 11.9351C18.5471 11.1859 18.2623 10.4652 17.7513 9.922C17.2404 9.3787 16.5424 9.0542 15.8014 9.0156H15.1345V7.295H15.7898C16.0246 7.2755 16.2605 7.2755 16.4953 7.295C17.1013 7.3412 17.6923 7.5076 18.2346 7.7845C18.7769 8.0614 19.2599 8.4435 19.656 8.9089C20.0521 9.3743 20.3535 9.9139 20.5431 10.4969C20.7326 11.0799 20.8066 11.695 20.7608 12.3069C20.715 12.9188 20.5503 13.5156 20.276 14.0632C20.0018 14.6108 19.6235 15.0986 19.1626 15.4985C18.7017 15.8985 18.1673 16.2029 17.59 16.3943C17.0126 16.5857 16.4035 16.6604 15.7976 16.6142Z" fill="white"/>
<path d="M38.4608 2.72481C38.6133 2.72481 38.7623 2.67921 38.8891 2.59361C39.0159 2.50811 39.1147 2.38651 39.1731 2.24421C39.2314 2.10191 39.2467 1.94541 39.2169 1.79441C39.1872 1.64341 39.1138 1.50461 39.0059 1.39581C38.8981 1.28691 38.7607 1.21271 38.6112 1.18271C38.4616 1.15261 38.3066 1.16811 38.1657 1.22701C38.0248 1.28591 37.9044 1.38571 37.8197 1.51371C37.735 1.64181 37.6898 1.79231 37.6898 1.94631C37.6898 2.15271 37.771 2.35081 37.9156 2.49681C38.0602 2.64281 38.2563 2.72481 38.4608 2.72481ZM33.7924 3.25811C33.4568 3.25231 33.1266 3.34381 32.841 3.52181C32.5554 3.69991 32.3263 3.95691 32.1811 4.26241V3.40991H30.9398V8.64571H32.235V5.76501C32.235 5.06821 32.6205 4.36751 33.4416 4.36751C34.2627 4.36751 34.4131 5.14611 34.4131 5.76501V8.66511H35.7083V5.40691C35.7083 4.34031 35.1455 3.29321 33.7809 3.29321L33.7924 3.25811ZM28.3068 8.64571H29.6021V3.40991H28.3068V8.64571ZM51.8682 2.72481C52.0207 2.72481 52.1698 2.67921 52.2966 2.59361C52.4234 2.50811 52.5222 2.38651 52.5806 2.24421C52.6389 2.10191 52.6542 1.94541 52.6244 1.79441C52.5947 1.64341 52.5212 1.50461 52.4134 1.39581C52.3056 1.28691 52.1682 1.21271 52.0187 1.18271C51.8691 1.15261 51.7141 1.16811 51.5732 1.22701C51.4323 1.28591 51.3119 1.38571 51.2272 1.51371C51.1425 1.64181 51.0973 1.79231 51.0973 1.94631C51.0973 2.15271 51.1785 2.35081 51.3231 2.49681C51.4677 2.64281 51.6638 2.72481 51.8682 2.72481ZM49.7557 4.57391H51.1859V8.64181H52.4812V4.56611H53.9538V3.39831H49.7557V4.57391ZM47.5507 8.64181H48.846V3.40991H47.5507V8.64571V8.64181ZM36.3714 4.56611H37.817V8.64181H39.1123V4.56611H40.5656V3.39831H36.3598L36.3714 4.56611ZM44.9525 6.29061C44.9525 6.98741 44.567 7.68801 43.7459 7.68801C42.9248 7.68801 42.7744 6.90951 42.7744 6.29061V3.40991H41.4792V6.67201C41.4792 7.73871 42.042 8.78581 43.4067 8.78581C43.7408 8.79171 44.0698 8.70151 44.3551 8.52581C44.6404 8.35001 44.8703 8.09591 45.018 7.79321V8.63011H46.2477V3.40991H44.9756L44.9525 6.29061Z" fill="white"/>
</svg>
