<svg width="84" height="26" viewBox="0 0 84 26" fill="none" xmlns="http://www.w3.org/2000/svg">
<path d="M12.6092 14.1148C11.7107 12.7271 11.0402 11.8109 10.576 11.4471C12.9133 10.857 15.2261 8.9141 15.2261 5.7424C15.2261 1.8566 12.5414 0 8.2903 0C4.5361 0 2.3671 1.7596 1.8622 4.8047H0L3.719 7.944L7.6497 4.8047H5.5377C5.5377 4.8047 5.5567 2.6246 8.3365 2.6246C10.709 2.6246 11.5207 4.3412 11.5207 5.7694C11.5207 7.8497 10.4104 9.4315 7.7556 9.4315H1.8568V19.5501H5.5757V11.9294C6.3901 11.9294 7.2045 12.2312 8.5618 14.2496L11.8736 19.5501H16.0296L12.6092 14.1148Z" fill="white"/>
<path d="M65.647 19.55V1.11279H69.102V19.55H65.647Z" fill="white"/>
<path d="M22.9328 17.2165C24.091 17.2266 25.2312 16.9309 26.2364 16.3596L27.3521 18.5585C26.5215 19.022 25.2212 19.7711 22.6206 19.7711C18.3831 19.7711 15.9916 17.1115 15.9916 13.1125C15.9916 9.11355 18.7496 6.58325 22.2596 6.58325C26.212 6.58325 28.1366 9.37765 27.7186 14.0233H19.6834C19.8409 15.9581 20.829 17.2165 22.9328 17.2165ZM24.3905 11.6412C24.3634 10.2211 23.7906 9.08925 22.2188 9.08925C20.7638 9.08925 19.9305 9.98935 19.697 11.6412H24.3905Z" fill="white"/>
<path d="M35.8325 19.7711C31.7769 19.7711 29.2822 17.0764 29.2822 13.1907C29.2822 8.95725 32.1135 6.58325 35.9356 6.58325C37.9906 6.58325 39.2121 7.20295 39.8093 7.59105L38.6909 9.81955C37.9029 9.31095 36.9784 9.05075 36.0388 9.07315C34.011 9.07315 32.9469 10.7654 32.9469 13.0856C32.9469 15.4057 33.9458 17.2058 36.1039 17.2058C37.0509 17.2097 37.9751 16.9174 38.7452 16.3704L39.812 18.572C39.2121 18.96 38.1317 19.7711 35.8325 19.7711Z" fill="white"/>
<path d="M45.1435 6.98462V14.7318C45.1435 15.9956 45.586 16.6424 46.832 16.6424C48.1594 16.6424 49.1719 15.3786 49.4325 15.0687V6.98462H52.8909V15.9391C52.8832 17.1508 52.996 18.3602 53.2275 19.55H49.8234C49.6806 19.0008 49.5898 18.4397 49.552 17.8739C49.0745 18.4952 48.4581 18.998 47.7515 19.3427C47.0449 19.6873 46.2674 19.8644 45.4801 19.8598C42.6976 19.8598 41.6797 18.0787 41.6797 15.7828V6.98462H45.1435Z" fill="white"/>
<path d="M62.959 10.0028C62.551 9.7915 62.091 9.6982 61.632 9.7334C60.098 9.7334 59.189 11.0807 58.877 11.6412V19.5636H55.4209V6.9848H58.877V8.6878C59.419 7.7581 60.462 6.6749 62.074 6.6749C62.666 6.6383 63.258 6.7524 63.793 7.0063L62.959 10.0028Z" fill="white"/>
<path d="M80.151 6.98462L77.708 15.2492L74.749 6.98462H70.948L75.813 18.5718C74.998 21.7354 74.184 22.6785 72.371 22.6785C71.898 22.6897 71.426 22.6307 70.97 22.5034L70.511 24.9286C71.187 25.1398 71.891 25.2452 72.599 25.2412C76.16 25.2412 77.724 22.9318 78.875 19.876L82.751 10.1751L84 6.99802L80.151 6.98462Z" fill="white"/>
</svg>
