<svg width="57" height="33" viewBox="0 0 57 33" fill="none" xmlns="http://www.w3.org/2000/svg">
<mask id="mask0_1289_4472" style="mask-type:luminance" maskUnits="userSpaceOnUse" x="0" y="0" width="57" height="33">
<path d="M57 0H0V32.0263H57V0Z" fill="white"/>
</mask>
<g mask="url(#mask0_1289_4472)">
<path d="M34.9308 31.985C32.2875 31.6311 30.0999 29.9613 29.3563 27.7297C28.7316 25.8549 29.1001 24.4059 30.2342 24.278C30.7469 24.2203 31.0799 24.3127 31.3999 24.6018C31.7277 24.898 31.8129 25.1182 31.8848 25.8553C32.0956 28.0134 33.6876 29.4621 35.8486 29.4621C36.6281 29.4621 37.1138 29.3568 37.7703 29.0452C39.0403 28.4426 39.7127 27.2947 39.637 25.8589C39.5863 24.8975 39.1874 24.1649 38.3869 23.5632C37.7616 23.0931 36.8989 22.6986 35.2728 22.1393C33.0228 21.3654 32.0022 20.8695 31.0433 20.0841C29.2602 18.6238 28.5848 15.9407 29.3713 13.4414C29.707 12.3748 30.1523 11.6439 30.9717 10.8149C32.1941 9.57831 33.7853 8.94251 35.6525 8.94461C39.0214 8.94811 41.7544 11.0375 42.3709 14.08C42.467 14.5542 42.4867 14.9128 42.4542 15.5952C42.3872 17.0018 42.0399 18.0079 41.4007 18.6471C40.6823 19.3655 39.5797 19.2383 39.1498 18.3873C38.9355 17.9631 38.9411 17.7097 39.1768 17.1584C39.5283 16.3362 39.6516 15.8595 39.6516 15.3225C39.6516 14.2909 39.3059 13.4276 38.5975 12.6898C38.0782 12.149 37.4986 11.8203 36.7079 11.6181C34.675 11.0981 32.7064 12.13 32.0617 14.0534C31.8326 14.7368 31.8319 15.7738 32.0599 16.4149C32.274 17.0166 32.6732 17.5773 33.1759 17.9826C33.7423 18.4393 34.9939 19.0428 36.3804 19.5279C38.6198 20.3114 39.379 20.6656 40.3311 21.3712C41.3048 22.0928 41.8934 22.927 42.2647 24.112C42.4145 24.59 42.4386 24.8214 42.439 25.782C42.4392 26.7201 42.4126 26.9892 42.2713 27.4769C41.6098 29.7591 39.8433 31.3612 37.4195 31.8772C36.7599 32.0176 35.5626 32.0696 34.9308 31.985ZM5.49736 22.0252C2.82026 21.6029 0.785358 19.9067 0.162158 17.578C-0.0357421 16.8387 -0.051943 15.5225 0.127757 14.787C0.390057 13.713 1.02346 12.7851 1.63106 12.5846C2.14516 12.4149 2.82226 12.6461 3.16066 13.1069C3.42426 13.4658 3.41516 13.8923 3.12796 14.6315C2.80756 15.4563 2.74486 15.8939 2.85156 16.5617C3.06856 17.9195 4.03186 18.9655 5.44876 19.3817C6.01736 19.5488 7.10296 19.5383 7.67486 19.3603C9.67966 18.7364 10.5741 16.5743 9.59536 14.7179C9.11436 13.8055 8.02275 13.1068 5.79405 12.2848C3.41195 11.4063 2.52596 10.9188 1.54706 9.94751C0.781557 9.18791 0.419656 8.58061 0.165156 7.62801C-0.0554437 6.80251 -0.0553445 5.34981 0.165255 4.52041C0.618555 2.81601 1.74676 1.43901 3.33146 0.656012C4.28966 0.182612 5.11576 -0.00168836 6.27166 1.16434e-05C8.27096 0.00261164 9.76646 0.599012 11.0674 1.91181C12.0946 2.94841 12.5758 3.93431 12.734 5.32671C12.888 6.68201 12.3831 7.36441 11.2781 7.29401C10.5649 7.24861 10.1117 6.82681 10.0295 6.13191C9.88346 4.89701 9.61445 4.24791 8.99005 3.62351C7.77275 2.40621 5.67616 2.19051 4.21876 3.13241C2.72876 4.09541 2.33815 6.29881 3.40885 7.70111C3.96655 8.43161 4.91086 8.96981 7.14366 9.83001C8.87416 10.4967 9.48916 10.7839 10.2528 11.2816C11.3736 12.0122 12.1072 12.8989 12.4803 13.9741C13.3101 16.3654 12.5514 19.1309 10.6374 20.6917C10.0508 21.1701 9.00896 21.6882 8.24166 21.8832C7.55446 22.0579 6.16126 22.1299 5.49736 22.0252ZM19.8195 22.0173C17.7505 21.7206 15.7498 20.2185 14.8607 18.2942C14.4175 17.335 14.2716 16.632 14.2779 15.486C14.2845 14.2911 14.4303 13.6429 14.9215 12.6238C15.5686 11.2814 16.6012 10.2638 17.9808 9.60911C18.9698 9.13981 19.5003 9.01221 20.6571 8.96571C22.1564 8.90531 23.2988 9.17181 24.4387 9.84761C25.0028 10.182 25.9122 11.0078 26.3035 11.5409C26.7066 12.0901 27.1596 13.0678 27.3693 13.8413C27.5616 14.5508 27.5634 14.5824 27.5907 17.7479C27.6152 20.5991 27.6048 20.9741 27.4933 21.2661C27.0982 22.3006 25.4454 22.366 24.9359 21.3672C24.8058 21.1123 24.7923 20.8528 24.7632 18.0467C24.7369 15.5064 24.711 14.9238 24.6067 14.526C24.2911 13.3222 23.5523 12.3478 22.5997 11.879C20.3082 10.7513 17.6526 12.1338 17.1595 14.7111C17.0248 15.4153 17.0255 15.6851 17.1639 16.3409C17.3134 17.0497 17.6523 17.7083 18.137 18.2318C19.1162 19.2895 20.1809 19.6178 21.7762 19.3543C22.545 19.2273 22.85 19.2866 23.2143 19.634C23.9841 20.3681 23.6919 21.3864 22.5934 21.7974C21.8171 22.0879 20.8477 22.1647 19.8195 22.0173ZM49.7481 22.0226C47.3981 21.6779 45.4261 20.2151 44.4711 18.1096C43.7446 16.5074 43.7603 14.4032 44.5111 12.7785C45.3311 11.0042 46.8561 9.70231 48.7581 9.15391C49.5661 8.92111 51.4301 8.90471 52.2891 9.12291C55.1311 9.84441 56.9731 11.9998 56.9991 14.6313C57.0051 15.2375 56.9851 15.3377 56.7881 15.6979C56.6561 15.9372 56.4451 16.1811 56.2571 16.3106C55.6871 16.7031 55.3191 16.75 52.8101 16.75C50.5991 16.75 50.5281 16.7456 50.2091 16.5828C49.7721 16.359 49.5961 16.0993 49.5571 15.6193C49.5311 15.2962 49.5571 15.1808 49.6991 14.9726C50.0841 14.412 50.0831 14.4124 52.1521 14.371C53.9021 14.3361 54.0181 14.3251 54.1211 14.1852C54.3471 13.8787 54.0411 13.0816 53.4841 12.5246C52.8061 11.8464 51.8161 11.4702 50.7181 11.4735C49.5621 11.477 48.7611 11.8026 47.9781 12.5863C46.3701 14.1961 46.3371 16.7222 47.9031 18.3191C48.7031 19.1345 49.6021 19.5006 50.8041 19.5006C51.9961 19.5006 52.4741 19.3385 54.3341 18.3032C55.9631 17.3964 57.2191 19.0753 55.8611 20.3451C54.4861 21.6315 51.9071 22.3393 49.7481 22.0226Z" fill="white"/>
</g>
</svg>
