<svg width="63" height="26" viewBox="0 0 63 26" fill="none" xmlns="http://www.w3.org/2000/svg">
<path fill-rule="evenodd" clip-rule="evenodd" d="M62.821 13.4339C62.821 8.99072 60.674 5.48462 56.571 5.48462C52.451 5.48462 49.959 8.99072 49.959 13.3992C49.959 18.6235 52.901 21.2617 57.125 21.2617C59.185 21.2617 60.743 20.7931 61.921 20.1335V16.6622C60.743 17.2523 59.393 17.6168 57.679 17.6168C56 17.6168 54.511 17.0267 54.321 14.9786H62.786C62.786 14.753 62.821 13.8505 62.821 13.4339ZM54.269 11.785C54.269 9.82382 55.464 9.00802 56.554 9.00802C57.61 9.00802 58.735 9.82382 58.735 11.785H54.269Z" fill="white"/>
<path fill-rule="evenodd" clip-rule="evenodd" d="M43.2764 5.48462C41.5799 5.48462 40.4893 6.28302 39.8834 6.83852L39.6584 5.76232H35.8499V26L40.1777 25.0801L40.195 20.1682C40.8182 20.6195 41.7357 21.2617 43.2591 21.2617C46.3579 21.2617 49.1801 18.7623 49.1801 13.2603C49.1621 8.22702 46.3059 5.48462 43.2764 5.48462ZM42.2378 17.4433C41.2164 17.4433 40.6105 17.0788 40.195 16.6275L40.1777 10.1883C40.6278 9.68492 41.251 9.33782 42.2378 9.33782C43.8131 9.33782 44.9037 11.1081 44.9037 13.3818C44.9037 15.7076 43.8304 17.4433 42.2378 17.4433Z" fill="white"/>
<path fill-rule="evenodd" clip-rule="evenodd" d="M29.8947 4.4606L34.2398 3.5234V0L29.8947 0.919901V4.4606Z" fill="white"/>
<path d="M34.2398 5.77966H29.8947V20.9666H34.2398V5.77966Z" fill="white"/>
<path fill-rule="evenodd" clip-rule="evenodd" d="M25.2379 7.06415L24.9609 5.77975H21.2217V20.9667H25.5495V10.6743C26.5709 9.33785 28.302 9.58085 28.8387 9.77175V5.77975C28.2847 5.57145 26.2593 5.18965 25.2379 7.06415Z" fill="white"/>
<path fill-rule="evenodd" clip-rule="evenodd" d="M16.5823 2.01343L12.3584 2.91593L12.3411 16.8184C12.3411 19.3872 14.2626 21.279 16.8247 21.279C18.2442 21.279 19.2829 21.0187 19.8542 20.7063V17.1829C19.3002 17.4085 16.565 18.2069 16.565 15.6382V9.47663H19.8542V5.77973H16.565L16.5823 2.01343Z" fill="white"/>
<path fill-rule="evenodd" clip-rule="evenodd" d="M4.8798 10.1883C4.8798 9.51132 5.4337 9.25102 6.3512 9.25102C7.6669 9.25102 9.3288 9.65022 10.6444 10.3618V6.28302C9.2076 5.71032 7.7881 5.48462 6.3512 5.48462C2.837 5.48462 0.5 7.32442 0.5 10.3965C0.5 15.1869 7.0783 14.4232 7.0783 16.4887C7.0783 17.287 6.3859 17.5474 5.4164 17.5474C3.9796 17.5474 2.1446 16.9573 0.690399 16.1589V20.2897C2.3004 20.984 3.9276 21.279 5.4164 21.279C9.0172 21.279 11.4927 19.4913 11.4927 16.3845C11.4754 11.2123 4.8798 12.1322 4.8798 10.1883Z" fill="white"/>
</svg>
