<svg width="74" height="22" viewBox="0 0 74 22" fill="none" xmlns="http://www.w3.org/2000/svg">
<path d="M12.5148 10.9898L20.5202 2.98727C20.7856 2.71747 20.9337 2.36037 20.9337 1.98167C20.9337 1.19227 20.2903 0.55127 19.4987 0.55127C19.1131 0.55127 18.7517 0.701969 18.4791 0.977169L10.4808 8.94897L2.4469 0.965269C2.1754 0.698369 1.8157 0.55127 1.4342 0.55127C0.6436 0.55127 0 1.19197 0 1.98057C0 2.36517 0.154001 2.72607 0.430401 2.99807L8.4347 10.9787L0.434601 18.9711C0.153401 19.2473 0 19.609 0 19.9954C0 20.7845 0.6436 21.4248 1.4342 21.4248C1.8163 21.4248 2.1763 21.2769 2.4469 21.007L10.4684 13.019L18.4594 20.9779C18.7429 21.2701 19.1085 21.4257 19.4987 21.4257C20.2895 21.4257 20.933 20.7845 20.933 19.9954C20.933 19.6145 20.785 19.2568 20.5158 18.9871L12.5148 10.9898Z" fill="white"/>
<path d="M60.106 10.9874C60.106 12.4206 61.274 13.5865 62.713 13.5865C64.149 13.5865 65.318 12.4206 65.318 10.9874C65.318 9.55388 64.149 8.38818 62.713 8.38818C61.274 8.38818 60.106 9.55388 60.106 10.9874Z" fill="white"/>
<path d="M55.162 10.9886C55.162 6.8382 58.548 3.4613 62.711 3.4613C66.871 3.4613 70.258 6.8382 70.258 10.9886C70.258 15.138 66.871 18.5135 62.711 18.5135C58.548 18.5135 55.162 15.138 55.162 10.9886ZM52.193 10.9886C52.193 16.7708 56.911 21.4751 62.711 21.4751C68.51 21.4751 73.231 16.7708 73.231 10.9886C73.231 5.2056 68.51 0.5 62.711 0.5C56.911 0.5 52.193 5.2056 52.193 10.9886Z" fill="white"/>
<path d="M51.4463 0.679422L51.0051 0.678223C49.6803 0.678223 48.4026 1.09482 47.3354 1.91482C47.1948 1.27322 46.6197 0.790321 45.9345 0.790321C45.146 0.790321 44.5142 1.42042 44.5123 2.20832C44.5123 2.21122 44.5171 19.8728 44.5171 19.8728C44.5191 20.6593 45.1624 21.2986 45.9515 21.2986C46.7403 21.2986 47.3835 20.6593 47.3855 19.8711C47.3855 19.8676 47.3862 9.00962 47.3862 9.00962C47.3862 5.38952 47.7181 3.92752 50.8279 3.54002C51.1153 3.50432 51.4293 3.50992 51.4293 3.50992C52.28 3.48082 52.885 2.89772 52.885 2.10962C52.885 1.32112 52.239 0.679422 51.4463 0.679422Z" fill="white"/>
<path d="M23.9049 9.26186C23.9049 9.22276 23.908 9.18196 23.9099 9.14176C24.7426 5.85916 27.724 3.43006 31.2746 3.43006C34.8681 3.43006 37.8767 5.91886 38.6668 9.26186H23.9049ZM41.6041 8.99186C40.986 6.07366 39.3839 3.67666 36.9442 2.13736C33.378 -0.120341 28.6687 0.00456011 25.2241 2.44716C22.4144 4.44046 20.7924 7.70106 20.7924 11.0599C20.7924 11.9021 20.8943 12.7522 21.1062 13.5889C22.1672 17.7508 25.7551 20.9013 30.0328 21.4234C31.3022 21.5767 32.5377 21.5033 33.8172 21.1729C34.9166 20.9062 35.9804 20.4616 36.9606 19.8352C37.978 19.183 38.828 18.323 39.6512 17.2936C39.6678 17.2746 39.6845 17.2579 39.7011 17.238C40.2725 16.5314 40.1665 15.5266 39.5387 15.047C39.0092 14.6423 38.1202 14.4782 37.4207 15.3715C37.2704 15.585 37.1027 15.8048 36.918 16.0246C36.3618 16.6374 35.6718 17.2312 34.8449 17.6917C33.7928 18.2522 32.5937 18.5726 31.3191 18.5797C27.147 18.5334 24.9145 15.6294 24.1204 13.5566C23.9817 13.1696 23.8748 12.7681 23.8002 12.3547C23.7905 12.2773 23.7833 12.2027 23.7805 12.1339C24.6431 12.1339 38.7521 12.1315 38.7521 12.1315C40.8046 12.0886 41.9092 10.6439 41.6041 8.99186Z" fill="white"/>
</svg>
