<svg width="48" height="48" viewBox="0 0 48 48" fill="none" xmlns="http://www.w3.org/2000/svg">
<rect width="48" height="48" rx="10" fill="url(#paint0_linear_1_8)"/>
<g clip-path="url(#clip0_1_8)">
<path d="M8.94535 44.9792C9.2891 45.25 9.64847 45.5052 10.0443 45.7448C10.0964 45.7708 10.1433 45.8021 10.1954 45.8281H16.9454C16.2787 45.6354 15.461 45.3542 14.586 44.9375C14.586 44.9375 14.5808 44.9375 14.5808 44.9323C12.1745 43.7865 9.33077 41.6302 7.99743 37.6094C7.52868 39.8438 7.72139 42.3281 8.94535 44.9792ZM37.1172 19.3594C37.1172 18.8802 37.5079 18.4948 37.9818 18.4948C38.4662 18.4948 38.8568 18.8802 38.8568 19.3594C38.8568 19.8385 38.4662 20.2344 37.9818 20.2344C37.5079 20.2344 37.1172 19.8385 37.1172 19.3594ZM20.211 45.8281H38.2214C38.2214 45.8281 37.9089 42.8958 33.6901 42.1771C33.3672 42.4479 33.0026 42.6719 32.6224 42.849C31.987 43.1406 31.2995 43.2969 30.6172 43.3385C29.9297 43.3698 29.2526 43.2813 28.5964 43.1302C29.2631 43.2083 29.9349 43.2292 30.5964 43.1354C31.2474 43.0208 31.8776 42.8125 32.4349 42.4792C32.987 42.151 33.4662 41.7083 33.8151 41.1875C33.8464 41.1458 33.8724 41.099 33.9089 41.0573C35.2214 38.3177 34.1901 33.0208 29.9349 29.9635C30.0599 30 33.6797 30.8021 35.4245 32.9635C36.3151 34.0833 37.3412 33.599 37.3204 32.1667C37.2995 30.75 36.2526 28.0365 35.0651 25.9479C35.0651 25.9479 42.961 23.3646 43.4974 22.4635C44.8776 20.1406 42.1589 17.6979 40.4401 16.4375C38.7214 15.1823 35.586 14.2187 34.4974 14.1719C33.4089 14.1354 33.8672 9.78125 28.0912 9.03125C29.4193 12.401 27.612 17.0417 24.8412 20.7969C28.7579 22.375 29.9297 25.3021 29.7735 27.1719C29.3047 26.8802 28.4766 26.4271 27.2787 25.974C25.8776 25.4479 23.9766 24.9271 21.5547 24.6875C21.4766 24.6771 21.3933 24.6719 21.3099 24.6615C20.8672 25.0469 20.4245 25.3906 19.9818 25.6979C20.1953 25.7135 20.4089 25.7292 20.6172 25.7344C26.7162 26.1615 29.5495 28.3854 29.5495 28.3854C31.7422 41.1094 23.7735 44.8177 20.211 45.8281Z" fill="white"/>
<path d="M5.86719 17.5573C5.01823 8.92708 14.4141 8.77604 15.8776 15.401C16.2891 17.2708 15.638 18.7448 14.487 20.1406C15.6641 19.8802 17.0286 19.724 18.5807 19.7083C18.7318 19.7083 18.8776 19.7135 19.0234 19.7188C19.0339 19.5521 19.0391 19.375 19.0391 19.1875C19.0443 18.4948 18.9453 17.724 18.6484 17.026C18.3516 16.3333 17.888 15.7083 17.0807 15.2083H19.5286C19.8047 15.5833 20.0286 15.974 20.1901 16.375C20.6016 17.349 20.7161 18.3385 20.7161 19.1875C20.7161 19.4115 20.7109 19.625 20.6901 19.8229C22.263 19.9896 23.5859 20.3125 24.7005 20.7448C25.0234 20.2656 25.3203 19.7969 25.5807 19.3281C28.4661 14.1927 27.5078 2 15.8047 2C4.09635 2 1.78385 16.1719 5.86719 17.5573Z" fill="white"/>
<path d="M8.94519 44.9792C9.28895 45.2501 9.64832 45.5053 10.0442 45.7449C10.0962 45.7709 10.1431 45.8022 10.1952 45.8282H15.7577C15.3306 45.5313 14.9452 45.2397 14.5858 44.9376C14.5858 44.9376 14.5806 44.9376 14.5806 44.9324C12.1744 43.7865 9.33061 41.6303 7.99728 37.6095C7.20561 35.2345 6.94519 32.2188 7.60665 28.3855C7.60665 28.3855 11.065 25.672 18.5806 25.672C19.0598 25.672 19.5233 25.6824 19.9764 25.698H19.9817C20.1952 25.7136 20.4087 25.7292 20.6171 25.7345C20.9348 25.3907 21.2473 25.0417 21.5546 24.6876C21.4764 24.6772 21.3931 24.672 21.3098 24.6615C20.466 24.5886 19.5546 24.5417 18.5806 24.5417C14.6848 24.5417 11.8046 25.2449 9.87749 25.974C9.06499 26.2813 8.41395 26.5886 7.93999 26.849C6.36707 28.9063 5.15874 31.4428 5.01811 34.8855C4.87749 38.2761 5.58061 42.3126 8.94519 44.9792Z" fill="white"/>
<path d="M9.81508 30.0521C9.44529 31.5157 9.42446 33.0677 9.63279 34.5782C9.84112 36.099 10.3463 37.5886 11.1015 38.948C11.4661 39.6355 11.9557 40.2448 12.4349 40.8542C12.987 41.4011 13.4974 41.9948 14.1536 42.4167L14.6172 42.7552L14.8463 42.9271L15.1015 43.0625L16.1172 43.599C16.4505 43.7865 16.8203 43.8855 17.1797 44.0105C17.539 44.1302 17.8984 44.2396 18.2578 44.3438C17.9453 44.1302 17.6276 43.9271 17.3151 43.7292C17.0026 43.5261 16.6692 43.3698 16.3932 43.125C15.8099 42.6771 15.2161 42.2657 14.7109 41.7448C14.164 41.2761 13.7161 40.7136 13.2474 40.1823C12.8411 39.5938 12.3932 39.0417 12.0755 38.3959C11.3672 37.1667 10.8567 35.8125 10.487 34.4115C10.1328 33.0052 9.90883 31.5521 9.81508 30.0521Z" fill="white"/>
</g>
<defs>
<linearGradient id="paint0_linear_1_8" x1="3.21539" y1="36" x2="44.7846" y2="12" gradientUnits="userSpaceOnUse">
<stop stop-color="#94EDFA"/>
<stop offset="1" stop-color="#6B57F5"/>
</linearGradient>
<clipPath id="clip0_1_8">
<rect width="40" height="44" fill="white" transform="translate(4 2)"/>
</clipPath>
</defs>
</svg>
