<?xml version="1.0" standalone="no"?>
<!DOCTYPE svg PUBLIC "-//W3C//DTD SVG 20010904//EN"
 "http://www.w3.org/TR/2001/REC-SVG-20010904/DTD/svg10.dtd">
<svg version="1.0" xmlns="http://www.w3.org/2000/svg"
 width="700.000000pt" height="700.000000pt" viewBox="0 0 700.000000 700.000000"
 preserveAspectRatio="xMidYMid meet">
<metadata>
Created by potrace 1.14, written by Peter Selinger 2001-2017
</metadata>
<g transform="translate(0.000000,700.000000) scale(0.100000,-0.100000)"
fill="#000000" stroke="none">
<path d="M1230 6985 c-313 -53 -582 -190 -802 -410 -205 -204 -342 -460 -405
-755 -17 -81 -18 -200 -18 -2315 0 -2146 1 -2233 19 -2320 64 -304 191 -541
405 -756 212 -211 434 -332 738 -402 l98 -22 2205 -3 c2149 -2 2208 -2 2320
17 594 101 1054 547 1186 1151 18 82 19 177 19 2330 0 2153 -1 2248 -19 2330
-87 399 -308 723 -641 940 -142 92 -292 155 -484 203 l-86 21 -2230 2 c-1772
2 -2245 -1 -2305 -11z m1371 -301 c579 -80 988 -397 1199 -929 128 -322 160
-748 85 -1121 -49 -244 -107 -378 -280 -652 -1 -1 -43 11 -92 28 -102 34 -276
73 -404 91 l-86 12 -6 146 c-7 202 -47 341 -138 483 l-31 48 -174 0 c-96 0
-174 -4 -174 -8 0 -4 22 -25 49 -45 139 -106 221 -298 221 -517 l0 -90 -73 0
c-112 0 -330 -19 -452 -40 -60 -10 -111 -17 -113 -15 -2 2 14 27 36 57 130
174 186 364 162 546 -41 307 -229 576 -482 691 -110 50 -181 65 -313 65 -105
0 -130 -4 -200 -28 -175 -60 -302 -170 -385 -334 -73 -143 -100 -274 -100
-478 0 -109 -3 -144 -12 -144 -27 1 -109 72 -143 124 -80 119 -110 265 -103
496 8 251 62 451 189 705 231 464 617 772 1109 884 139 32 204 38 412 40 122
1 226 -4 299 -15z m1634 -1031 c236 -56 403 -154 525 -306 28 -35 85 -133 132
-225 44 -90 90 -169 102 -177 12 -7 45 -16 75 -19 148 -19 436 -114 616 -204
320 -159 617 -450 686 -673 40 -127 15 -283 -55 -344 -75 -66 -402 -206 -861
-368 -132 -46 -263 -92 -292 -101 l-52 -17 64 -128 c155 -309 245 -565 261
-743 12 -139 -39 -238 -122 -238 -51 0 -68 11 -184 125 -115 112 -230 193
-373 260 -99 47 -361 139 -379 133 -6 -2 16 -24 48 -48 272 -205 500 -579 571
-937 23 -118 24 -371 1 -464 -36 -143 -55 -178 -147 -269 -146 -145 -293 -201
-531 -203 -103 0 -128 -3 -105 -10 17 -6 104 -11 195 -11 147 -1 173 2 240 22
87 28 157 62 221 107 l46 33 89 -23 c253 -64 425 -187 512 -366 23 -46 44 -96
48 -111 l6 -28 -1298 0 -1299 1 100 34 c138 47 402 182 510 260 388 279 630
653 728 1120 41 193 51 305 51 540 -1 166 -6 262 -23 390 -12 94 -24 177 -26
185 -16 50 -342 204 -580 274 -430 125 -981 166 -1475 111 -313 -35 -662 -124
-890 -228 -136 -61 -260 -137 -265 -162 -13 -59 -36 -259 -46 -395 -23 -319
17 -670 107 -933 48 -141 161 -364 239 -472 220 -306 553 -552 930 -685 l110
-39 -485 -1 -485 0 -82 56 c-45 30 -125 96 -178 146 -252 239 -397 532 -461
933 -23 139 -26 515 -6 650 53 351 163 630 360 907 52 73 58 78 145 118 849
395 2150 383 2958 -26 69 -35 129 -64 133 -64 10 0 6 80 -8 160 -32 178 -122
339 -270 485 -103 102 -195 167 -337 237 l-98 48 92 138 c260 388 416 787 435
1117 9 144 -2 271 -31 372 l-23 81 35 -5 c20 -3 63 -12 96 -20z m-2780 -3278
c51 -421 183 -804 378 -1095 92 -138 130 -184 262 -316 139 -140 271 -245 441
-350 57 -36 104 -67 104 -69 0 -1 -44 10 -97 26 -139 42 -357 154 -484 249
-326 243 -559 632 -641 1066 -27 149 -32 476 -8 614 14 82 14 84 22 45 4 -22
14 -98 23 -170z"/>
<path d="M5483 4289 c-122 -60 -80 -239 57 -239 144 0 177 189 43 246 -42 18
-50 18 -100 -7z"/>
</g>
</svg>
