<svg xmlns="http://www.w3.org/2000/svg" width="962" height="219" fill="none" viewBox="0 0 962 219">
  <g fill="#030712">
    <path d="M194.351 96.5c-6.397 12.8-27.186 25.5-39.352 28 28.428 15.131 22.936 37.128 18.618 54.427a317.14 317.14 0 0 0-1.118 4.573c116.5-46 97.69-154.5 77.856-183.5 0 24.784-50.897 18.73-98.362 13.085C132.429 10.758 113.447 8.5 98.855 8.5c-49.998 0-106.5 45-98 114.5 6.799 55.6 64.498 87.167 92.498 96-56.498-51.5-4-176 7.998-184 10 8.4 16.5 20.833 18.5 26 40-6 66.332 21.167 74.5 35.5Z"/>
    <path fill-rule="evenodd" d="M511.663 167.135c0 27.611 19.891 40.959 47.502 40.959 20.545 0 34.024-7.721 41.614-21.592h.523V206h38.08v-94.742c0-26.303-23.162-45.54-60.849-45.54-38.997 0-60.719 20.546-62.29 46.325h38.081c1.046-10.6 10.337-17.143 23.685-17.143 13.217 0 21.592 6.282 21.592 16.227v.654c0 8.768-8.899 10.076-34.024 12.432-29.05 2.486-53.914 11.777-53.914 42.922Zm88.2-11.385c0 14.525-11.516 24.994-29.182 24.994-12.432 0-20.545-5.496-20.545-14.918 0-10.469 9.945-15.703 22.77-17.535 12.17-1.701 22.507-3.795 26.957-6.15v13.609Z" clip-rule="evenodd"/>
    <path d="m654.273 182.184 68.308-82.049v-.524h-66.869V67.812h114.371v25.91l-64.382 80.087v.523h66.083V206H654.273v-23.816Z"/>
    <path fill-rule="evenodd" d="M777.648 137.037c0 43.445 26.303 71.188 68.308 71.057 34.678.131 58.887-18.059 63.86-45.67h-36.117c-3.403 10.338-14.264 16.75-27.35 16.881-18.844-.131-30.098-14.133-29.967-32.061v-1.047h94.611v-9.291c0-43.053-25.517-71.056-65.953-71.187-40.959.13-67.392 28.92-67.392 71.318Zm67.916-42.53c15.965.132 28.396 11.386 28.92 27.743h-58.102c.785-15.311 12.301-27.611 29.182-27.742Z" clip-rule="evenodd"/>
    <path d="M145.999 88.5a8.5 8.5 0 0 1-8.5 8.5 8.5 8.5 0 0 1-8.5-8.5 8.5 8.5 0 0 1 8.5-8.5 8.5 8.5 0 0 1 8.5 8.5Zm-56.744 76.949c-1.48-8.896 2.75-27.099 31.531-28.741.27-4.243 2.67-14.124 10.108-19.708 1.887.274 5.902 1.971 6.871 6.569-2.963.685-9.459 4.024-11.723 11.907 10.916-.137 32.987 4.517 33.957 24.225 0 10.611-9.281 14.538-15.851 17.317-3.598 1.522-6.383 2.7-6.383 4.443 0 4.927 11.725 7.391 15.766 6.57-3.502 8.485-14.067 26.113-28.297 28.74-14.229 2.628-25.332-18.065-29.106-28.74 4.447.547 13.826.328 15.766-4.927.928-2.511-4.199-4.966-9.805-7.65-6.129-2.935-12.834-6.146-12.834-10.005ZM336.861 206V13.375h41.875v77.076h80.216V13.375h41.875V206h-41.875v-79.562h-80.216V206h-41.875ZM961.085 13.375V206h-40.174V13.375h40.174Z"/>
  </g>
</svg>