<svg xmlns="http://www.w3.org/2000/svg" width="4.75em" height="1em" viewBox="0 0 108 108">
    <path fill="#F06B66"
        d="M50.134.048c28.434 0 51.61 23.177 51.61 51.658a16.726 16.726 0 0 1-25.422 14.193l-.24-.143l-.095.238c-7.196 13.046-22.973 18.704-36.82 13.204c-13.847-5.5-21.442-20.44-17.726-34.869c3.715-14.428 17.582-23.841 32.363-21.969c14.781 1.873 25.863 14.447 25.863 29.346a5.448 5.448 0 0 0 10.848 0c0-22.31-18.072-40.402-40.38-40.428c-18.713-.034-35.004 12.779-39.38 30.972c-4.377 18.194 4.304 37.013 20.984 45.494c16.68 8.48 37.001 4.406 49.123-9.85l8.601 7.263a51.467 51.467 0 0 1-39.329 18.255C22.203 102.562 0 79.674 0 51.73C0 23.785 22.203.897 50.134.048Zm0 33.355a18.35 18.35 0 1 0 .048 36.653c9.758-.51 17.403-8.578 17.39-18.349c-.012-9.77-7.679-17.818-17.438-18.304Zm0 10.896a7.407 7.407 0 1 1 0 14.814a7.407 7.407 0 0 1 0-14.814Z" />
</svg>