<svg width="151" height="150" viewBox="0 0 150 150" fill="none" xmlns="http://www.w3.org/2000/svg">
    <path fill-rule="evenodd" clip-rule="evenodd"
        d="M132.881 103.057C128.103 113.974 122.919 122.298 115.692 129.144C107.653 136.817 98.0971 140.889 87.1426 141.834C78.1116 142.601 69.314 141.539 60.6332 138.942C51.7747 136.345 43.7332 132.272 36.7424 126.075C30.9747 120.881 26.5467 114.684 23.1083 107.719C17.8062 97.0369 14.2524 85.8224 12.6208 73.9592C11.5728 66.2866 11.5145 58.6723 13.4963 51.1761C15.3601 43.9757 19.1473 37.9559 24.3911 32.8209C29.5752 27.7442 35.5764 23.8495 41.9849 20.6035C51.8344 15.7046 62.1468 12.0447 72.9846 10.0974C80.7341 8.68066 88.4837 8.32647 96.2917 9.91831C103.631 11.4544 109.924 14.9366 115.402 20.0716C121.345 25.6205 125.773 32.2889 129.383 39.549C133.522 47.93 136.435 56.7249 137.775 66.0505C139.056 75.3163 138.474 84.4627 135.971 93.4964C134.804 97.3911 133.465 101.111 132.881 103.057Z"
        fill="#FFFFFFDD" stroke="#262627" />
  <path d="M 49.045 53.202 L 49.045 42.606 L 104.165 42.606 L 104.165 53.202 L 82.189 53.202 L 82.189 113.526 L 71.199 113.526 L 71.199 53.202 L 49.045 53.202 Z" fill="black"/>
</svg>