<svg width="100" height="100" viewBox="0 0 100 100" fill="none" xmlns="http://www.w3.org/2000/svg">
<rect width="100" height="100" rx="25" fill="#E7E7E7"/>
<g clip-path="url(#clip0_533_2850)">
<path fill-rule="evenodd" clip-rule="evenodd" d="M42.2812 32.7239C43.7607 40.6073 50.3444 49.5566 50.3444 49.5566C50.3444 49.5566 57.6495 39.6269 58.5992 31.4728C58.7339 30.8169 58.8049 30.1348 58.8049 29.4346C58.8049 24.2991 54.9829 20.1359 50.2683 20.1359C45.5537 20.1359 41.7317 24.2991 41.7317 29.4346C41.7317 30.5927 41.9261 31.7013 42.2812 32.7239ZM50.3346 49.5703C49.3993 48.8956 41.0203 42.9645 33.5885 41.5696C32.5658 41.2144 31.457 41.02 30.2988 41.02C25.1632 41.02 21 44.842 21 49.5566C21 54.2712 25.1632 58.0932 30.2988 58.0932C30.9986 58.0932 31.6804 58.0222 32.3361 57.8877C39.6978 57.0307 48.5072 50.9929 50.1501 49.8273C48.9844 51.4703 42.9472 60.279 42.0899 67.6404C41.9552 68.2963 41.8842 68.9784 41.8842 69.6786C41.8842 74.8141 45.7061 78.9773 50.4208 78.9773C55.1354 78.9773 58.9574 74.8141 58.9574 69.6786C58.9574 68.5205 58.763 67.4119 58.4079 66.3893C57.08 59.3134 51.6398 51.3788 50.5393 49.8275C52.1829 50.9936 60.9917 57.0307 68.353 57.8877C69.0086 58.0222 69.6904 58.0932 70.3902 58.0932C75.5259 58.0932 79.6891 54.2712 79.6891 49.5566C79.6891 44.842 75.5259 41.02 70.3902 41.02C69.232 41.02 68.1232 41.2144 67.1005 41.5696C59.6689 42.9645 51.2902 48.8952 50.3545 49.5702C50.348 49.5612 50.3444 49.5566 50.3444 49.5566C50.3444 49.5566 50.3412 49.5612 50.3346 49.5703Z" fill="#010314"/>
<path fill-rule="evenodd" clip-rule="evenodd" d="M42.2812 32.7239C43.7607 40.6073 50.3444 49.5566 50.3444 49.5566C50.3444 49.5566 57.6495 39.6269 58.5992 31.4728C58.7339 30.8169 58.8049 30.1348 58.8049 29.4346C58.8049 24.2991 54.9829 20.1359 50.2683 20.1359C45.5537 20.1359 41.7317 24.2991 41.7317 29.4346C41.7317 30.5927 41.9261 31.7013 42.2812 32.7239ZM50.3346 49.5703C49.3993 48.8956 41.0203 42.9645 33.5885 41.5696C32.5658 41.2144 31.457 41.02 30.2988 41.02C25.1632 41.02 21 44.842 21 49.5566C21 54.2712 25.1632 58.0932 30.2988 58.0932C30.9986 58.0932 31.6804 58.0222 32.3361 57.8877C39.6978 57.0307 48.5072 50.9929 50.1501 49.8273C48.9844 51.4703 42.9472 60.279 42.0899 67.6404C41.9552 68.2963 41.8842 68.9784 41.8842 69.6786C41.8842 74.8141 45.7061 78.9773 50.4208 78.9773C55.1354 78.9773 58.9574 74.8141 58.9574 69.6786C58.9574 68.5205 58.763 67.4119 58.4079 66.3893C57.08 59.3134 51.6398 51.3788 50.5393 49.8275C52.1829 50.9936 60.9917 57.0307 68.353 57.8877C69.0086 58.0222 69.6904 58.0932 70.3902 58.0932C75.5259 58.0932 79.6891 54.2712 79.6891 49.5566C79.6891 44.842 75.5259 41.02 70.3902 41.02C69.232 41.02 68.1232 41.2144 67.1005 41.5696C59.6689 42.9645 51.2902 48.8952 50.3545 49.5702C50.348 49.5612 50.3444 49.5566 50.3444 49.5566C50.3444 49.5566 50.3412 49.5612 50.3346 49.5703Z" fill="#010314"/>
</g>
<defs>
<clipPath id="clip0_533_2850">
<rect width="58.8602" height="59.5" fill="white" transform="translate(21 20)"/>
</clipPath>
</defs>
</svg>
