<svg width="100" height="100" viewBox="0 0 100 100" fill="none" xmlns="http://www.w3.org/2000/svg">
<rect width="100" height="100" rx="25" fill="#E7E7E7"/>
<g clip-path="url(#clip0_1243_4430)">
<path fill-rule="evenodd" clip-rule="evenodd" d="M42.2812 32.7239C43.7607 40.6073 50.3444 49.5566 50.3444 49.5566C50.3444 49.5566 57.6495 39.6269 58.5992 31.4728C58.7339 30.8169 58.8049 30.1348 58.8049 29.4346C58.8049 24.2991 54.9829 20.1359 50.2683 20.1359C45.5537 20.1359 41.7317 24.2991 41.7317 29.4346C41.7317 30.5927 41.9261 31.7013 42.2812 32.7239ZM50.3346 49.5703C49.3993 48.8956 41.0203 42.9645 33.5885 41.5696C32.5658 41.2144 31.457 41.02 30.2988 41.02C25.1632 41.02 21 44.842 21 49.5566C21 54.2712 25.1632 58.0932 30.2988 58.0932C30.9986 58.0932 31.6804 58.0222 32.3361 57.8877C39.6978 57.0307 48.5072 50.9929 50.1501 49.8273C48.9844 51.4703 42.9472 60.279 42.0899 67.6404C41.9552 68.2963 41.8842 68.9784 41.8842 69.6786C41.8842 74.8141 45.7061 78.9773 50.4208 78.9773C55.1354 78.9773 58.9574 74.8141 58.9574 69.6786C58.9574 68.5205 58.763 67.4119 58.4079 66.3893C57.08 59.3134 51.6398 51.3788 50.5393 49.8275C52.1829 50.9936 60.9917 57.0307 68.353 57.8877C69.0086 58.0222 69.6904 58.0932 70.3902 58.0932C75.5259 58.0932 79.6891 54.2712 79.6891 49.5566C79.6891 44.842 75.5259 41.02 70.3902 41.02C69.232 41.02 68.1232 41.2144 67.1005 41.5696C59.6689 42.9645 51.2902 48.8952 50.3545 49.5702C50.348 49.5612 50.3444 49.5566 50.3444 49.5566C50.3444 49.5566 50.3412 49.5612 50.3346 49.5703Z" fill="#010314"/>
<path fill-rule="evenodd" clip-rule="evenodd" d="M42.2812 32.7239C43.7607 40.6073 50.3444 49.5566 50.3444 49.5566C50.3444 49.5566 57.6495 39.6269 58.5992 31.4728C58.7339 30.8169 58.8049 30.1348 58.8049 29.4346C58.8049 24.2991 54.9829 20.1359 50.2683 20.1359C45.5537 20.1359 41.7317 24.2991 41.7317 29.4346C41.7317 30.5927 41.9261 31.7013 42.2812 32.7239ZM50.3346 49.5703C49.3993 48.8956 41.0203 42.9645 33.5885 41.5696C32.5658 41.2144 31.457 41.02 30.2988 41.02C25.1632 41.02 21 44.842 21 49.5566C21 54.2712 25.1632 58.0932 30.2988 58.0932C30.9986 58.0932 31.6804 58.0222 32.3361 57.8877C39.6978 57.0307 48.5072 50.9929 50.1501 49.8273C48.9844 51.4703 42.9472 60.279 42.0899 67.6404C41.9552 68.2963 41.8842 68.9784 41.8842 69.6786C41.8842 74.8141 45.7061 78.9773 50.4208 78.9773C55.1354 78.9773 58.9574 74.8141 58.9574 69.6786C58.9574 68.5205 58.763 67.4119 58.4079 66.3893C57.08 59.3134 51.6398 51.3788 50.5393 49.8275C52.1829 50.9936 60.9917 57.0307 68.353 57.8877C69.0086 58.0222 69.6904 58.0932 70.3902 58.0932C75.5259 58.0932 79.6891 54.2712 79.6891 49.5566C79.6891 44.842 75.5259 41.02 70.3902 41.02C69.232 41.02 68.1232 41.2144 67.1005 41.5696C59.6689 42.9645 51.2902 48.8952 50.3545 49.5702C50.348 49.5612 50.3444 49.5566 50.3444 49.5566C50.3444 49.5566 50.3412 49.5612 50.3346 49.5703Z" fill="white"/>
</g>
<path d="M16.2696 26.1192C14.0625 30.4509 14.0625 36.1214 14.0625 47.4625V53.5375C14.0625 64.8786 14.0625 70.5491 16.2696 74.8808C18.2111 78.6911 21.3089 81.7889 25.1192 83.7304C29.4509 85.9375 35.1214 85.9375 46.4625 85.9375H52.5375C63.8786 85.9375 69.5491 85.9375 73.8808 83.7304C77.6911 81.7889 80.7889 78.6911 82.7304 74.8808C84.9375 70.5491 84.9375 64.8786 84.9375 53.5375V47.4625C84.9375 36.1214 84.9375 30.4509 82.7304 26.1192C80.7889 22.3089 77.6911 19.2111 73.8808 17.2696C69.5491 15.0625 63.8786 15.0625 52.5375 15.0625H46.4625C35.1214 15.0625 29.4509 15.0625 25.1192 17.2696C21.3089 19.2111 18.2111 22.3089 16.2696 26.1192Z" fill="url(#paint0_linear_1243_4430)"/>
<path d="M14.7338 30.9575C14.0625 34.7728 14.0625 39.8353 14.0625 47.4624V53.5374C14.0625 64.8784 14.0625 70.549 16.2696 74.8807C18.2111 78.691 21.3089 81.7888 25.1192 83.7302C29.4509 85.9374 35.1214 85.9374 46.4625 85.9374H52.5375C63.8786 85.9374 69.5491 85.9374 73.8808 83.7302C77.6911 81.7888 80.7889 78.691 82.7304 74.8807C84.9375 70.549 84.9375 64.8784 84.9375 53.5374V47.4624C84.9375 36.1213 84.9375 30.4508 82.7304 26.1191C80.8565 22.4414 77.9053 19.4274 74.2759 17.4763L14.7338 30.9575Z" fill="url(#paint1_linear_1243_4430)"/>
<path d="M84.2043 70.3804C83.8788 72.0909 83.4089 73.549 82.7304 74.8806C80.789 78.6909 77.6911 81.7888 73.8808 83.7302C69.6788 85.8713 64.2168 85.9354 53.5405 85.9373H49.6483V77.9305L84.2043 70.3804Z" fill="url(#paint2_linear_1243_4430)"/>
<path d="M52.5374 15.0625H46.4624C44.256 15.0625 42.2642 15.0625 40.4552 15.0788V25.1129L74.2692 17.4729C74.1406 17.4038 74.0111 17.336 73.8807 17.2696C71.4759 16.0443 68.6586 15.4993 64.6874 15.2568C61.5053 15.0625 57.5824 15.0625 52.5374 15.0625Z" fill="url(#paint3_linear_1243_4430)"/>
<path d="M84.9377 53.9763C84.9374 61.5842 84.9239 66.599 84.2044 70.3805L72.1861 73.0064V55.0963L84.9377 52.1309V53.9763Z" fill="url(#paint4_linear_1243_4430)"/>
<path fill-rule="evenodd" clip-rule="evenodd" d="M46.8191 43.8628C46.8191 42.236 48.1492 41.6103 50.352 41.6103C53.5109 41.6103 57.5009 42.5697 60.6598 44.2799V34.4775C57.21 33.101 53.8018 32.5588 50.352 32.5588C41.9147 32.5588 36.3036 36.9803 36.3036 44.3633C36.3036 55.8759 52.0977 54.0406 52.0977 59.0044C52.0977 60.9231 50.4352 61.5488 48.1076 61.5488C44.6578 61.5488 40.2521 60.1306 36.7608 58.2118V68.1393C40.6262 69.8078 44.5331 70.5169 48.1076 70.5169C56.7528 70.5169 62.6964 66.2206 62.6964 58.7541C62.6548 46.3238 46.8191 48.5346 46.8191 43.8628Z" fill="white"/>
<defs>
<linearGradient id="paint0_linear_1243_4430" x1="14.0625" y1="15.0625" x2="37.3415" y2="31.5209" gradientUnits="userSpaceOnUse">
<stop stop-color="#392993"/>
<stop offset="1" stop-color="#4B47B9"/>
</linearGradient>
<linearGradient id="paint1_linear_1243_4430" x1="16.7314" y1="31.704" x2="68.1215" y2="74.0936" gradientUnits="userSpaceOnUse">
<stop stop-color="#594BB9"/>
<stop offset="1" stop-color="#60A8F2"/>
</linearGradient>
<linearGradient id="paint2_linear_1243_4430" x1="49.6483" y1="78.2272" x2="84.9375" y2="85.9374" gradientUnits="userSpaceOnUse">
<stop stop-color="#61A2EF"/>
<stop offset="1" stop-color="#58E6FD"/>
</linearGradient>
<linearGradient id="paint3_linear_1243_4430" x1="40.4552" y1="20.1038" x2="84.9374" y2="15.0625" gradientUnits="userSpaceOnUse">
<stop stop-color="#534EBE"/>
<stop offset="1" stop-color="#6875E2"/>
</linearGradient>
<linearGradient id="paint4_linear_1243_4430" x1="72.1861" y1="55.2446" x2="84.9377" y2="70.5168" gradientUnits="userSpaceOnUse">
<stop stop-color="#71A5F3"/>
<stop offset="1" stop-color="#6CC3FA"/>
</linearGradient>
<clipPath id="clip0_1243_4430">
<rect width="58.8602" height="59.5" fill="white" transform="translate(21 20)"/>
</clipPath>
</defs>
</svg>
