<svg  viewBox="0 0 207 207" fill="none" xmlns="http://www.w3.org/2000/svg">
<g style="mix-blend-mode:multiply" clip-path="url(#clip0_1198_4763)">
<path d="M4.4 107.4C6.55391 107.4 8.3 105.654 8.3 103.5C8.3 101.346 6.55391 99.6 4.4 99.6C2.24609 99.6 0.5 101.346 0.5 103.5C0.5 105.654 2.24609 107.4 4.4 107.4Z" stroke="#ffffff80" stroke-miterlimit="10"/>
<path d="M5.9 124.6C8.05391 124.6 9.8 122.854 9.8 120.7C9.8 118.546 8.05391 116.8 5.9 116.8C3.74609 116.8 2 118.546 2 120.7C2 122.854 3.74609 124.6 5.9 124.6Z" stroke="#ffffff80" stroke-miterlimit="10"/>
<path d="M50.0001 124.6C52.154 124.6 53.9001 122.854 53.9001 120.7C53.9001 118.546 52.154 116.8 50.0001 116.8C47.8462 116.8 46.1001 118.546 46.1001 120.7C46.1001 122.854 47.8462 124.6 50.0001 124.6Z" stroke="#ffffff80" stroke-miterlimit="10"/>
<path d="M36.2999 124.6C38.4538 124.6 40.1999 122.854 40.1999 120.7C40.1999 118.546 38.4538 116.8 36.2999 116.8C34.146 116.8 32.3999 118.546 32.3999 120.7C32.3999 122.854 34.146 124.6 36.2999 124.6Z" stroke="#ffffff80" stroke-miterlimit="10"/>
<path d="M10.4 141.3C12.5539 141.3 14.3 139.554 14.3 137.4C14.3 135.246 12.5539 133.5 10.4 133.5C8.24609 133.5 6.5 135.246 6.5 137.4C6.5 139.554 8.24609 141.3 10.4 141.3Z" stroke="#ffffff80" stroke-miterlimit="10"/>
<path d="M17.7 156.9C19.854 156.9 21.6 155.154 21.6 153C21.6 150.846 19.854 149.1 17.7 149.1C15.5461 149.1 13.8 150.846 13.8 153C13.8 155.154 15.5461 156.9 17.7 156.9Z" stroke="#ffffff80" stroke-miterlimit="10"/>
<path d="M53.9 156.9C56.0539 156.9 57.8 155.154 57.8 153C57.8 150.846 56.0539 149.1 53.9 149.1C51.7461 149.1 50 150.846 50 153C50 155.154 51.7461 156.9 53.9 156.9Z" stroke="#ffffff80" stroke-miterlimit="10"/>
<path d="M92.2999 156.9C94.4538 156.9 96.1999 155.154 96.1999 153C96.1999 150.846 94.4538 149.1 92.2999 149.1C90.146 149.1 88.3999 150.846 88.3999 153C88.3999 155.154 90.146 156.9 92.2999 156.9Z" stroke="#ffffff80" stroke-miterlimit="10"/>
<path d="M39.7999 156.9C41.9538 156.9 43.6999 155.154 43.6999 153C43.6999 150.846 41.9538 149.1 39.7999 149.1C37.646 149.1 35.8999 150.846 35.8999 153C35.8999 155.154 37.646 156.9 39.7999 156.9Z" stroke="#ffffff80" stroke-miterlimit="10"/>
<path d="M27.6 171.1C29.7539 171.1 31.5 169.354 31.5 167.2C31.5 165.046 29.7539 163.3 27.6 163.3C25.446 163.3 23.7 165.046 23.7 167.2C23.7 169.354 25.446 171.1 27.6 171.1Z" stroke="#ffffff80" stroke-miterlimit="10"/>
<path d="M39.7999 183.3C41.9538 183.3 43.6999 181.554 43.6999 179.4C43.6999 177.246 41.9538 175.5 39.7999 175.5C37.646 175.5 35.8999 177.246 35.8999 179.4C35.8999 181.554 37.646 183.3 39.7999 183.3Z" stroke="#ffffff80" stroke-miterlimit="10"/>
<path d="M53.9 193.2C56.0539 193.2 57.8 191.454 57.8 189.3C57.8 187.146 56.0539 185.4 53.9 185.4C51.7461 185.4 50 187.146 50 189.3C50 191.454 51.7461 193.2 53.9 193.2Z" stroke="#ffffff80" stroke-miterlimit="10"/>
<path d="M69.6 200.5C71.7539 200.5 73.5 198.754 73.5 196.6C73.5 194.446 71.7539 192.7 69.6 192.7C67.446 192.7 65.7 194.446 65.7 196.6C65.7 198.754 67.446 200.5 69.6 200.5Z" stroke="#ffffff80" stroke-miterlimit="10"/>
<path d="M69.6 183.3C71.7539 183.3 73.5 181.554 73.5 179.4C73.5 177.246 71.7539 175.5 69.6 175.5C67.446 175.5 65.7 177.246 65.7 179.4C65.7 181.554 67.446 183.3 69.6 183.3Z" stroke="#ffffff80" stroke-miterlimit="10"/>
<path d="M86.2999 205C88.4538 205 90.1999 203.254 90.1999 201.1C90.1999 198.946 88.4538 197.2 86.2999 197.2C84.146 197.2 82.3999 198.946 82.3999 201.1C82.3999 203.254 84.146 205 86.2999 205Z" stroke="#ffffff80" stroke-miterlimit="10"/>
<path d="M109.4 194.1C111.554 194.1 113.3 192.354 113.3 190.2C113.3 188.046 111.554 186.3 109.4 186.3C107.246 186.3 105.5 188.046 105.5 190.2C105.5 192.354 107.246 194.1 109.4 194.1Z" stroke="#ffffff80" stroke-miterlimit="10"/>
<path d="M103.5 206.5C105.654 206.5 107.4 204.754 107.4 202.6C107.4 200.446 105.654 198.7 103.5 198.7C101.346 198.7 99.6001 200.446 99.6001 202.6C99.6001 204.754 101.346 206.5 103.5 206.5Z" stroke="#ffffff80" stroke-miterlimit="10"/>
<path d="M99.9 183.3C102.054 183.3 103.8 181.554 103.8 179.4C103.8 177.246 102.054 175.5 99.9 175.5C97.7461 175.5 96 177.246 96 179.4C96 181.554 97.7461 183.3 99.9 183.3Z" stroke="#ffffff80" stroke-miterlimit="10"/>
<path d="M103.5 171.1C105.654 171.1 107.4 169.354 107.4 167.2C107.4 165.046 105.654 163.3 103.5 163.3C101.346 163.3 99.6001 165.046 99.6001 167.2C99.6001 169.354 101.346 171.1 103.5 171.1Z" stroke="#ffffff80" stroke-miterlimit="10"/>
<path d="M120.7 205C122.854 205 124.6 203.254 124.6 201.1C124.6 198.946 122.854 197.2 120.7 197.2C118.546 197.2 116.8 198.946 116.8 201.1C116.8 203.254 118.546 205 120.7 205Z" stroke="#ffffff80" stroke-miterlimit="10"/>
<path d="M120.7 141.7C122.854 141.7 124.6 139.954 124.6 137.8C124.6 135.646 122.854 133.9 120.7 133.9C118.546 133.9 116.8 135.646 116.8 137.8C116.8 139.954 118.546 141.7 120.7 141.7Z" stroke="#ffffff80" stroke-miterlimit="10"/>
<path d="M115.3 159C117.454 159 119.2 157.254 119.2 155.1C119.2 152.946 117.454 151.2 115.3 151.2C113.146 151.2 111.4 152.946 111.4 155.1C111.4 157.254 113.146 159 115.3 159Z" stroke="#ffffff80" stroke-miterlimit="10"/>
<path d="M86.2999 124.6C88.4538 124.6 90.1999 122.854 90.1999 120.7C90.1999 118.546 88.4538 116.8 86.2999 116.8C84.146 116.8 82.3999 118.546 82.3999 120.7C82.3999 122.854 84.146 124.6 86.2999 124.6Z" stroke="#ffffff80" stroke-miterlimit="10"/>
<path d="M66.5999 109.5C68.7539 109.5 70.5 107.754 70.5 105.6C70.5 103.446 68.7539 101.7 66.5999 101.7C64.446 101.7 62.7 103.446 62.7 105.6C62.7 107.754 64.446 109.5 66.5999 109.5Z" stroke="#ffffff80" stroke-miterlimit="10"/>
<path d="M137.4 200.5C139.554 200.5 141.3 198.754 141.3 196.6C141.3 194.446 139.554 192.7 137.4 192.7C135.246 192.7 133.5 194.446 133.5 196.6C133.5 198.754 135.246 200.5 137.4 200.5Z" stroke="#ffffff80" stroke-miterlimit="10"/>
<path d="M137.4 175.6C139.554 175.6 141.3 173.854 141.3 171.7C141.3 169.546 139.554 167.8 137.4 167.8C135.246 167.8 133.5 169.546 133.5 171.7C133.5 173.854 135.246 175.6 137.4 175.6Z" stroke="#ffffff80" stroke-miterlimit="10"/>
<path d="M137.4 156.9C139.554 156.9 141.3 155.154 141.3 153C141.3 150.846 139.554 149.1 137.4 149.1C135.246 149.1 133.5 150.846 133.5 153C133.5 155.154 135.246 156.9 137.4 156.9Z" stroke="#ffffff80" stroke-miterlimit="10"/>
<path d="M137.4 141.3C139.554 141.3 141.3 139.554 141.3 137.4C141.3 135.246 139.554 133.5 137.4 133.5C135.246 133.5 133.5 135.246 133.5 137.4C133.5 139.554 135.246 141.3 137.4 141.3Z" stroke="#ffffff80" stroke-miterlimit="10"/>
<path d="M153 193.2C155.154 193.2 156.9 191.454 156.9 189.3C156.9 187.146 155.154 185.4 153 185.4C150.846 185.4 149.1 187.146 149.1 189.3C149.1 191.454 150.846 193.2 153 193.2Z" stroke="#ffffff80" stroke-miterlimit="10"/>
<path d="M167.2 183.3C169.354 183.3 171.1 181.554 171.1 179.4C171.1 177.246 169.354 175.5 167.2 175.5C165.046 175.5 163.3 177.246 163.3 179.4C163.3 181.554 165.046 183.3 167.2 183.3Z" stroke="#ffffff80" stroke-miterlimit="10"/>
<path d="M167.2 156.9C169.354 156.9 171.1 155.154 171.1 153C171.1 150.846 169.354 149.1 167.2 149.1C165.046 149.1 163.3 150.846 163.3 153C163.3 155.154 165.046 156.9 167.2 156.9Z" stroke="#ffffff80" stroke-miterlimit="10"/>
<path d="M179.4 171.1C181.554 171.1 183.3 169.354 183.3 167.2C183.3 165.046 181.554 163.3 179.4 163.3C177.246 163.3 175.5 165.046 175.5 167.2C175.5 169.354 177.246 171.1 179.4 171.1Z" stroke="#ffffff80" stroke-miterlimit="10"/>
<path d="M189.3 156.9C191.454 156.9 193.2 155.154 193.2 153C193.2 150.846 191.454 149.1 189.3 149.1C187.146 149.1 185.4 150.846 185.4 153C185.4 155.154 187.146 156.9 189.3 156.9Z" stroke="#ffffff80" stroke-miterlimit="10"/>
<path d="M196.6 141.3C198.754 141.3 200.5 139.554 200.5 137.4C200.5 135.246 198.754 133.5 196.6 133.5C194.446 133.5 192.7 135.246 192.7 137.4C192.7 139.554 194.446 141.3 196.6 141.3Z" stroke="#ffffff80" stroke-miterlimit="10"/>
<path d="M201.1 124.6C203.254 124.6 205 122.854 205 120.7C205 118.546 203.254 116.8 201.1 116.8C198.946 116.8 197.2 118.546 197.2 120.7C197.2 122.854 198.946 124.6 201.1 124.6Z" stroke="#ffffff80" stroke-miterlimit="10"/>
<path d="M202.6 107.4C204.754 107.4 206.5 105.654 206.5 103.5C206.5 101.346 204.754 99.6 202.6 99.6C200.446 99.6 198.7 101.346 198.7 103.5C198.7 105.654 200.446 107.4 202.6 107.4Z" stroke="#ffffff80" stroke-miterlimit="10"/>
<path d="M201.1 90.2C203.254 90.2 205 88.4539 205 86.3C205 84.1461 203.254 82.4 201.1 82.4C198.946 82.4 197.2 84.1461 197.2 86.3C197.2 88.4539 198.946 90.2 201.1 90.2Z" stroke="#ffffff80" stroke-miterlimit="10"/>
<path d="M196.6 73.5C198.754 73.5 200.5 71.7539 200.5 69.6C200.5 67.4461 198.754 65.7 196.6 65.7C194.446 65.7 192.7 67.4461 192.7 69.6C192.7 71.7539 194.446 73.5 196.6 73.5Z" stroke="#ffffff80" stroke-miterlimit="10"/>
<path d="M189.3 57.8C191.454 57.8 193.2 56.0539 193.2 53.9C193.2 51.7461 191.454 50 189.3 50C187.146 50 185.4 51.7461 185.4 53.9C185.4 56.0539 187.146 57.8 189.3 57.8Z" stroke="#ffffff80" stroke-miterlimit="10"/>
<path d="M179.4 43.7C181.554 43.7 183.3 41.9539 183.3 39.8C183.3 37.6461 181.554 35.9 179.4 35.9C177.246 35.9 175.5 37.6461 175.5 39.8C175.5 41.9539 177.246 43.7 179.4 43.7Z" stroke="#ffffff80" stroke-miterlimit="10"/>
<path d="M167.2 31.5C169.354 31.5 171.1 29.7539 171.1 27.6C171.1 25.4461 169.354 23.7 167.2 23.7C165.046 23.7 163.3 25.4461 163.3 27.6C163.3 29.7539 165.046 31.5 167.2 31.5Z" stroke="#ffffff80" stroke-miterlimit="10"/>
<path d="M170 90.2C172.154 90.2 173.9 88.4539 173.9 86.3C173.9 84.1461 172.154 82.4 170 82.4C167.846 82.4 166.1 84.1461 166.1 86.3C166.1 88.4539 167.846 90.2 170 90.2Z" stroke="#ffffff80" stroke-miterlimit="10"/>
<path d="M135.3 87.7C137.454 87.7 139.2 85.9539 139.2 83.8C139.2 81.6461 137.454 79.9 135.3 79.9C133.146 79.9 131.4 81.6461 131.4 83.8C131.4 85.9539 133.146 87.7 135.3 87.7Z" stroke="#ffffff80" stroke-miterlimit="10"/>
<path d="M121.1 87.7C123.254 87.7 125 85.9539 125 83.8C125 81.6461 123.254 79.9 121.1 79.9C118.946 79.9 117.2 81.6461 117.2 83.8C117.2 85.9539 118.946 87.7 121.1 87.7Z" stroke="#ffffff80" stroke-miterlimit="10"/>
<path d="M107.8 87.7C109.954 87.7 111.7 85.9539 111.7 83.8C111.7 81.6461 109.954 79.9 107.8 79.9C105.646 79.9 103.9 81.6461 103.9 83.8C103.9 85.9539 105.646 87.7 107.8 87.7Z" stroke="#ffffff80" stroke-miterlimit="10"/>
<path d="M152.3 90.2C154.454 90.2 156.2 88.4539 156.2 86.3C156.2 84.1461 154.454 82.4 152.3 82.4C150.146 82.4 148.4 84.1461 148.4 86.3C148.4 88.4539 150.146 90.2 152.3 90.2Z" stroke="#ffffff80" stroke-miterlimit="10"/>
<path d="M169.1 73.5C171.254 73.5 173 71.7539 173 69.6C173 67.4461 171.254 65.7 169.1 65.7C166.946 65.7 165.2 67.4461 165.2 69.6C165.2 71.7539 166.946 73.5 169.1 73.5Z" stroke="#ffffff80" stroke-miterlimit="10"/>
<path d="M153 21.6C155.154 21.6 156.9 19.8539 156.9 17.7C156.9 15.5461 155.154 13.8 153 13.8C150.846 13.8 149.1 15.5461 149.1 17.7C149.1 19.8539 150.846 21.6 153 21.6Z" stroke="#ffffff80" stroke-miterlimit="10"/>
<path d="M153 39.8C155.154 39.8 156.9 38.0539 156.9 35.9C156.9 33.7461 155.154 32 153 32C150.846 32 149.1 33.7461 149.1 35.9C149.1 38.0539 150.846 39.8 153 39.8Z" stroke="#ffffff80" stroke-miterlimit="10"/>
<path d="M131.6 57.8C133.754 57.8 135.5 56.0539 135.5 53.9C135.5 51.7461 133.754 50 131.6 50C129.446 50 127.7 51.7461 127.7 53.9C127.7 56.0539 129.446 57.8 131.6 57.8Z" stroke="#ffffff80" stroke-miterlimit="10"/>
<path d="M150 56.3C152.154 56.3 153.9 54.5539 153.9 52.4C153.9 50.2461 152.154 48.5 150 48.5C147.846 48.5 146.1 50.2461 146.1 52.4C146.1 54.5539 147.846 56.3 150 56.3Z" stroke="#ffffff80" stroke-miterlimit="10"/>
<path d="M137.4 14.3C139.554 14.3 141.3 12.5539 141.3 10.4C141.3 8.24609 139.554 6.5 137.4 6.5C135.246 6.5 133.5 8.24609 133.5 10.4C133.5 12.5539 135.246 14.3 137.4 14.3Z" stroke="#ffffff80" stroke-miterlimit="10"/>
<path d="M117.2 45.8C119.354 45.8 121.1 44.0539 121.1 41.9C121.1 39.7461 119.354 38 117.2 38C115.046 38 113.3 39.7461 113.3 41.9C113.3 44.0539 115.046 45.8 117.2 45.8Z" stroke="#ffffff80" stroke-miterlimit="10"/>
<path d="M120.7 9.8C122.854 9.8 124.6 8.05391 124.6 5.9C124.6 3.74609 122.854 2 120.7 2C118.546 2 116.8 3.74609 116.8 5.9C116.8 8.05391 118.546 9.8 120.7 9.8Z" stroke="#ffffff80" stroke-miterlimit="10"/>
<path d="M103.5 8.3C105.654 8.3 107.4 6.55391 107.4 4.4C107.4 2.24609 105.654 0.5 103.5 0.5C101.346 0.5 99.6001 2.24609 99.6001 4.4C99.6001 6.55391 101.346 8.3 103.5 8.3Z" stroke="#ffffff80" stroke-miterlimit="10"/>
<path d="M86.2999 9.8C88.4538 9.8 90.1999 8.05391 90.1999 5.9C90.1999 3.74609 88.4538 2 86.2999 2C84.146 2 82.3999 3.74609 82.3999 5.9C82.3999 8.05391 84.146 9.8 86.2999 9.8Z" stroke="#ffffff80" stroke-miterlimit="10"/>
<path d="M79.7999 44.5C81.9538 44.5 83.6999 42.7539 83.6999 40.6C83.6999 38.4461 81.9538 36.7 79.7999 36.7C77.646 36.7 75.8999 38.4461 75.8999 40.6C75.8999 42.7539 77.646 44.5 79.7999 44.5Z" stroke="#ffffff80" stroke-miterlimit="10"/>
<path d="M86.2999 30.7C88.4538 30.7 90.1999 28.9539 90.1999 26.8C90.1999 24.6461 88.4538 22.9 86.2999 22.9C84.146 22.9 82.3999 24.6461 82.3999 26.8C82.3999 28.9539 84.146 30.7 86.2999 30.7Z" stroke="#ffffff80" stroke-miterlimit="10"/>
<path d="M69.6 14.3C71.7539 14.3 73.5 12.5539 73.5 10.4C73.5 8.24609 71.7539 6.5 69.6 6.5C67.446 6.5 65.7 8.24609 65.7 10.4C65.7 12.5539 67.446 14.3 69.6 14.3Z" stroke="#ffffff80" stroke-miterlimit="10"/>
<path d="M53.9 21.6C56.0539 21.6 57.8 19.8539 57.8 17.7C57.8 15.5461 56.0539 13.8 53.9 13.8C51.7461 13.8 50 15.5461 50 17.7C50 19.8539 51.7461 21.6 53.9 21.6Z" stroke="#ffffff80" stroke-miterlimit="10"/>
<path d="M59.9 46.9C62.0539 46.9 63.8 45.1539 63.8 43C63.8 40.8461 62.0539 39.1 59.9 39.1C57.7461 39.1 56 40.8461 56 43C56 45.1539 57.7461 46.9 59.9 46.9Z" stroke="#ffffff80" stroke-miterlimit="10"/>
<path d="M39.7999 31.5C41.9538 31.5 43.6999 29.7539 43.6999 27.6C43.6999 25.4461 41.9538 23.7 39.7999 23.7C37.646 23.7 35.8999 25.4461 35.8999 27.6C35.8999 29.7539 37.646 31.5 39.7999 31.5Z" stroke="#ffffff80" stroke-miterlimit="10"/>
<path d="M27.6 43.7C29.7539 43.7 31.5 41.9539 31.5 39.8C31.5 37.6461 29.7539 35.9 27.6 35.9C25.446 35.9 23.7 37.6461 23.7 39.8C23.7 41.9539 25.446 43.7 27.6 43.7Z" stroke="#ffffff80" stroke-miterlimit="10"/>
<path d="M48.5999 57C50.7539 57 52.5 55.2539 52.5 53.1C52.5 50.9461 50.7539 49.2 48.5999 49.2C46.446 49.2 44.7 50.9461 44.7 53.1C44.7 55.2539 46.446 57 48.5999 57Z" stroke="#ffffff80" stroke-miterlimit="10"/>
<path d="M17.7 57.8C19.854 57.8 21.6 56.0539 21.6 53.9C21.6 51.7461 19.854 50 17.7 50C15.5461 50 13.8 51.7461 13.8 53.9C13.8 56.0539 15.5461 57.8 17.7 57.8Z" stroke="#ffffff80" stroke-miterlimit="10"/>
<path d="M10.4 73.5C12.5539 73.5 14.3 71.7539 14.3 69.6C14.3 67.4461 12.5539 65.7 10.4 65.7C8.24609 65.7 6.5 67.4461 6.5 69.6C6.5 71.7539 8.24609 73.5 10.4 73.5Z" stroke="#ffffff80" stroke-miterlimit="10"/>
<path d="M103.5 110.8C105.654 110.8 107.4 109.054 107.4 106.9C107.4 104.746 105.654 103 103.5 103C101.346 103 99.6001 104.746 99.6001 106.9C99.6001 109.054 101.346 110.8 103.5 110.8Z" stroke="#ffffff80" stroke-miterlimit="10"/>
<path d="M120.7 113.7C122.854 113.7 124.6 111.954 124.6 109.8C124.6 107.646 122.854 105.9 120.7 105.9C118.546 105.9 116.8 107.646 116.8 109.8C116.8 111.954 118.546 113.7 120.7 113.7Z" stroke="#ffffff80" stroke-miterlimit="10"/>
<path d="M162.2 130C164.354 130 166.1 128.254 166.1 126.1C166.1 123.946 164.354 122.2 162.2 122.2C160.046 122.2 158.3 123.946 158.3 126.1C158.3 128.254 160.046 130 162.2 130Z" stroke="#ffffff80" stroke-miterlimit="10"/>
<path d="M130.6 100.4C132.754 100.4 134.5 98.6539 134.5 96.5C134.5 94.3461 132.754 92.6 130.6 92.6C128.446 92.6 126.7 94.3461 126.7 96.5C126.7 98.6539 128.446 100.4 130.6 100.4Z" stroke="#ffffff80" stroke-miterlimit="10"/>
<path d="M5.9 90.2C8.05391 90.2 9.8 88.4539 9.8 86.3C9.8 84.1461 8.05391 82.4 5.9 82.4C3.74609 82.4 2 84.1461 2 86.3C2 88.4539 3.74609 90.2 5.9 90.2Z" stroke="#ffffff80" stroke-miterlimit="10"/>
<path d="M20.5001 90.2C22.654 90.2 24.4001 88.4539 24.4001 86.3C24.4001 84.1461 22.654 82.4 20.5001 82.4C18.3462 82.4 16.6001 84.1461 16.6001 86.3C16.6001 88.4539 18.3462 90.2 20.5001 90.2Z" stroke="#ffffff80" stroke-miterlimit="10"/>
<path d="M41.7001 94.1C43.854 94.1 45.6 92.3539 45.6 90.2C45.6 88.0461 43.854 86.3 41.7001 86.3C39.5461 86.3 37.8 88.0461 37.8 90.2C37.8 92.3539 39.5461 94.1 41.7001 94.1Z" stroke="#ffffff80" stroke-miterlimit="10"/>
<path d="M53.9 72.6C56.0539 72.6 57.8 70.8539 57.8 68.7C57.8 66.5461 56.0539 64.8 53.9 64.8C51.7461 64.8 50 66.5461 50 68.7C50 70.8539 51.7461 72.6 53.9 72.6Z" stroke="#ffffff80" stroke-miterlimit="10"/>
<path d="M71.2999 72.6C73.4538 72.6 75.1999 70.8539 75.1999 68.7C75.1999 66.5461 73.4538 64.8 71.2999 64.8C69.146 64.8 67.3999 66.5461 67.3999 68.7C67.3999 70.8539 69.146 72.6 71.2999 72.6Z" stroke="#ffffff80" stroke-miterlimit="10"/>
<path d="M53.9 86.3C56.0539 86.3 57.8 84.5539 57.8 82.4C57.8 80.2461 56.0539 78.5 53.9 78.5C51.7461 78.5 50 80.2461 50 82.4C50 84.5539 51.7461 86.3 53.9 86.3Z" stroke="#ffffff80" stroke-miterlimit="10"/>
<path d="M86.2999 72.6C88.4538 72.6 90.1999 70.8539 90.1999 68.7C90.1999 66.5461 88.4538 64.8 86.2999 64.8C84.146 64.8 82.3999 66.5461 82.3999 68.7C82.3999 70.8539 84.146 72.6 86.2999 72.6Z" stroke="#ffffff80" stroke-miterlimit="10"/>
<path d="M8.30005 103.5H49.9001L71.3001 82V72.6" stroke="#ffffff80" stroke-miterlimit="10"/>
<path d="M103.5 110.8V120.7L86.4999 137.6H33.0999L20.3999 150.3" stroke="#ffffff80" stroke-miterlimit="10"/>
<path d="M57.8 153H88.4001" stroke="#ffffff80" stroke-miterlimit="10"/>
<path d="M16.6 86.3H9.80005" stroke="#ffffff80" stroke-miterlimit="10"/>
<path d="M153 32V21.6" stroke="#ffffff80" stroke-miterlimit="10"/>
<path d="M140.1 140.1L153 153V185.4" stroke="#ffffff80" stroke-miterlimit="10"/>
<path d="M167.2 175.5V156.9" stroke="#ffffff80" stroke-miterlimit="10"/>
<path d="M175.5 167.2H167.2" stroke="#ffffff80" stroke-miterlimit="10"/>
<path d="M137.4 192.7V175.6" stroke="#ffffff80" stroke-miterlimit="10"/>
<path d="M134.6 155.8L120.7 169.7V197.2" stroke="#ffffff80" stroke-miterlimit="10"/>
<path d="M39 87.4L21.2 69.6H14.3" stroke="#ffffff80" stroke-miterlimit="10"/>
<path d="M172.8 83.5L186.7 69.6H192.7" stroke="#ffffff80" stroke-miterlimit="10"/>
<path d="M197.2 86.3H187L169.8 103.5H154.9L138 86.6" stroke="#ffffff80" stroke-miterlimit="10"/>
<path d="M69.3999 102.8L102.3 69.9H149.3L176.6 42.5" stroke="#ffffff80" stroke-miterlimit="10"/>
<path d="M100.7 199.8L85.9 185V167.2H31.5" stroke="#ffffff80" stroke-miterlimit="10"/>
<path d="M39.8 156.9V167.2" stroke="#ffffff80" stroke-miterlimit="10"/>
<path d="M69.6001 192.7V183.3" stroke="#ffffff80" stroke-miterlimit="10"/>
<path d="M198.7 103.5H166.1" stroke="#ffffff80" stroke-miterlimit="10"/>
<path d="M193.8 134.6L174.1 114.9L148.6 114.7L143.6 109.8H124.6" stroke="#ffffff80" stroke-miterlimit="10"/>
<path d="M53.8999 120.9H69.5999L93.9999 96.5H126.7" stroke="#ffffff80" stroke-miterlimit="10"/>
<path d="M53.9 185.4V179.4H43.7" stroke="#ffffff80" stroke-miterlimit="10"/>
<path d="M103.8 179.4H120.7" stroke="#ffffff80" stroke-miterlimit="10"/>
<path d="M118 152.3L120.7 149.7V141.7" stroke="#ffffff80" stroke-miterlimit="10"/>
<path d="M185.4 53.9H165.2" stroke="#ffffff80" stroke-miterlimit="10"/>
<path d="M166.4 72.3L155.1 83.6" stroke="#ffffff80" stroke-miterlimit="10"/>
<path d="M13.1001 134.6L27.1001 120.7" stroke="#ffffff80" stroke-miterlimit="10"/>
<path d="M111.7 83.8H117.2" stroke="#ffffff80" stroke-miterlimit="10"/>
<path d="M186.5 150.3L173.8 137.6H154.3L137.5 120.9H119.8L103.4 137.3V163.3" stroke="#ffffff80" stroke-miterlimit="10"/>
<path d="M83.5 123.4L69.8 137.2" stroke="#ffffff80" stroke-miterlimit="10"/>
<path d="M120.7 9.8V17.7L85.3001 53H69.9001L56.8 66.1" stroke="#ffffff80" stroke-miterlimit="10"/>
<path d="M89 66L101.1 53.9H127.8" stroke="#ffffff80" stroke-miterlimit="10"/>
<path d="M197.2 120.7H179.9" stroke="#ffffff80" stroke-miterlimit="10"/>
<path d="M21.6001 53.9H29.1001L39.7001 43.3V31.5" stroke="#ffffff80" stroke-miterlimit="10"/>
<path d="M26.6001 75.1L45.9001 55.8" stroke="#ffffff80" stroke-miterlimit="10"/>
<path d="M119.9 39.1L137.4 21.7V14.3" stroke="#ffffff80" stroke-miterlimit="10"/>
<path d="M147.2 49.6L128.3 30.8" stroke="#ffffff80" stroke-miterlimit="10"/>
<path d="M53.8999 21.6V30.7H69.5999" stroke="#ffffff80" stroke-miterlimit="10"/>
<path d="M103.5 8.3V34.9" stroke="#ffffff80" stroke-miterlimit="10"/>
<path d="M77.0001 37.9L69.6001 30.4V14.3" stroke="#ffffff80" stroke-miterlimit="10"/>
<path d="M69.9001 53L62.6001 45.7" stroke="#ffffff80" stroke-miterlimit="10"/>
<path d="M86.3 9.8V22.9" stroke="#ffffff80" stroke-miterlimit="10"/>
<path d="M9.80005 120.7H32.4001" stroke="#ffffff80" stroke-miterlimit="10"/>
</g>
<defs>
<clipPath id="clip0_1198_4763">
<rect width="207" height="207" fill="#ffffff80"/>
</clipPath>
</defs>
</svg>
