<svg width="412" height="724" viewBox="0 0 412 724" fill="none" xmlns="http://www.w3.org/2000/svg">
<g clip-path="url(#clip0_1201_11133)">
<g clip-path="url(#clip1_1201_11133)">
<rect x="99" y="99" width="1440" height="996" rx="48" fill="white"/>
<rect width="22" height="22" transform="translate(131 301)" fill="white"/>
<path d="M147.201 309.684C147.368 309.343 147.227 308.931 146.886 308.764C146.545 308.596 146.133 308.737 145.966 309.078L144.627 311.807C144.213 312.653 142.993 312.612 142.636 311.74C141.83 309.77 139.075 309.676 138.138 311.587L136.799 314.316C136.632 314.657 136.773 315.069 137.114 315.236C137.455 315.404 137.867 315.263 138.034 314.922L139.373 312.193C139.787 311.347 141.007 311.388 141.364 312.26C142.17 314.23 144.925 314.324 145.862 312.413L147.201 309.684Z" fill="#0A205A"/>
<path fill-rule="evenodd" clip-rule="evenodd" d="M146.092 303.176C145.045 303.062 143.725 303.062 142.041 303.063H141.959C140.275 303.062 138.955 303.062 137.908 303.176C136.84 303.292 135.974 303.532 135.235 304.069C134.788 304.394 134.394 304.788 134.069 305.235C133.532 305.974 133.292 306.84 133.176 307.908C133.062 308.955 133.062 310.275 133.063 311.959V312.041C133.062 313.725 133.062 315.045 133.176 316.092C133.292 317.16 133.532 318.026 134.069 318.765C134.394 319.212 134.788 319.606 135.235 319.931C135.974 320.468 136.84 320.708 137.908 320.824C138.955 320.938 140.275 320.938 141.958 320.938H142.042C143.725 320.938 145.045 320.938 146.092 320.824C147.16 320.708 148.026 320.468 148.765 319.931C149.212 319.606 149.606 319.212 149.931 318.765C150.468 318.026 150.708 317.16 150.824 316.092C150.938 315.045 150.938 313.725 150.938 312.042V311.959C150.938 310.275 150.938 308.955 150.824 307.908C150.708 306.84 150.468 305.974 149.931 305.235C149.606 304.788 149.212 304.394 148.765 304.069C148.026 303.532 147.16 303.292 146.092 303.176ZM136.043 305.182C136.509 304.843 137.105 304.646 138.057 304.543C139.021 304.438 140.266 304.438 142 304.438C143.734 304.438 144.979 304.438 145.943 304.543C146.895 304.646 147.491 304.843 147.957 305.182C148.287 305.422 148.578 305.713 148.818 306.043C149.157 306.509 149.354 307.105 149.457 308.057C149.562 309.021 149.563 310.266 149.563 312C149.563 313.734 149.562 314.979 149.457 315.943C149.354 316.895 149.157 317.491 148.818 317.957C148.578 318.287 148.287 318.578 147.957 318.818C147.491 319.157 146.895 319.354 145.943 319.457C144.979 319.562 143.734 319.563 142 319.563C140.266 319.563 139.021 319.562 138.057 319.457C137.105 319.354 136.509 319.157 136.043 318.818C135.713 318.578 135.422 318.287 135.182 317.957C134.843 317.491 134.646 316.895 134.543 315.943C134.438 314.979 134.438 313.734 134.438 312C134.438 310.266 134.438 309.021 134.543 308.057C134.646 307.105 134.843 306.509 135.182 306.043C135.422 305.713 135.713 305.422 136.043 305.182Z" fill="#0A205A"/>
<rect width="22" height="22" transform="translate(131 364)" fill="white"/>
<path fill-rule="evenodd" clip-rule="evenodd" d="M139.479 367.667C141.378 367.667 142.917 369.206 142.917 371.104C142.917 373.003 141.378 374.542 139.479 374.542C137.581 374.542 136.042 373.003 136.042 371.104C136.042 369.206 137.581 367.667 139.479 367.667ZM141.542 371.104C141.542 369.965 140.618 369.042 139.479 369.042C138.34 369.042 137.417 369.965 137.417 371.104C137.417 372.243 138.34 373.167 139.479 373.167C140.618 373.167 141.542 372.243 141.542 371.104Z" fill="#C7B7EB"/>
<path fill-rule="evenodd" clip-rule="evenodd" d="M142.229 375.917C144.128 375.917 145.667 377.456 145.667 379.354C145.667 381.253 144.128 382.792 142.229 382.792H136.729C134.831 382.792 133.292 381.253 133.292 379.354C133.292 377.456 134.831 375.917 136.729 375.917H142.229ZM144.292 379.354C144.292 378.215 143.368 377.292 142.229 377.292H136.729C135.59 377.292 134.667 378.215 134.667 379.354C134.667 380.493 135.59 381.417 136.729 381.417H142.229C143.368 381.417 144.292 380.493 144.292 379.354Z" fill="#C7B7EB"/>
<path d="M143.373 373.523C143.518 373.291 143.789 373.167 144.062 373.167C145.202 373.167 146.125 372.243 146.125 371.104C146.125 369.965 145.202 369.042 144.062 369.042C143.789 369.042 143.518 368.918 143.373 368.685C143.367 368.675 143.36 368.665 143.354 368.655C143.113 368.275 143.235 367.737 143.682 367.688C143.807 367.674 143.934 367.667 144.062 367.667C145.961 367.667 147.5 369.206 147.5 371.104C147.5 373.003 145.961 374.542 144.062 374.542C143.934 374.542 143.807 374.535 143.682 374.521C143.235 374.472 143.113 373.934 143.354 373.554C143.36 373.544 143.367 373.533 143.373 373.523Z" fill="#C7B7EB"/>
<path d="M146.163 380.791C146.267 380.617 146.451 380.5 146.653 380.5H146.812C147.952 380.5 148.875 379.577 148.875 378.438C148.875 377.298 147.952 376.375 146.812 376.375H146.653C146.451 376.375 146.267 376.258 146.163 376.085C145.909 375.661 146.185 375 146.679 375H146.812C148.711 375 150.25 376.539 150.25 378.438C150.25 380.336 148.711 381.875 146.812 381.875H146.679C146.185 381.875 145.909 381.214 146.163 380.791Z" fill="#C7B7EB"/>
<rect width="22" height="22" transform="translate(131 429)" fill="white"/>
<path d="M138.333 437.479C137.954 437.479 137.646 437.787 137.646 438.167C137.646 438.546 137.954 438.854 138.333 438.854H145.667C146.046 438.854 146.354 438.546 146.354 438.167C146.354 437.787 146.046 437.479 145.667 437.479H138.333Z" fill="#C7B7EB"/>
<path d="M138.333 441.146C137.954 441.146 137.646 441.454 137.646 441.833C137.646 442.213 137.954 442.521 138.333 442.521H145.667C146.046 442.521 146.354 442.213 146.354 441.833C146.354 441.454 146.046 441.146 145.667 441.146H138.333Z" fill="#C7B7EB"/>
<path d="M142.917 444.812C142.537 444.812 142.229 445.12 142.229 445.5C142.229 445.88 142.537 446.187 142.917 446.187H145.667C146.046 446.187 146.354 445.88 146.354 445.5C146.354 445.12 146.046 444.812 145.667 444.812H142.917Z" fill="#C7B7EB"/>
<path fill-rule="evenodd" clip-rule="evenodd" d="M148.213 430.816C147.504 430.459 146.681 430.3 145.696 430.222C144.72 430.146 143.518 430.146 142.028 430.146H141.981C140.673 430.146 139.588 430.146 138.686 430.197C137.78 430.248 137.01 430.353 136.342 430.583C135.938 430.723 135.572 430.908 135.235 431.152C134.788 431.477 134.394 431.871 134.069 432.318C133.532 433.058 133.292 433.923 133.176 434.992C133.062 436.039 133.062 437.358 133.063 439.042V440.958C133.062 442.642 133.062 443.961 133.176 445.008C133.292 446.077 133.532 446.942 134.069 447.681C134.394 448.129 134.788 448.522 135.235 448.847C135.974 449.384 136.84 449.625 137.908 449.741C138.955 449.854 140.275 449.854 141.958 449.854H142.042C143.725 449.854 145.045 449.854 146.092 449.741C147.16 449.625 148.026 449.384 148.765 448.847C149.212 448.522 149.606 448.129 149.931 447.681C150.468 446.942 150.708 446.077 150.824 445.008C150.938 443.961 150.938 442.642 150.938 440.958V439.042C150.938 437.358 150.938 436.039 150.824 434.992C150.708 433.923 150.468 433.058 149.931 432.318C149.606 431.871 149.212 431.477 148.765 431.152C148.59 431.025 148.407 430.914 148.213 430.816ZM142 431.521C143.523 431.521 144.672 431.521 145.589 431.593C145.988 431.625 146.33 431.669 146.628 431.729C145.878 432.468 145.276 433.035 144.737 433.459C144.031 434.015 143.491 434.28 142.943 434.367C142.539 434.431 142.128 434.431 141.724 434.367C141.161 434.277 140.605 434 139.869 433.411C139.323 432.973 138.71 432.392 137.948 431.639C138.194 431.609 138.465 431.587 138.764 431.57C139.623 431.521 140.669 431.521 142 431.521ZM145.588 434.54C146.287 433.989 147.062 433.239 148.005 432.301C148.316 432.534 148.59 432.812 148.818 433.127C149.157 433.592 149.354 434.188 149.457 435.14C149.562 436.104 149.563 437.349 149.563 439.083V440.917C149.563 442.651 149.562 443.896 149.457 444.86C149.354 445.811 149.157 446.407 148.818 446.873C148.578 447.204 148.287 447.495 147.957 447.735C147.491 448.073 146.895 448.271 145.943 448.374C144.979 448.478 143.734 448.479 142 448.479C140.266 448.479 139.021 448.478 138.057 448.374C137.105 448.271 136.509 448.073 136.043 447.735C135.713 447.495 135.422 447.204 135.182 446.873C134.843 446.407 134.646 445.811 134.543 444.86C134.438 443.896 134.438 442.651 134.438 440.917V439.083C134.438 437.349 134.438 436.104 134.543 435.14C134.646 434.188 134.843 433.592 135.182 433.127C135.422 432.796 135.713 432.505 136.043 432.265C136.156 432.183 136.276 432.11 136.405 432.044C137.436 433.073 138.268 433.891 139.01 434.484C139.839 435.148 140.615 435.583 141.509 435.725C142.055 435.811 142.612 435.811 143.158 435.725C144.027 435.587 144.785 435.172 145.588 434.54Z" fill="#C7B7EB"/>
<path opacity="0.4" d="M145.736 237.833H148.84C150.125 237.833 151.167 238.884 151.167 240.18V243.31C151.167 244.606 150.125 245.657 148.84 245.657H145.736C144.451 245.657 143.409 244.606 143.409 243.31V240.18C143.409 238.884 144.451 237.833 145.736 237.833" fill="#C7B7EB"/>
<path fill-rule="evenodd" clip-rule="evenodd" d="M135.16 237.833H138.264C139.55 237.833 140.591 238.884 140.591 240.18V243.31C140.591 244.606 139.55 245.657 138.264 245.657H135.16C133.875 245.657 132.833 244.606 132.833 243.31V240.18C132.833 238.884 133.875 237.833 135.16 237.833ZM135.16 248.343H138.264C139.55 248.343 140.591 249.394 140.591 250.69V253.82C140.591 255.115 139.55 256.167 138.264 256.167H135.16C133.875 256.167 132.833 255.115 132.833 253.82V250.69C132.833 249.394 133.875 248.343 135.16 248.343ZM148.84 248.343H145.736C144.451 248.343 143.409 249.394 143.409 250.69V253.82C143.409 255.115 144.451 256.167 145.736 256.167H148.84C150.125 256.167 151.167 255.115 151.167 253.82V250.69C151.167 249.394 150.125 248.343 148.84 248.343Z" fill="#C7B7EB"/>
<path d="M172.024 254.192C171.181 254.192 170.392 254.043 169.656 253.744C168.92 253.435 168.275 253.003 167.72 252.448C167.176 251.893 166.749 251.243 166.44 250.496C166.131 249.739 165.976 248.917 165.976 248.032C165.976 247.136 166.131 246.315 166.44 245.568C166.749 244.821 167.176 244.171 167.72 243.616C168.275 243.061 168.915 242.635 169.64 242.336C170.376 242.037 171.171 241.888 172.024 241.888C172.877 241.888 173.667 242.043 174.392 242.352C175.128 242.651 175.768 243.077 176.312 243.632C176.867 244.176 177.299 244.821 177.608 245.568C177.928 246.315 178.088 247.136 178.088 248.032C178.088 248.917 177.928 249.739 177.608 250.496C177.299 251.243 176.867 251.893 176.312 252.448C175.768 253.003 175.128 253.435 174.392 253.744C173.667 254.043 172.877 254.192 172.024 254.192ZM172.024 252.736C172.685 252.736 173.288 252.619 173.832 252.384C174.376 252.139 174.845 251.803 175.24 251.376C175.645 250.939 175.955 250.437 176.168 249.872C176.392 249.296 176.504 248.683 176.504 248.032C176.504 247.381 176.392 246.773 176.168 246.208C175.955 245.643 175.645 245.147 175.24 244.72C174.845 244.283 174.376 243.947 173.832 243.712C173.288 243.467 172.685 243.344 172.024 243.344C171.373 243.344 170.776 243.467 170.232 243.712C169.688 243.947 169.213 244.283 168.808 244.72C168.413 245.147 168.104 245.643 167.88 246.208C167.656 246.773 167.544 247.381 167.544 248.032C167.544 248.683 167.656 249.296 167.88 249.872C168.104 250.437 168.413 250.939 168.808 251.376C169.213 251.803 169.688 252.139 170.232 252.384C170.776 252.619 171.373 252.736 172.024 252.736ZM182.599 254L179.223 245.376H180.887L183.591 252.672H183.015L185.735 245.376H187.399L184.007 254H182.599ZM192.542 254.192C191.71 254.192 190.969 253.995 190.318 253.6C189.667 253.205 189.155 252.667 188.782 251.984C188.409 251.291 188.222 250.517 188.222 249.664C188.222 248.8 188.403 248.032 188.766 247.36C189.139 246.688 189.641 246.16 190.27 245.776C190.91 245.381 191.625 245.184 192.414 245.184C193.054 245.184 193.619 245.301 194.11 245.536C194.611 245.76 195.033 246.069 195.374 246.464C195.726 246.848 195.993 247.291 196.174 247.792C196.366 248.283 196.462 248.795 196.462 249.328C196.462 249.445 196.451 249.579 196.43 249.728C196.419 249.867 196.403 250 196.382 250.128H189.31V248.848H195.518L194.814 249.424C194.91 248.869 194.857 248.373 194.654 247.936C194.451 247.499 194.153 247.152 193.758 246.896C193.363 246.64 192.915 246.512 192.414 246.512C191.913 246.512 191.454 246.64 191.038 246.896C190.622 247.152 190.297 247.52 190.062 248C189.838 248.469 189.747 249.029 189.79 249.68C189.747 250.309 189.843 250.864 190.078 251.344C190.323 251.813 190.665 252.181 191.102 252.448C191.55 252.704 192.035 252.832 192.558 252.832C193.134 252.832 193.619 252.699 194.014 252.432C194.409 252.165 194.729 251.824 194.974 251.408L196.222 252.048C196.051 252.443 195.785 252.805 195.422 253.136C195.07 253.456 194.649 253.712 194.158 253.904C193.678 254.096 193.139 254.192 192.542 254.192ZM198.402 254V245.376H199.858V246.96L199.698 246.736C199.901 246.245 200.21 245.883 200.626 245.648C201.042 245.403 201.549 245.28 202.146 245.28H202.674V246.688H201.922C201.314 246.688 200.823 246.88 200.45 247.264C200.077 247.637 199.89 248.171 199.89 248.864V254H198.402ZM206.396 254L203.02 245.376H204.684L207.388 252.672H206.812L209.532 245.376H211.196L207.804 254H206.396ZM212.527 254V245.376H214.015V254H212.527ZM212.527 244V242.08H214.015V244H212.527ZM220.292 254.192C219.46 254.192 218.719 253.995 218.068 253.6C217.417 253.205 216.905 252.667 216.532 251.984C216.159 251.291 215.972 250.517 215.972 249.664C215.972 248.8 216.153 248.032 216.516 247.36C216.889 246.688 217.391 246.16 218.02 245.776C218.66 245.381 219.375 245.184 220.164 245.184C220.804 245.184 221.369 245.301 221.86 245.536C222.361 245.76 222.783 246.069 223.124 246.464C223.476 246.848 223.743 247.291 223.924 247.792C224.116 248.283 224.212 248.795 224.212 249.328C224.212 249.445 224.201 249.579 224.18 249.728C224.169 249.867 224.153 250 224.132 250.128H217.06V248.848H223.268L222.564 249.424C222.66 248.869 222.607 248.373 222.404 247.936C222.201 247.499 221.903 247.152 221.508 246.896C221.113 246.64 220.665 246.512 220.164 246.512C219.663 246.512 219.204 246.64 218.788 246.896C218.372 247.152 218.047 247.52 217.812 248C217.588 248.469 217.497 249.029 217.54 249.68C217.497 250.309 217.593 250.864 217.828 251.344C218.073 251.813 218.415 252.181 218.852 252.448C219.3 252.704 219.785 252.832 220.308 252.832C220.884 252.832 221.369 252.699 221.764 252.432C222.159 252.165 222.479 251.824 222.724 251.408L223.972 252.048C223.801 252.443 223.535 252.805 223.172 253.136C222.82 253.456 222.399 253.712 221.908 253.904C221.428 254.096 220.889 254.192 220.292 254.192ZM228.136 254L225.176 245.376H226.824L229.176 252.592L228.6 252.576L230.904 245.376H232.312L234.616 252.576L234.04 252.592L236.408 245.376H238.04L235.08 254H233.656L231.384 246.8H231.832L229.56 254H228.136Z" fill="#757575"/>
<path d="M165.176 319L169.448 307.08H171.304L175.576 319H173.896L172.92 316.2H167.832L166.856 319H165.176ZM168.328 314.76H172.424L170.152 308.216H170.6L168.328 314.76ZM176.902 319V310.376H178.358V312.056L178.118 311.912C178.331 311.368 178.673 310.947 179.142 310.648C179.622 310.339 180.182 310.184 180.822 310.184C181.441 310.184 181.99 310.323 182.47 310.6C182.961 310.877 183.345 311.261 183.622 311.752C183.91 312.243 184.054 312.797 184.054 313.416V319H182.55V313.896C182.55 313.416 182.465 313.011 182.294 312.68C182.123 312.349 181.878 312.093 181.558 311.912C181.249 311.72 180.891 311.624 180.486 311.624C180.081 311.624 179.718 311.72 179.398 311.912C179.089 312.093 178.843 312.355 178.662 312.696C178.481 313.027 178.39 313.427 178.39 313.896V319H176.902ZM188.711 319.192C188.146 319.192 187.645 319.091 187.207 318.888C186.781 318.675 186.445 318.387 186.199 318.024C185.954 317.651 185.831 317.224 185.831 316.744C185.831 316.285 185.927 315.875 186.119 315.512C186.322 315.139 186.631 314.824 187.047 314.568C187.474 314.312 188.007 314.131 188.647 314.024L191.847 313.496V314.744L188.983 315.224C188.429 315.32 188.023 315.496 187.767 315.752C187.522 316.008 187.399 316.323 187.399 316.696C187.399 317.048 187.538 317.341 187.815 317.576C188.103 317.811 188.461 317.928 188.887 317.928C189.431 317.928 189.901 317.816 190.295 317.592C190.701 317.357 191.015 317.043 191.239 316.648C191.474 316.253 191.591 315.816 191.591 315.336V313.144C191.591 312.675 191.415 312.296 191.063 312.008C190.722 311.709 190.269 311.56 189.703 311.56C189.213 311.56 188.775 311.688 188.391 311.944C188.018 312.189 187.741 312.52 187.559 312.936L186.263 312.264C186.423 311.869 186.679 311.517 187.031 311.208C187.383 310.888 187.794 310.637 188.263 310.456C188.733 310.275 189.223 310.184 189.735 310.184C190.397 310.184 190.978 310.312 191.479 310.568C191.981 310.813 192.37 311.16 192.647 311.608C192.935 312.045 193.079 312.557 193.079 313.144V319H191.623V317.368L191.895 317.464C191.714 317.805 191.469 318.104 191.159 318.36C190.85 318.616 190.487 318.819 190.071 318.968C189.655 319.117 189.202 319.192 188.711 319.192ZM195.386 319V306.888H196.874V319H195.386ZM199.647 322.52C199.455 322.52 199.263 322.504 199.071 322.472C198.879 322.451 198.698 322.403 198.527 322.328V321C198.645 321.011 198.789 321.032 198.959 321.064C199.141 321.096 199.317 321.112 199.487 321.112C199.989 321.112 200.367 321 200.623 320.776C200.89 320.552 201.141 320.173 201.375 319.64L201.919 318.344L201.887 319.64L198.207 310.376H199.823L202.687 317.736H202.207L205.055 310.376H206.703L202.815 320.024C202.634 320.483 202.399 320.904 202.111 321.288C201.834 321.672 201.493 321.971 201.087 322.184C200.682 322.408 200.202 322.52 199.647 322.52ZM211.531 319.096C210.688 319.096 210.038 318.856 209.579 318.376C209.131 317.896 208.907 317.219 208.907 316.344V311.8H207.339V310.376H207.659C208.043 310.376 208.347 310.259 208.571 310.024C208.795 309.789 208.907 309.48 208.907 309.096V308.392H210.395V310.376H212.331V311.8H210.395V316.296C210.395 316.584 210.438 316.835 210.523 317.048C210.619 317.261 210.774 317.432 210.987 317.56C211.2 317.677 211.483 317.736 211.835 317.736C211.91 317.736 212 317.731 212.107 317.72C212.224 317.709 212.331 317.699 212.427 317.688V319C212.288 319.032 212.134 319.053 211.963 319.064C211.792 319.085 211.648 319.096 211.531 319.096ZM214.371 319V310.376H215.859V319H214.371ZM214.371 309V307.08H215.859V309H214.371ZM222.168 319.192C221.325 319.192 220.573 318.995 219.912 318.6C219.261 318.205 218.749 317.667 218.376 316.984C218.002 316.301 217.816 315.533 217.816 314.68C217.816 313.816 218.002 313.048 218.376 312.376C218.749 311.704 219.261 311.171 219.912 310.776C220.573 310.381 221.325 310.184 222.168 310.184C222.733 310.184 223.261 310.285 223.752 310.488C224.242 310.691 224.674 310.963 225.048 311.304C225.421 311.645 225.693 312.045 225.864 312.504L224.536 313.144C224.333 312.696 224.024 312.333 223.608 312.056C223.192 311.768 222.712 311.624 222.168 311.624C221.645 311.624 221.17 311.757 220.744 312.024C220.328 312.291 219.997 312.653 219.752 313.112C219.506 313.571 219.384 314.099 219.384 314.696C219.384 315.272 219.506 315.795 219.752 316.264C219.997 316.723 220.328 317.085 220.744 317.352C221.17 317.619 221.645 317.752 222.168 317.752C222.712 317.752 223.192 317.613 223.608 317.336C224.024 317.048 224.333 316.669 224.536 316.2L225.864 316.872C225.693 317.32 225.421 317.72 225.048 318.072C224.674 318.413 224.242 318.685 223.752 318.888C223.261 319.091 222.733 319.192 222.168 319.192ZM230.896 319.192C230.032 319.192 229.28 318.979 228.64 318.552C228 318.125 227.547 317.549 227.28 316.824L228.464 316.248C228.71 316.76 229.046 317.165 229.472 317.464C229.899 317.763 230.374 317.912 230.896 317.912C231.366 317.912 231.755 317.8 232.064 317.576C232.374 317.352 232.528 317.059 232.528 316.696C232.528 316.44 232.454 316.237 232.304 316.088C232.166 315.928 231.995 315.805 231.792 315.72C231.59 315.624 231.403 315.555 231.232 315.512L229.936 315.144C229.158 314.92 228.587 314.6 228.224 314.184C227.872 313.768 227.696 313.283 227.696 312.728C227.696 312.216 227.824 311.773 228.08 311.4C228.347 311.016 228.704 310.717 229.152 310.504C229.611 310.291 230.123 310.184 230.688 310.184C231.446 310.184 232.123 310.376 232.72 310.76C233.328 311.144 233.76 311.683 234.016 312.376L232.8 312.936C232.608 312.488 232.32 312.136 231.936 311.88C231.552 311.613 231.12 311.48 230.64 311.48C230.203 311.48 229.856 311.592 229.6 311.816C229.344 312.029 229.216 312.301 229.216 312.632C229.216 312.877 229.28 313.08 229.408 313.24C229.536 313.389 229.691 313.507 229.872 313.592C230.054 313.667 230.23 313.731 230.4 313.784L231.808 314.2C232.512 314.403 233.056 314.717 233.44 315.144C233.835 315.571 234.032 316.083 234.032 316.68C234.032 317.16 233.899 317.592 233.632 317.976C233.366 318.36 232.998 318.659 232.528 318.872C232.059 319.085 231.515 319.192 230.896 319.192Z" fill="#0A205A"/>
<path d="M383.352 175L391.736 151.16H396.408L404.792 175H400.76L398.936 169.656H389.24L387.384 175H383.352ZM390.328 166.296H397.784L393.56 153.816H394.616L390.328 166.296ZM407.268 175V157.688H410.724V161.08L410.308 160.632C410.735 159.544 411.418 158.723 412.356 158.168C413.295 157.592 414.383 157.304 415.62 157.304C416.9 157.304 418.031 157.581 419.012 158.136C419.994 158.691 420.762 159.459 421.316 160.44C421.871 161.421 422.148 162.552 422.148 163.832V175H418.564V164.792C418.564 163.917 418.404 163.181 418.084 162.584C417.764 161.965 417.306 161.496 416.708 161.176C416.132 160.835 415.471 160.664 414.724 160.664C413.978 160.664 413.306 160.835 412.708 161.176C412.132 161.496 411.684 161.965 411.364 162.584C411.044 163.203 410.884 163.939 410.884 164.792V175H407.268ZM431.202 175.384C430.029 175.384 428.994 175.181 428.098 174.776C427.224 174.349 426.541 173.773 426.05 173.048C425.56 172.301 425.314 171.427 425.314 170.424C425.314 169.485 425.517 168.643 425.922 167.896C426.349 167.149 427 166.52 427.874 166.008C428.749 165.496 429.848 165.133 431.17 164.92L437.186 163.928V166.776L431.874 167.704C430.914 167.875 430.21 168.184 429.762 168.632C429.314 169.059 429.09 169.613 429.09 170.296C429.09 170.957 429.336 171.501 429.826 171.928C430.338 172.333 430.989 172.536 431.778 172.536C432.76 172.536 433.613 172.323 434.338 171.896C435.085 171.469 435.661 170.904 436.066 170.2C436.472 169.475 436.674 168.675 436.674 167.8V163.352C436.674 162.499 436.354 161.805 435.714 161.272C435.096 160.717 434.264 160.44 433.218 160.44C432.258 160.44 431.416 160.696 430.69 161.208C429.986 161.699 429.464 162.339 429.122 163.128L426.114 161.624C426.434 160.771 426.957 160.024 427.682 159.384C428.408 158.723 429.25 158.211 430.21 157.848C431.192 157.485 432.226 157.304 433.314 157.304C434.68 157.304 435.885 157.56 436.93 158.072C437.997 158.584 438.818 159.299 439.394 160.216C439.992 161.112 440.29 162.157 440.29 163.352V175H436.834V171.864L437.57 171.96C437.165 172.664 436.642 173.272 436.002 173.784C435.384 174.296 434.669 174.691 433.858 174.968C433.069 175.245 432.184 175.384 431.202 175.384ZM444.518 175V150.776H448.134V175H444.518ZM453.898 182.072C453.471 182.072 453.045 182.029 452.618 181.944C452.213 181.88 451.839 181.773 451.498 181.624V178.52C451.754 178.584 452.063 178.637 452.426 178.68C452.789 178.744 453.141 178.776 453.482 178.776C454.485 178.776 455.221 178.552 455.69 178.104C456.181 177.677 456.618 177.005 457.002 176.088L458.154 173.464L458.09 176.504L450.602 157.688H454.474L460.01 172.12H458.698L464.202 157.688H468.106L460.458 176.888C460.053 177.912 459.541 178.808 458.922 179.576C458.325 180.365 457.61 180.973 456.778 181.4C455.967 181.848 455.007 182.072 453.898 182.072ZM478.069 175.192C476.255 175.192 474.847 174.68 473.845 173.656C472.842 172.632 472.341 171.192 472.341 169.336V160.952H469.301V157.688H469.781C470.591 157.688 471.221 157.453 471.669 156.984C472.117 156.515 472.341 155.875 472.341 155.064V153.72H475.957V157.688H479.893V160.952H475.957V169.176C475.957 169.773 476.053 170.285 476.245 170.712C476.437 171.117 476.746 171.437 477.173 171.672C477.599 171.885 478.154 171.992 478.837 171.992C479.007 171.992 479.199 171.981 479.413 171.96C479.626 171.939 479.829 171.917 480.021 171.896V175C479.722 175.043 479.391 175.085 479.029 175.128C478.666 175.171 478.346 175.192 478.069 175.192ZM483.549 175V157.688H487.166V175H483.549ZM483.549 155.32V151.16H487.166V155.32H483.549ZM499.617 175.384C497.889 175.384 496.353 174.989 495.009 174.2C493.687 173.389 492.631 172.301 491.841 170.936C491.073 169.571 490.689 168.024 490.689 166.296C490.689 164.589 491.073 163.053 491.841 161.688C492.609 160.323 493.665 159.256 495.009 158.488C496.353 157.699 497.889 157.304 499.617 157.304C500.791 157.304 501.889 157.517 502.913 157.944C503.937 158.349 504.823 158.915 505.569 159.64C506.337 160.365 506.903 161.208 507.265 162.168L504.097 163.64C503.735 162.744 503.148 162.029 502.337 161.496C501.548 160.941 500.641 160.664 499.617 160.664C498.636 160.664 497.751 160.909 496.961 161.4C496.193 161.869 495.585 162.541 495.137 163.416C494.689 164.269 494.465 165.24 494.465 166.328C494.465 167.416 494.689 168.397 495.137 169.272C495.585 170.125 496.193 170.797 496.961 171.288C497.751 171.779 498.636 172.024 499.617 172.024C500.663 172.024 501.569 171.757 502.337 171.224C503.127 170.669 503.713 169.933 504.097 169.016L507.265 170.52C506.924 171.437 506.369 172.269 505.601 173.016C504.855 173.741 503.969 174.317 502.945 174.744C501.921 175.171 500.812 175.384 499.617 175.384ZM517.2 175.384C515.429 175.384 513.872 174.947 512.528 174.072C511.205 173.197 510.277 172.024 509.743 170.552L512.528 169.24C512.997 170.221 513.637 171 514.448 171.576C515.28 172.152 516.197 172.44 517.2 172.44C518.053 172.44 518.746 172.248 519.28 171.864C519.813 171.48 520.08 170.957 520.08 170.296C520.08 169.869 519.962 169.528 519.728 169.272C519.493 168.995 519.194 168.771 518.832 168.6C518.49 168.429 518.138 168.301 517.776 168.216L515.056 167.448C513.562 167.021 512.442 166.381 511.696 165.528C510.97 164.653 510.608 163.64 510.608 162.488C510.608 161.443 510.874 160.536 511.408 159.768C511.941 158.979 512.677 158.371 513.616 157.944C514.554 157.517 515.61 157.304 516.784 157.304C518.362 157.304 519.77 157.699 521.008 158.488C522.245 159.256 523.12 160.333 523.632 161.72L520.848 163.032C520.506 162.2 519.962 161.539 519.216 161.048C518.49 160.557 517.669 160.312 516.752 160.312C515.962 160.312 515.333 160.504 514.864 160.888C514.394 161.251 514.16 161.731 514.16 162.328C514.16 162.733 514.266 163.075 514.48 163.352C514.693 163.608 514.97 163.821 515.312 163.992C515.653 164.141 516.005 164.269 516.368 164.376L519.184 165.208C520.613 165.613 521.712 166.253 522.48 167.128C523.248 167.981 523.632 169.005 523.632 170.2C523.632 171.224 523.354 172.131 522.8 172.92C522.266 173.688 521.52 174.296 520.56 174.744C519.6 175.171 518.48 175.384 517.2 175.384Z" fill="#130F26"/>
<path d="M144.436 173.264C143.409 173.264 142.456 173.073 141.576 172.692C140.696 172.296 139.948 171.761 139.332 171.086C138.716 170.411 138.261 169.634 137.968 168.754L140.168 167.83C140.564 168.842 141.143 169.619 141.906 170.162C142.669 170.705 143.549 170.976 144.546 170.976C145.133 170.976 145.646 170.888 146.086 170.712C146.526 170.521 146.863 170.257 147.098 169.92C147.347 169.583 147.472 169.194 147.472 168.754C147.472 168.153 147.303 167.676 146.966 167.324C146.629 166.972 146.13 166.693 145.47 166.488L142.39 165.52C141.158 165.139 140.219 164.559 139.574 163.782C138.929 162.99 138.606 162.066 138.606 161.01C138.606 160.086 138.833 159.279 139.288 158.59C139.743 157.886 140.366 157.336 141.158 156.94C141.965 156.544 142.881 156.346 143.908 156.346C144.891 156.346 145.785 156.522 146.592 156.874C147.399 157.211 148.088 157.681 148.66 158.282C149.247 158.883 149.672 159.58 149.936 160.372L147.78 161.318C147.457 160.453 146.951 159.785 146.262 159.316C145.587 158.847 144.803 158.612 143.908 158.612C143.365 158.612 142.889 158.707 142.478 158.898C142.067 159.074 141.745 159.338 141.51 159.69C141.29 160.027 141.18 160.423 141.18 160.878C141.18 161.406 141.349 161.875 141.686 162.286C142.023 162.697 142.537 163.005 143.226 163.21L146.086 164.112C147.391 164.508 148.374 165.08 149.034 165.828C149.694 166.561 150.024 167.478 150.024 168.578C150.024 169.487 149.782 170.294 149.298 170.998C148.829 171.702 148.176 172.259 147.34 172.67C146.504 173.066 145.536 173.264 144.436 173.264ZM152.696 173V161.098H155.072V163.43L154.786 163.122C155.079 162.374 155.549 161.809 156.194 161.428C156.839 161.032 157.587 160.834 158.438 160.834C159.318 160.834 160.095 161.025 160.77 161.406C161.445 161.787 161.973 162.315 162.354 162.99C162.735 163.665 162.926 164.442 162.926 165.322V173H160.462V165.982C160.462 165.381 160.352 164.875 160.132 164.464C159.912 164.039 159.597 163.716 159.186 163.496C158.79 163.261 158.335 163.144 157.822 163.144C157.309 163.144 156.847 163.261 156.436 163.496C156.04 163.716 155.732 164.039 155.512 164.464C155.292 164.889 155.182 165.395 155.182 165.982V173H152.696ZM171.329 173.264C170.185 173.264 169.136 172.993 168.183 172.45C167.244 171.907 166.496 171.167 165.939 170.228C165.381 169.289 165.103 168.226 165.103 167.038C165.103 165.835 165.381 164.772 165.939 163.848C166.496 162.909 167.244 162.176 168.183 161.648C169.121 161.105 170.17 160.834 171.329 160.834C172.502 160.834 173.551 161.105 174.475 161.648C175.413 162.176 176.154 162.909 176.697 163.848C177.254 164.772 177.533 165.835 177.533 167.038C177.533 168.241 177.254 169.311 176.697 170.25C176.139 171.189 175.391 171.929 174.453 172.472C173.514 173 172.473 173.264 171.329 173.264ZM171.329 170.954C172.033 170.954 172.656 170.785 173.199 170.448C173.741 170.111 174.167 169.649 174.475 169.062C174.797 168.461 174.959 167.786 174.959 167.038C174.959 166.29 174.797 165.623 174.475 165.036C174.167 164.449 173.741 163.987 173.199 163.65C172.656 163.313 172.033 163.144 171.329 163.144C170.639 163.144 170.016 163.313 169.459 163.65C168.916 163.987 168.483 164.449 168.161 165.036C167.853 165.623 167.699 166.29 167.699 167.038C167.699 167.786 167.853 168.461 168.161 169.062C168.483 169.649 168.916 170.111 169.459 170.448C170.016 170.785 170.639 170.954 171.329 170.954ZM182.627 173L178.535 161.098H181.175L184.299 170.58H183.375L186.565 161.098H188.831L191.999 170.58H191.075L194.221 161.098H196.861L192.747 173H190.503L187.291 163.298H188.105L184.893 173H182.627ZM198.565 177.4V161.098H200.941V163.562L200.655 162.99C201.095 162.315 201.682 161.787 202.415 161.406C203.149 161.025 203.985 160.834 204.923 160.834C206.053 160.834 207.065 161.105 207.959 161.648C208.869 162.191 209.58 162.931 210.093 163.87C210.621 164.809 210.885 165.865 210.885 167.038C210.885 168.211 210.621 169.267 210.093 170.206C209.58 171.145 208.876 171.893 207.981 172.45C207.087 172.993 206.067 173.264 204.923 173.264C203.999 173.264 203.156 173.073 202.393 172.692C201.645 172.311 201.066 171.761 200.655 171.042L201.051 170.58V177.4H198.565ZM204.681 170.954C205.385 170.954 206.009 170.785 206.551 170.448C207.094 170.111 207.519 169.649 207.827 169.062C208.15 168.461 208.311 167.786 208.311 167.038C208.311 166.29 208.15 165.623 207.827 165.036C207.519 164.449 207.094 163.987 206.551 163.65C206.009 163.313 205.385 163.144 204.681 163.144C203.992 163.144 203.369 163.313 202.811 163.65C202.269 163.987 201.836 164.449 201.513 165.036C201.205 165.623 201.051 166.29 201.051 167.038C201.051 167.786 201.205 168.461 201.513 169.062C201.836 169.649 202.269 170.111 202.811 170.448C203.369 170.785 203.992 170.954 204.681 170.954ZM213.304 173V161.098H215.79V173H213.304ZM213.304 159.47V156.61H215.79V159.47H213.304ZM218.696 173V156.346H221.182V167.5L220.214 167.258L226.176 161.098H229.278L224.79 165.872L229.476 173H226.616L222.436 166.686L223.91 166.488L220.39 170.228L221.182 168.578V173H218.696ZM236.552 173.264C235.364 173.264 234.308 172.993 233.384 172.45C232.474 171.893 231.763 171.145 231.25 170.206C230.736 169.253 230.48 168.189 230.48 167.016C230.48 165.813 230.736 164.75 231.25 163.826C231.778 162.902 232.482 162.176 233.362 161.648C234.242 161.105 235.239 160.834 236.354 160.834C237.248 160.834 238.048 160.988 238.752 161.296C239.456 161.604 240.05 162.029 240.534 162.572C241.018 163.1 241.384 163.709 241.634 164.398C241.898 165.087 242.03 165.821 242.03 166.598C242.03 166.789 242.022 166.987 242.008 167.192C241.993 167.397 241.964 167.588 241.92 167.764H232.438V165.784H240.512L239.324 166.686C239.47 165.967 239.419 165.329 239.17 164.772C238.935 164.2 238.568 163.753 238.07 163.43C237.586 163.093 237.014 162.924 236.354 162.924C235.694 162.924 235.107 163.093 234.594 163.43C234.08 163.753 233.684 164.222 233.406 164.838C233.127 165.439 233.017 166.173 233.076 167.038C233.002 167.845 233.112 168.549 233.406 169.15C233.714 169.751 234.139 170.221 234.682 170.558C235.239 170.895 235.87 171.064 236.574 171.064C237.292 171.064 237.901 170.903 238.4 170.58C238.913 170.257 239.316 169.839 239.61 169.326L241.634 170.316C241.399 170.873 241.032 171.379 240.534 171.834C240.05 172.274 239.463 172.626 238.774 172.89C238.099 173.139 237.358 173.264 236.552 173.264Z" fill="#130F26"/>
<path d="M171.816 382.192C170.973 382.192 170.195 382.043 169.48 381.744C168.776 381.435 168.157 381.003 167.624 380.448C167.101 379.893 166.696 379.243 166.408 378.496C166.12 377.749 165.976 376.933 165.976 376.048C165.976 375.152 166.12 374.331 166.408 373.584C166.696 372.837 167.101 372.187 167.624 371.632C168.147 371.077 168.765 370.651 169.48 370.352C170.195 370.043 170.973 369.888 171.816 369.888C172.637 369.888 173.373 370.032 174.024 370.32C174.685 370.608 175.24 370.981 175.688 371.44C176.147 371.899 176.472 372.389 176.664 372.912L175.224 373.568C174.947 372.907 174.515 372.373 173.928 371.968C173.341 371.552 172.637 371.344 171.816 371.344C170.984 371.344 170.243 371.541 169.592 371.936C168.952 372.331 168.451 372.88 168.088 373.584C167.725 374.288 167.544 375.109 167.544 376.048C167.544 376.976 167.725 377.792 168.088 378.496C168.451 379.2 168.952 379.749 169.592 380.144C170.243 380.539 170.984 380.736 171.816 380.736C172.637 380.736 173.341 380.533 173.928 380.128C174.515 379.712 174.947 379.173 175.224 378.512L176.664 379.168C176.472 379.691 176.147 380.181 175.688 380.64C175.24 381.099 174.685 381.472 174.024 381.76C173.373 382.048 172.637 382.192 171.816 382.192ZM181.677 382.192C181.058 382.192 180.498 382.048 179.997 381.76C179.506 381.472 179.122 381.072 178.845 380.56C178.578 380.037 178.445 379.44 178.445 378.768V373.376H179.933V378.608C179.933 379.035 180.018 379.408 180.189 379.728C180.37 380.048 180.615 380.299 180.925 380.48C181.245 380.661 181.607 380.752 182.013 380.752C182.418 380.752 182.775 380.661 183.085 380.48C183.405 380.299 183.65 380.037 183.821 379.696C184.002 379.355 184.093 378.949 184.093 378.48V373.376H185.597V382H184.141V380.32L184.381 380.464C184.178 381.008 183.831 381.435 183.341 381.744C182.861 382.043 182.306 382.192 181.677 382.192ZM187.902 382V373.376H189.358V375.136L189.15 374.864C189.363 374.32 189.705 373.904 190.174 373.616C190.643 373.328 191.171 373.184 191.758 373.184C192.43 373.184 193.033 373.371 193.566 373.744C194.11 374.117 194.483 374.608 194.686 375.216L194.27 375.232C194.494 374.56 194.873 374.053 195.406 373.712C195.939 373.36 196.531 373.184 197.182 373.184C197.779 373.184 198.318 373.323 198.798 373.6C199.289 373.877 199.678 374.261 199.966 374.752C200.254 375.243 200.398 375.797 200.398 376.416V382H198.894V376.896C198.894 376.416 198.809 376.011 198.638 375.68C198.467 375.349 198.233 375.093 197.934 374.912C197.646 374.72 197.305 374.624 196.91 374.624C196.526 374.624 196.179 374.72 195.87 374.912C195.571 375.093 195.331 375.355 195.15 375.696C194.979 376.027 194.894 376.427 194.894 376.896V382H193.39V376.896C193.39 376.416 193.305 376.011 193.134 375.68C192.963 375.349 192.729 375.093 192.43 374.912C192.142 374.72 191.801 374.624 191.406 374.624C191.022 374.624 190.675 374.72 190.366 374.912C190.067 375.093 189.827 375.355 189.646 375.696C189.475 376.027 189.39 376.427 189.39 376.896V382H187.902ZM202.511 382V373.376H203.967V375.136L203.759 374.864C203.973 374.32 204.314 373.904 204.783 373.616C205.253 373.328 205.781 373.184 206.367 373.184C207.039 373.184 207.642 373.371 208.175 373.744C208.719 374.117 209.093 374.608 209.295 375.216L208.879 375.232C209.103 374.56 209.482 374.053 210.015 373.712C210.549 373.36 211.141 373.184 211.791 373.184C212.389 373.184 212.927 373.323 213.407 373.6C213.898 373.877 214.287 374.261 214.575 374.752C214.863 375.243 215.007 375.797 215.007 376.416V382H213.503V376.896C213.503 376.416 213.418 376.011 213.247 375.68C213.077 375.349 212.842 375.093 212.543 374.912C212.255 374.72 211.914 374.624 211.519 374.624C211.135 374.624 210.789 374.72 210.479 374.912C210.181 375.093 209.941 375.355 209.759 375.696C209.589 376.027 209.503 376.427 209.503 376.896V382H207.999V376.896C207.999 376.416 207.914 376.011 207.743 375.68C207.573 375.349 207.338 375.093 207.039 374.912C206.751 374.72 206.41 374.624 206.015 374.624C205.631 374.624 205.285 374.72 204.975 374.912C204.677 375.093 204.437 375.355 204.255 375.696C204.085 376.027 203.999 376.427 203.999 376.896V382H202.511ZM220.177 382.192C219.558 382.192 218.998 382.048 218.497 381.76C218.006 381.472 217.622 381.072 217.345 380.56C217.078 380.037 216.945 379.44 216.945 378.768V373.376H218.433V378.608C218.433 379.035 218.518 379.408 218.689 379.728C218.87 380.048 219.115 380.299 219.425 380.48C219.745 380.661 220.107 380.752 220.513 380.752C220.918 380.752 221.275 380.661 221.585 380.48C221.905 380.299 222.15 380.037 222.321 379.696C222.502 379.355 222.593 378.949 222.593 378.48V373.376H224.097V382H222.641V380.32L222.881 380.464C222.678 381.008 222.331 381.435 221.841 381.744C221.361 382.043 220.806 382.192 220.177 382.192ZM226.402 382V373.376H227.858V375.056L227.618 374.912C227.831 374.368 228.173 373.947 228.642 373.648C229.122 373.339 229.682 373.184 230.322 373.184C230.941 373.184 231.49 373.323 231.97 373.6C232.461 373.877 232.845 374.261 233.122 374.752C233.41 375.243 233.554 375.797 233.554 376.416V382H232.05V376.896C232.05 376.416 231.965 376.011 231.794 375.68C231.623 375.349 231.378 375.093 231.058 374.912C230.749 374.72 230.391 374.624 229.986 374.624C229.581 374.624 229.218 374.72 228.898 374.912C228.589 375.093 228.343 375.355 228.162 375.696C227.981 376.027 227.89 376.427 227.89 376.896V382H226.402ZM235.683 382V373.376H237.171V382H235.683ZM235.683 372V370.08H237.171V372H235.683ZM242.984 382.096C242.141 382.096 241.491 381.856 241.032 381.376C240.584 380.896 240.36 380.219 240.36 379.344V374.8H238.792V373.376H239.112C239.496 373.376 239.8 373.259 240.024 373.024C240.248 372.789 240.36 372.48 240.36 372.096V371.392H241.848V373.376H243.784V374.8H241.848V379.296C241.848 379.584 241.891 379.835 241.976 380.048C242.072 380.261 242.227 380.432 242.44 380.56C242.653 380.677 242.936 380.736 243.288 380.736C243.363 380.736 243.453 380.731 243.56 380.72C243.677 380.709 243.784 380.699 243.88 380.688V382C243.741 382.032 243.587 382.053 243.416 382.064C243.245 382.085 243.101 382.096 242.984 382.096ZM246.288 385.52C246.096 385.52 245.904 385.504 245.712 385.472C245.52 385.451 245.339 385.403 245.168 385.328V384C245.285 384.011 245.429 384.032 245.6 384.064C245.781 384.096 245.957 384.112 246.128 384.112C246.629 384.112 247.008 384 247.264 383.776C247.531 383.552 247.781 383.173 248.016 382.64L248.56 381.344L248.528 382.64L244.848 373.376H246.464L249.328 380.736H248.848L251.696 373.376H253.344L249.456 383.024C249.275 383.483 249.04 383.904 248.752 384.288C248.475 384.672 248.133 384.971 247.728 385.184C247.323 385.408 246.843 385.52 246.288 385.52Z" fill="#757575"/>
<path d="M166.328 447V435.08H170.536C171.325 435.08 172.019 435.229 172.616 435.528C173.213 435.827 173.677 436.253 174.008 436.808C174.349 437.363 174.52 438.013 174.52 438.76C174.52 439.603 174.307 440.317 173.88 440.904C173.453 441.491 172.877 441.912 172.152 442.168L174.92 447H173.096L170.184 441.832L171.224 442.44H167.896V447H166.328ZM167.896 441H170.584C171.053 441 171.464 440.909 171.816 440.728C172.168 440.547 172.44 440.285 172.632 439.944C172.835 439.603 172.936 439.208 172.936 438.76C172.936 438.301 172.835 437.907 172.632 437.576C172.44 437.235 172.168 436.973 171.816 436.792C171.464 436.611 171.053 436.52 170.584 436.52H167.896V441ZM180.011 447.192C179.179 447.192 178.437 446.995 177.787 446.6C177.136 446.205 176.624 445.667 176.251 444.984C175.877 444.291 175.691 443.517 175.691 442.664C175.691 441.8 175.872 441.032 176.235 440.36C176.608 439.688 177.109 439.16 177.739 438.776C178.379 438.381 179.093 438.184 179.883 438.184C180.523 438.184 181.088 438.301 181.579 438.536C182.08 438.76 182.501 439.069 182.843 439.464C183.195 439.848 183.461 440.291 183.643 440.792C183.835 441.283 183.931 441.795 183.931 442.328C183.931 442.445 183.92 442.579 183.899 442.728C183.888 442.867 183.872 443 183.851 443.128H176.779V441.848H182.987L182.283 442.424C182.379 441.869 182.325 441.373 182.123 440.936C181.92 440.499 181.621 440.152 181.227 439.896C180.832 439.64 180.384 439.512 179.883 439.512C179.381 439.512 178.923 439.64 178.507 439.896C178.091 440.152 177.765 440.52 177.531 441C177.307 441.469 177.216 442.029 177.259 442.68C177.216 443.309 177.312 443.864 177.547 444.344C177.792 444.813 178.133 445.181 178.571 445.448C179.019 445.704 179.504 445.832 180.027 445.832C180.603 445.832 181.088 445.699 181.483 445.432C181.877 445.165 182.197 444.824 182.443 444.408L183.691 445.048C183.52 445.443 183.253 445.805 182.891 446.136C182.539 446.456 182.117 446.712 181.627 446.904C181.147 447.096 180.608 447.192 180.011 447.192ZM185.871 450.2V438.376H187.327V440.232L187.135 439.864C187.455 439.352 187.892 438.947 188.447 438.648C189.001 438.339 189.636 438.184 190.351 438.184C191.161 438.184 191.887 438.381 192.527 438.776C193.177 439.171 193.689 439.709 194.063 440.392C194.436 441.064 194.623 441.832 194.623 442.696C194.623 443.539 194.436 444.301 194.063 444.984C193.689 445.667 193.177 446.205 192.527 446.6C191.887 446.995 191.156 447.192 190.335 447.192C189.641 447.192 189.007 447.037 188.431 446.728C187.865 446.419 187.428 445.981 187.119 445.416L187.359 445.16V450.2H185.871ZM190.223 445.752C190.767 445.752 191.252 445.619 191.679 445.352C192.105 445.085 192.436 444.723 192.671 444.264C192.916 443.795 193.039 443.272 193.039 442.696C193.039 442.099 192.916 441.576 192.671 441.128C192.436 440.669 192.105 440.307 191.679 440.04C191.252 439.763 190.767 439.624 190.223 439.624C189.679 439.624 189.188 439.757 188.751 440.024C188.324 440.291 187.983 440.659 187.727 441.128C187.481 441.587 187.359 442.109 187.359 442.696C187.359 443.272 187.481 443.795 187.727 444.264C187.983 444.723 188.324 445.085 188.751 445.352C189.188 445.619 189.679 445.752 190.223 445.752ZM200.67 447.192C199.838 447.192 199.086 447 198.414 446.616C197.742 446.221 197.209 445.683 196.814 445C196.419 444.317 196.222 443.544 196.222 442.68C196.222 441.816 196.414 441.048 196.798 440.376C197.193 439.704 197.726 439.171 198.398 438.776C199.07 438.381 199.827 438.184 200.67 438.184C201.502 438.184 202.254 438.381 202.926 438.776C203.598 439.16 204.126 439.688 204.51 440.36C204.905 441.032 205.102 441.805 205.102 442.68C205.102 443.555 204.899 444.333 204.494 445.016C204.089 445.688 203.55 446.221 202.878 446.616C202.217 447 201.481 447.192 200.67 447.192ZM200.67 445.752C201.203 445.752 201.683 445.619 202.11 445.352C202.547 445.085 202.889 444.717 203.134 444.248C203.39 443.779 203.518 443.256 203.518 442.68C203.518 442.093 203.39 441.576 203.134 441.128C202.889 440.669 202.547 440.307 202.11 440.04C201.683 439.763 201.203 439.624 200.67 439.624C200.126 439.624 199.635 439.763 199.198 440.04C198.771 440.307 198.43 440.669 198.174 441.128C197.918 441.576 197.79 442.093 197.79 442.68C197.79 443.256 197.918 443.779 198.174 444.248C198.43 444.717 198.771 445.085 199.198 445.352C199.635 445.619 200.126 445.752 200.67 445.752ZM207.043 447V438.376H208.499V439.96L208.339 439.736C208.541 439.245 208.851 438.883 209.267 438.648C209.683 438.403 210.189 438.28 210.787 438.28H211.315V439.688H210.563C209.955 439.688 209.464 439.88 209.091 440.264C208.717 440.637 208.531 441.171 208.531 441.864V447H207.043ZM216.219 447.096C215.376 447.096 214.725 446.856 214.267 446.376C213.819 445.896 213.595 445.219 213.595 444.344V439.8H212.027V438.376H212.347C212.731 438.376 213.035 438.259 213.259 438.024C213.483 437.789 213.595 437.48 213.595 437.096V436.392H215.083V438.376H217.019V439.8H215.083V444.296C215.083 444.584 215.125 444.835 215.211 445.048C215.307 445.261 215.461 445.432 215.674 445.56C215.888 445.677 216.171 445.736 216.523 445.736C216.597 445.736 216.688 445.731 216.795 445.72C216.912 445.709 217.019 445.699 217.115 445.688V447C216.976 447.032 216.821 447.053 216.651 447.064C216.48 447.085 216.336 447.096 216.219 447.096ZM222.146 447.192C221.282 447.192 220.53 446.979 219.89 446.552C219.25 446.125 218.797 445.549 218.53 444.824L219.714 444.248C219.96 444.76 220.296 445.165 220.722 445.464C221.149 445.763 221.624 445.912 222.146 445.912C222.616 445.912 223.005 445.8 223.314 445.576C223.624 445.352 223.778 445.059 223.778 444.696C223.778 444.44 223.704 444.237 223.554 444.088C223.416 443.928 223.245 443.805 223.042 443.72C222.84 443.624 222.653 443.555 222.482 443.512L221.186 443.144C220.408 442.92 219.837 442.6 219.474 442.184C219.122 441.768 218.946 441.283 218.946 440.728C218.946 440.216 219.074 439.773 219.33 439.4C219.597 439.016 219.954 438.717 220.402 438.504C220.861 438.291 221.373 438.184 221.938 438.184C222.696 438.184 223.373 438.376 223.97 438.76C224.578 439.144 225.01 439.683 225.266 440.376L224.05 440.936C223.858 440.488 223.57 440.136 223.186 439.88C222.802 439.613 222.37 439.48 221.89 439.48C221.453 439.48 221.106 439.592 220.85 439.816C220.594 440.029 220.466 440.301 220.466 440.632C220.466 440.877 220.53 441.08 220.658 441.24C220.786 441.389 220.941 441.507 221.122 441.592C221.304 441.667 221.48 441.731 221.65 441.784L223.058 442.2C223.762 442.403 224.306 442.717 224.69 443.144C225.085 443.571 225.282 444.083 225.282 444.68C225.282 445.16 225.149 445.592 224.882 445.976C224.616 446.36 224.248 446.659 223.778 446.872C223.309 447.085 222.765 447.192 222.146 447.192Z" fill="#757575"/>
<rect x="90" y="292" width="20" height="40" rx="10" fill="#0A205A"/>
<circle cx="283" cy="377" r="12" fill="#99C5D6"/>
<path d="M281.164 379.104C281.932 378.464 282.544 377.932 283 377.508C283.456 377.076 283.836 376.628 284.14 376.164C284.444 375.7 284.596 375.244 284.596 374.796C284.596 374.388 284.5 374.068 284.308 373.836C284.116 373.604 283.82 373.488 283.42 373.488C283.02 373.488 282.712 373.624 282.496 373.896C282.28 374.16 282.168 374.524 282.16 374.988H280.528C280.56 374.028 280.844 373.3 281.38 372.804C281.924 372.308 282.612 372.06 283.444 372.06C284.356 372.06 285.056 372.304 285.544 372.792C286.032 373.272 286.276 373.908 286.276 374.7C286.276 375.324 286.108 375.92 285.772 376.488C285.436 377.056 285.052 377.552 284.62 377.976C284.188 378.392 283.624 378.896 282.928 379.488H286.468V380.88H280.54V379.632L281.164 379.104Z" fill="white"/>
<line x1="343.5" y1="99" x2="343.5" y2="1123" stroke="#EAEAEA"/>
<rect x="383.5" y="608.5" width="239" height="438" rx="9.5" fill="white" stroke="#EAEAEA"/>
<path d="M408.32 651V644.28L403.22 636.1H405.88L409.96 642.72H409.02L413.08 636.1H415.74L410.66 644.28V651H408.32ZM420.414 651.24C419.374 651.24 418.421 650.993 417.554 650.5C416.701 650.007 416.021 649.333 415.514 648.48C415.008 647.627 414.754 646.66 414.754 645.58C414.754 644.487 415.008 643.52 415.514 642.68C416.021 641.827 416.701 641.16 417.554 640.68C418.408 640.187 419.361 639.94 420.414 639.94C421.481 639.94 422.434 640.187 423.274 640.68C424.128 641.16 424.801 641.827 425.294 642.68C425.801 643.52 426.054 644.487 426.054 645.58C426.054 646.673 425.801 647.647 425.294 648.5C424.788 649.353 424.108 650.027 423.254 650.52C422.401 651 421.454 651.24 420.414 651.24ZM420.414 649.14C421.054 649.14 421.621 648.987 422.114 648.68C422.608 648.373 422.994 647.953 423.274 647.42C423.568 646.873 423.714 646.26 423.714 645.58C423.714 644.9 423.568 644.293 423.274 643.76C422.994 643.227 422.608 642.807 422.114 642.5C421.621 642.193 421.054 642.04 420.414 642.04C419.788 642.04 419.221 642.193 418.714 642.5C418.221 642.807 417.828 643.227 417.534 643.76C417.254 644.293 417.114 644.9 417.114 645.58C417.114 646.26 417.254 646.873 417.534 647.42C417.828 647.953 418.221 648.373 418.714 648.68C419.221 648.987 419.788 649.14 420.414 649.14ZM431.921 651.24C431.107 651.24 430.394 651.06 429.781 650.7C429.167 650.327 428.687 649.813 428.341 649.16C428.007 648.493 427.841 647.727 427.841 646.86V640.18H430.101V646.66C430.101 647.153 430.201 647.587 430.401 647.96C430.601 648.333 430.881 648.627 431.241 648.84C431.601 649.04 432.014 649.14 432.481 649.14C432.961 649.14 433.381 649.033 433.741 648.82C434.101 648.607 434.381 648.307 434.581 647.92C434.794 647.533 434.901 647.08 434.901 646.56V640.18H437.141V651H435.001V648.88L435.241 649.16C434.987 649.827 434.567 650.34 433.981 650.7C433.394 651.06 432.707 651.24 431.921 651.24ZM439.579 651V640.18H441.739V642.36L441.539 642.04C441.779 641.333 442.166 640.827 442.699 640.52C443.233 640.2 443.873 640.04 444.619 640.04H445.279V642.1H444.339C443.593 642.1 442.986 642.333 442.519 642.8C442.066 643.253 441.839 643.907 441.839 644.76V651H439.579ZM450.142 651V636.1H452.502V651H450.142ZM455.171 651V640.18H457.331V642.3L457.071 642.02C457.337 641.34 457.764 640.827 458.351 640.48C458.937 640.12 459.617 639.94 460.391 639.94C461.191 639.94 461.897 640.113 462.511 640.46C463.124 640.807 463.604 641.287 463.951 641.9C464.297 642.513 464.471 643.22 464.471 644.02V651H462.231V644.62C462.231 644.073 462.131 643.613 461.931 643.24C461.731 642.853 461.444 642.56 461.071 642.36C460.711 642.147 460.297 642.04 459.831 642.04C459.364 642.04 458.944 642.147 458.571 642.36C458.211 642.56 457.931 642.853 457.731 643.24C457.531 643.627 457.431 644.087 457.431 644.62V651H455.171ZM471.37 651.12C470.236 651.12 469.356 650.8 468.73 650.16C468.103 649.52 467.79 648.62 467.79 647.46V642.22H465.89V640.18H466.19C466.696 640.18 467.09 640.033 467.37 639.74C467.65 639.447 467.79 639.047 467.79 638.54V637.7H470.05V640.18H472.51V642.22H470.05V647.36C470.05 647.733 470.11 648.053 470.23 648.32C470.35 648.573 470.543 648.773 470.81 648.92C471.076 649.053 471.423 649.12 471.85 649.12C471.956 649.12 472.076 649.113 472.21 649.1C472.343 649.087 472.47 649.073 472.59 649.06V651C472.403 651.027 472.196 651.053 471.97 651.08C471.743 651.107 471.543 651.12 471.37 651.12ZM479.48 651.24C478.4 651.24 477.44 650.993 476.6 650.5C475.773 649.993 475.126 649.313 474.66 648.46C474.193 647.593 473.96 646.627 473.96 645.56C473.96 644.467 474.193 643.5 474.66 642.66C475.14 641.82 475.78 641.16 476.58 640.68C477.38 640.187 478.286 639.94 479.3 639.94C480.113 639.94 480.84 640.08 481.48 640.36C482.12 640.64 482.66 641.027 483.1 641.52C483.54 642 483.873 642.553 484.1 643.18C484.34 643.807 484.46 644.473 484.46 645.18C484.46 645.353 484.453 645.533 484.44 645.72C484.426 645.907 484.4 646.08 484.36 646.24H475.74V644.44H483.08L482 645.26C482.133 644.607 482.086 644.027 481.86 643.52C481.646 643 481.313 642.593 480.86 642.3C480.42 641.993 479.9 641.84 479.3 641.84C478.7 641.84 478.166 641.993 477.7 642.3C477.233 642.593 476.873 643.02 476.62 643.58C476.366 644.127 476.266 644.793 476.32 645.58C476.253 646.313 476.353 646.953 476.62 647.5C476.9 648.047 477.286 648.473 477.78 648.78C478.286 649.087 478.86 649.24 479.5 649.24C480.153 649.24 480.706 649.093 481.16 648.8C481.626 648.507 481.993 648.127 482.26 647.66L484.1 648.56C483.886 649.067 483.553 649.527 483.1 649.94C482.66 650.34 482.126 650.66 481.5 650.9C480.886 651.127 480.213 651.24 479.48 651.24ZM486.465 651V640.18H488.625V642.36L488.425 642.04C488.665 641.333 489.052 640.827 489.585 640.52C490.119 640.2 490.759 640.04 491.505 640.04H492.165V642.1H491.225C490.479 642.1 489.872 642.333 489.405 642.8C488.952 643.253 488.725 643.907 488.725 644.76V651H486.465ZM498.591 651.24C497.511 651.24 496.551 650.993 495.711 650.5C494.885 649.993 494.238 649.313 493.771 648.46C493.305 647.593 493.071 646.627 493.071 645.56C493.071 644.467 493.305 643.5 493.771 642.66C494.251 641.82 494.891 641.16 495.691 640.68C496.491 640.187 497.398 639.94 498.411 639.94C499.225 639.94 499.951 640.08 500.591 640.36C501.231 640.64 501.771 641.027 502.211 641.52C502.651 642 502.985 642.553 503.211 643.18C503.451 643.807 503.571 644.473 503.571 645.18C503.571 645.353 503.565 645.533 503.551 645.72C503.538 645.907 503.511 646.08 503.471 646.24H494.851V644.44H502.191L501.111 645.26C501.245 644.607 501.198 644.027 500.971 643.52C500.758 643 500.425 642.593 499.971 642.3C499.531 641.993 499.011 641.84 498.411 641.84C497.811 641.84 497.278 641.993 496.811 642.3C496.345 642.593 495.985 643.02 495.731 643.58C495.478 644.127 495.378 644.793 495.431 645.58C495.365 646.313 495.465 646.953 495.731 647.5C496.011 648.047 496.398 648.473 496.891 648.78C497.398 649.087 497.971 649.24 498.611 649.24C499.265 649.24 499.818 649.093 500.271 648.8C500.738 648.507 501.105 648.127 501.371 647.66L503.211 648.56C502.998 649.067 502.665 649.527 502.211 649.94C501.771 650.34 501.238 650.66 500.611 650.9C499.998 651.127 499.325 651.24 498.591 651.24ZM509.577 651.24C508.47 651.24 507.497 650.967 506.657 650.42C505.83 649.873 505.25 649.14 504.917 648.22L506.657 647.4C506.95 648.013 507.35 648.5 507.857 648.86C508.377 649.22 508.95 649.4 509.577 649.4C510.11 649.4 510.544 649.28 510.877 649.04C511.21 648.8 511.377 648.473 511.377 648.06C511.377 647.793 511.304 647.58 511.157 647.42C511.01 647.247 510.824 647.107 510.597 647C510.384 646.893 510.164 646.813 509.937 646.76L508.237 646.28C507.304 646.013 506.604 645.613 506.137 645.08C505.684 644.533 505.457 643.9 505.457 643.18C505.457 642.527 505.624 641.96 505.957 641.48C506.29 640.987 506.75 640.607 507.337 640.34C507.924 640.073 508.584 639.94 509.317 639.94C510.304 639.94 511.184 640.187 511.957 640.68C512.73 641.16 513.277 641.833 513.597 642.7L511.857 643.52C511.644 643 511.304 642.587 510.837 642.28C510.384 641.973 509.87 641.82 509.297 641.82C508.804 641.82 508.41 641.94 508.117 642.18C507.824 642.407 507.677 642.707 507.677 643.08C507.677 643.333 507.744 643.547 507.877 643.72C508.01 643.88 508.184 644.013 508.397 644.12C508.61 644.213 508.83 644.293 509.057 644.36L510.817 644.88C511.71 645.133 512.397 645.533 512.877 646.08C513.357 646.613 513.597 647.253 513.597 648C513.597 648.64 513.424 649.207 513.077 649.7C512.744 650.18 512.277 650.56 511.677 650.84C511.077 651.107 510.377 651.24 509.577 651.24ZM520.291 651.12C519.158 651.12 518.278 650.8 517.651 650.16C517.025 649.52 516.711 648.62 516.711 647.46V642.22H514.811V640.18H515.111C515.618 640.18 516.011 640.033 516.291 639.74C516.571 639.447 516.711 639.047 516.711 638.54V637.7H518.971V640.18H521.431V642.22H518.971V647.36C518.971 647.733 519.031 648.053 519.151 648.32C519.271 648.573 519.465 648.773 519.731 648.92C519.998 649.053 520.345 649.12 520.771 649.12C520.878 649.12 520.998 649.113 521.131 649.1C521.265 649.087 521.391 649.073 521.511 649.06V651C521.325 651.027 521.118 651.053 520.891 651.08C520.665 651.107 520.465 651.12 520.291 651.12Z" fill="#0A205A"/>
<path d="M502.445 696.267C490.333 695.335 478.157 696.851 466.643 700.724C455.129 704.598 444.513 710.75 435.427 718.813C426.341 726.877 418.972 736.687 413.758 747.66C408.545 758.632 405.594 770.542 405.081 782.679C404.568 794.816 406.504 806.932 410.773 818.305C415.042 829.678 421.558 840.075 429.931 848.877C438.303 857.679 448.363 864.704 459.509 869.535C470.655 874.367 482.659 876.904 494.807 876.997L494.997 852.156C486.184 852.088 477.475 850.247 469.388 846.742C461.302 843.237 454.004 838.14 447.929 831.755C441.855 825.369 437.128 817.826 434.031 809.575C430.933 801.324 429.529 792.533 429.901 783.728C430.273 774.922 432.414 766.282 436.197 758.321C439.979 750.361 445.325 743.244 451.917 737.393C458.509 731.543 466.211 727.08 474.564 724.27C482.917 721.459 491.751 720.36 500.538 721.036L502.445 696.267Z" fill="#9CA6D6"/>
<rect x="380.5" y="225.5" width="242" height="357" rx="9.5" fill="white" stroke="#EAEAEA"/>
<rect x="400.25" y="263" width="50" height="50" rx="10" fill="#F1EEF7"/>
<rect x="399" y="490" width="50" height="50" rx="10" fill="#F1EEF7"/>
<rect x="399" y="376" width="50" height="50" rx="10" fill="#F1EEF7"/>
</g>
</g>
<defs>
<clipPath id="clip0_1201_11133">
<rect width="412" height="724" fill="white"/>
</clipPath>
<clipPath id="clip1_1201_11133">
<rect x="99" y="99" width="1440" height="996" rx="48" fill="white"/>
</clipPath>
</defs>
</svg>
