<svg  viewBox="0 0 427 221" fill="none" xmlns="http://www.w3.org/2000/svg">
<path d="M404.6 7.56396L426.2 7.56396" stroke="#ffffff80" stroke-miterlimit="10"/>
<path d="M401.7 40.7642L423 44.4642" stroke="#ffffff80" stroke-miterlimit="10"/>
<path d="M393.1 72.8643L413.4 80.2643" stroke="#ffffff80" stroke-miterlimit="10"/>
<path d="M379 103.064L397.7 113.864" stroke="#ffffff80" stroke-miterlimit="10"/>
<path d="M359.9 130.364L376.5 144.264" stroke="#ffffff80" stroke-miterlimit="10"/>
<path d="M336.4 153.864L350.3 170.464" stroke="#ffffff80" stroke-miterlimit="10"/>
<path d="M309.1 172.964L319.9 191.664" stroke="#ffffff80" stroke-miterlimit="10"/>
<path d="M278.9 187.064L286.3 207.364" stroke="#ffffff80" stroke-miterlimit="10"/>
<path d="M246.8 195.664L250.5 216.964" stroke="#ffffff80" stroke-miterlimit="10"/>
<path d="M213.6 198.564V220.164" stroke="#ffffff80" stroke-miterlimit="10"/>
<path d="M180.4 195.664L176.7 216.964" stroke="#ffffff80" stroke-miterlimit="10"/>
<path d="M148.3 187.064L140.9 207.364" stroke="#ffffff80" stroke-miterlimit="10"/>
<path d="M118.1 172.964L107.3 191.664" stroke="#ffffff80" stroke-miterlimit="10"/>
<path d="M90.7999 153.864L76.8999 170.464" stroke="#ffffff80" stroke-miterlimit="10"/>
<path d="M67.2999 130.364L50.6999 144.264" stroke="#ffffff80" stroke-miterlimit="10"/>
<path d="M48.2 103.064L29.4999 113.864" stroke="#ffffff80" stroke-miterlimit="10"/>
<path d="M34.1 72.8643L13.8 80.2643" stroke="#ffffff80" stroke-miterlimit="10"/>
<path d="M25.4999 40.7642L4.19995 44.4642" stroke="#ffffff80" stroke-miterlimit="10"/>
<path d="M22.6 7.56396L0.999969 7.56396" stroke="#ffffff80" stroke-miterlimit="10"/>
<path d="M426.2 7.56396L418.3 7.56396" stroke="#ffffff80" stroke-miterlimit="10"/>
<path d="M426.2 11.2641L418.2 11.1641" stroke="#ffffff80" stroke-miterlimit="10"/>
<path d="M426.1 14.9642L418.1 14.7642" stroke="#ffffff80" stroke-miterlimit="10"/>
<path d="M425.9 18.6642L418 18.2642" stroke="#ffffff80" stroke-miterlimit="10"/>
<path d="M425.7 22.3643L417.8 21.8643" stroke="#ffffff80" stroke-miterlimit="10"/>
<path d="M425.4 26.0639L417.5 25.4639" stroke="#ffffff80" stroke-miterlimit="10"/>
<path d="M425 29.7639L417.1 28.9639" stroke="#ffffff80" stroke-miterlimit="10"/>
<path d="M424.6 33.464L416.7 32.564" stroke="#ffffff80" stroke-miterlimit="10"/>
<path d="M424.1 37.164L416.3 36.064" stroke="#ffffff80" stroke-miterlimit="10"/>
<path d="M423.6 40.864L415.7 39.564" stroke="#ffffff80" stroke-miterlimit="10"/>
<path d="M423 44.4641L415.2 43.1641" stroke="#ffffff80" stroke-miterlimit="10"/>
<path d="M422.3 48.1641L414.5 46.6641" stroke="#ffffff80" stroke-miterlimit="10"/>
<path d="M421.6 51.7641L413.8 50.1641" stroke="#ffffff80" stroke-miterlimit="10"/>
<path d="M420.8 55.3641L413 53.6641" stroke="#ffffff80" stroke-miterlimit="10"/>
<path d="M419.9 59.064L412.2 57.064" stroke="#ffffff80" stroke-miterlimit="10"/>
<path d="M419 62.564L411.3 60.564" stroke="#ffffff80" stroke-miterlimit="10"/>
<path d="M418 66.1639L410.3 63.9639" stroke="#ffffff80" stroke-miterlimit="10"/>
<path d="M416.9 69.7639L409.3 67.4639" stroke="#ffffff80" stroke-miterlimit="10"/>
<path d="M415.8 73.2643L408.2 70.8643" stroke="#ffffff80" stroke-miterlimit="10"/>
<path d="M414.6 76.7641L407.1 74.1641" stroke="#ffffff80" stroke-miterlimit="10"/>
<path d="M413.4 80.264L405.9 77.564" stroke="#ffffff80" stroke-miterlimit="10"/>
<path d="M412.1 83.7639L404.7 80.9639" stroke="#ffffff80" stroke-miterlimit="10"/>
<path d="M410.7 87.2642L403.4 84.2642" stroke="#ffffff80" stroke-miterlimit="10"/>
<path d="M409.3 90.664L402 87.564" stroke="#ffffff80" stroke-miterlimit="10"/>
<path d="M407.8 94.0643L400.6 90.8643" stroke="#ffffff80" stroke-miterlimit="10"/>
<path d="M406.3 97.464L399.1 94.064" stroke="#ffffff80" stroke-miterlimit="10"/>
<path d="M404.7 100.764L397.5 97.2642" stroke="#ffffff80" stroke-miterlimit="10"/>
<path d="M403 104.064L396 100.464" stroke="#ffffff80" stroke-miterlimit="10"/>
<path d="M401.3 107.364L394.3 103.664" stroke="#ffffff80" stroke-miterlimit="10"/>
<path d="M399.5 110.664L392.6 106.764" stroke="#ffffff80" stroke-miterlimit="10"/>
<path d="M397.7 113.864L390.8 109.864" stroke="#ffffff80" stroke-miterlimit="10"/>
<path d="M395.8 117.064L389 112.964" stroke="#ffffff80" stroke-miterlimit="10"/>
<path d="M393.9 120.264L387.2 116.064" stroke="#ffffff80" stroke-miterlimit="10"/>
<path d="M391.9 123.364L385.2 119.064" stroke="#ffffff80" stroke-miterlimit="10"/>
<path d="M389.9 126.464L383.3 122.064" stroke="#ffffff80" stroke-miterlimit="10"/>
<path d="M387.8 129.564L381.2 124.964" stroke="#ffffff80" stroke-miterlimit="10"/>
<path d="M385.6 132.564L379.2 127.864" stroke="#ffffff80" stroke-miterlimit="10"/>
<path d="M383.4 135.564L377 130.764" stroke="#ffffff80" stroke-miterlimit="10"/>
<path d="M381.1 138.464L374.9 133.564" stroke="#ffffff80" stroke-miterlimit="10"/>
<path d="M378.8 141.364L372.7 136.364" stroke="#ffffff80" stroke-miterlimit="10"/>
<path d="M376.5 144.264L370.4 139.164" stroke="#ffffff80" stroke-miterlimit="10"/>
<path d="M374.1 147.064L368.1 141.864" stroke="#ffffff80" stroke-miterlimit="10"/>
<path d="M371.6 149.864L365.7 144.564" stroke="#ffffff80" stroke-miterlimit="10"/>
<path d="M369.1 152.564L363.3 147.164" stroke="#ffffff80" stroke-miterlimit="10"/>
<path d="M366.5 155.264L360.8 149.764" stroke="#ffffff80" stroke-miterlimit="10"/>
<path d="M363.9 157.864L358.3 152.264" stroke="#ffffff80" stroke-miterlimit="10"/>
<path d="M361.3 160.464L355.8 154.764" stroke="#ffffff80" stroke-miterlimit="10"/>
<path d="M358.6 163.064L353.2 157.264" stroke="#ffffff80" stroke-miterlimit="10"/>
<path d="M355.9 165.564L350.5 159.664" stroke="#ffffff80" stroke-miterlimit="10"/>
<path d="M353.1 168.064L347.9 162.064" stroke="#ffffff80" stroke-miterlimit="10"/>
<path d="M350.3 170.464L345.2 164.364" stroke="#ffffff80" stroke-miterlimit="10"/>
<path d="M347.4 172.764L342.4 166.664" stroke="#ffffff80" stroke-miterlimit="10"/>
<path d="M344.5 175.064L339.6 168.864" stroke="#ffffff80" stroke-miterlimit="10"/>
<path d="M341.5 177.364L336.8 171.064" stroke="#ffffff80" stroke-miterlimit="10"/>
<path d="M338.6 179.564L333.9 173.164" stroke="#ffffff80" stroke-miterlimit="10"/>
<path d="M335.5 181.764L331 175.264" stroke="#ffffff80" stroke-miterlimit="10"/>
<path d="M332.5 183.864L328 177.264" stroke="#ffffff80" stroke-miterlimit="10"/>
<path d="M329.4 185.864L325.1 179.264" stroke="#ffffff80" stroke-miterlimit="10"/>
<path d="M326.3 187.864L322.1 181.164" stroke="#ffffff80" stroke-miterlimit="10"/>
<path d="M323.1 189.864L319 182.964" stroke="#ffffff80" stroke-miterlimit="10"/>
<path d="M319.9 191.664L315.9 184.864" stroke="#ffffff80" stroke-miterlimit="10"/>
<path d="M316.7 193.564L312.8 186.564" stroke="#ffffff80" stroke-miterlimit="10"/>
<path d="M313.4 195.264L309.7 188.264" stroke="#ffffff80" stroke-miterlimit="10"/>
<path d="M310.1 196.964L306.5 189.964" stroke="#ffffff80" stroke-miterlimit="10"/>
<path d="M306.8 198.664L303.3 191.564" stroke="#ffffff80" stroke-miterlimit="10"/>
<path d="M303.4 200.264L300.1 193.064" stroke="#ffffff80" stroke-miterlimit="10"/>
<path d="M300.1 201.764L296.8 194.564" stroke="#ffffff80" stroke-miterlimit="10"/>
<path d="M296.7 203.264L293.6 195.964" stroke="#ffffff80" stroke-miterlimit="10"/>
<path d="M293.2 204.664L290.3 197.364" stroke="#ffffff80" stroke-miterlimit="10"/>
<path d="M289.8 206.064L286.9 198.664" stroke="#ffffff80" stroke-miterlimit="10"/>
<path d="M286.3 207.364L283.6 199.864" stroke="#ffffff80" stroke-miterlimit="10"/>
<path d="M282.8 208.564L280.2 201.064" stroke="#ffffff80" stroke-miterlimit="10"/>
<path d="M279.3 209.764L276.8 202.264" stroke="#ffffff80" stroke-miterlimit="10"/>
<path d="M275.8 210.864L273.4 203.264" stroke="#ffffff80" stroke-miterlimit="10"/>
<path d="M272.2 211.964L270 204.264" stroke="#ffffff80" stroke-miterlimit="10"/>
<path d="M268.6 212.964L266.6 205.264" stroke="#ffffff80" stroke-miterlimit="10"/>
<path d="M265 213.864L263.1 206.164" stroke="#ffffff80" stroke-miterlimit="10"/>
<path d="M261.4 214.764L259.6 206.964" stroke="#ffffff80" stroke-miterlimit="10"/>
<path d="M257.8 215.564L256.2 207.764" stroke="#ffffff80" stroke-miterlimit="10"/>
<path d="M254.2 216.264L252.7 208.464" stroke="#ffffff80" stroke-miterlimit="10"/>
<path d="M250.5 216.964L249.1 209.164" stroke="#ffffff80" stroke-miterlimit="10"/>
<path d="M246.9 217.564L245.6 209.764" stroke="#ffffff80" stroke-miterlimit="10"/>
<path d="M243.2 218.064L242.1 210.264" stroke="#ffffff80" stroke-miterlimit="10"/>
<path d="M239.5 218.564L238.5 210.764" stroke="#ffffff80" stroke-miterlimit="10"/>
<path d="M235.8 219.064L235 211.164" stroke="#ffffff80" stroke-miterlimit="10"/>
<path d="M232.1 219.364L231.4 211.464" stroke="#ffffff80" stroke-miterlimit="10"/>
<path d="M228.4 219.664L227.9 211.764" stroke="#ffffff80" stroke-miterlimit="10"/>
<path d="M224.7 219.864L224.3 211.964" stroke="#ffffff80" stroke-miterlimit="10"/>
<path d="M221 220.064L220.7 212.164" stroke="#ffffff80" stroke-miterlimit="10"/>
<path d="M217.3 220.164L217.2 212.164" stroke="#ffffff80" stroke-miterlimit="10"/>
<path d="M213.6 220.164V212.264" stroke="#ffffff80" stroke-miterlimit="10"/>
<path d="M209.9 220.164L210 212.164" stroke="#ffffff80" stroke-miterlimit="10"/>
<path d="M206.2 220.064L206.5 212.164" stroke="#ffffff80" stroke-miterlimit="10"/>
<path d="M202.5 219.864L202.9 211.964" stroke="#ffffff80" stroke-miterlimit="10"/>
<path d="M198.8 219.664L199.3 211.764" stroke="#ffffff80" stroke-miterlimit="10"/>
<path d="M195.1 219.364L195.8 211.464" stroke="#ffffff80" stroke-miterlimit="10"/>
<path d="M191.4 219.064L192.2 211.164" stroke="#ffffff80" stroke-miterlimit="10"/>
<path d="M187.7 218.564L188.7 210.764" stroke="#ffffff80" stroke-miterlimit="10"/>
<path d="M184 218.064L185.1 210.264" stroke="#ffffff80" stroke-miterlimit="10"/>
<path d="M180.3 217.564L181.6 209.764" stroke="#ffffff80" stroke-miterlimit="10"/>
<path d="M176.7 216.964L178.1 209.164" stroke="#ffffff80" stroke-miterlimit="10"/>
<path d="M173 216.264L174.6 208.464" stroke="#ffffff80" stroke-miterlimit="10"/>
<path d="M169.4 215.564L171.1 207.764" stroke="#ffffff80" stroke-miterlimit="10"/>
<path d="M165.8 214.764L167.6 206.964" stroke="#ffffff80" stroke-miterlimit="10"/>
<path d="M162.2 213.864L164.1 206.164" stroke="#ffffff80" stroke-miterlimit="10"/>
<path d="M158.6 212.964L160.6 205.264" stroke="#ffffff80" stroke-miterlimit="10"/>
<path d="M155 211.964L157.2 204.264" stroke="#ffffff80" stroke-miterlimit="10"/>
<path d="M151.4 210.864L153.8 203.264" stroke="#ffffff80" stroke-miterlimit="10"/>
<path d="M147.9 209.764L150.4 202.264" stroke="#ffffff80" stroke-miterlimit="10"/>
<path d="M144.4 208.564L147 201.064" stroke="#ffffff80" stroke-miterlimit="10"/>
<path d="M140.9 207.364L143.6 199.864" stroke="#ffffff80" stroke-miterlimit="10"/>
<path d="M137.4 206.064L140.3 198.664" stroke="#ffffff80" stroke-miterlimit="10"/>
<path d="M134 204.664L136.9 197.364" stroke="#ffffff80" stroke-miterlimit="10"/>
<path d="M130.5 203.264L133.6 195.964" stroke="#ffffff80" stroke-miterlimit="10"/>
<path d="M127.1 201.764L130.4 194.564" stroke="#ffffff80" stroke-miterlimit="10"/>
<path d="M123.8 200.264L127.1 193.064" stroke="#ffffff80" stroke-miterlimit="10"/>
<path d="M120.4 198.664L123.9 191.564" stroke="#ffffff80" stroke-miterlimit="10"/>
<path d="M117.1 196.964L120.7 189.964" stroke="#ffffff80" stroke-miterlimit="10"/>
<path d="M113.8 195.264L117.5 188.264" stroke="#ffffff80" stroke-miterlimit="10"/>
<path d="M110.5 193.564L114.4 186.564" stroke="#ffffff80" stroke-miterlimit="10"/>
<path d="M107.3 191.664L111.3 184.864" stroke="#ffffff80" stroke-miterlimit="10"/>
<path d="M104.1 189.864L108.2 182.964" stroke="#ffffff80" stroke-miterlimit="10"/>
<path d="M100.9 187.864L105.1 181.164" stroke="#ffffff80" stroke-miterlimit="10"/>
<path d="M97.8 185.864L102.1 179.264" stroke="#ffffff80" stroke-miterlimit="10"/>
<path d="M94.7 183.864L99.2 177.264" stroke="#ffffff80" stroke-miterlimit="10"/>
<path d="M91.7 181.764L96.2 175.264" stroke="#ffffff80" stroke-miterlimit="10"/>
<path d="M88.5999 179.564L93.2999 173.164" stroke="#ffffff80" stroke-miterlimit="10"/>
<path d="M85.7 177.364L90.4 171.064" stroke="#ffffff80" stroke-miterlimit="10"/>
<path d="M82.7 175.064L87.6 168.864" stroke="#ffffff80" stroke-miterlimit="10"/>
<path d="M79.7999 172.764L84.7999 166.664" stroke="#ffffff80" stroke-miterlimit="10"/>
<path d="M76.9 170.464L81.9999 164.364" stroke="#ffffff80" stroke-miterlimit="10"/>
<path d="M74.0999 168.064L79.2999 162.064" stroke="#ffffff80" stroke-miterlimit="10"/>
<path d="M71.3 165.564L76.7 159.664" stroke="#ffffff80" stroke-miterlimit="10"/>
<path d="M68.5999 163.064L73.9999 157.264" stroke="#ffffff80" stroke-miterlimit="10"/>
<path d="M65.9 160.464L71.4 154.764" stroke="#ffffff80" stroke-miterlimit="10"/>
<path d="M63.3 157.864L68.9 152.264" stroke="#ffffff80" stroke-miterlimit="10"/>
<path d="M60.7 155.264L66.4 149.764" stroke="#ffffff80" stroke-miterlimit="10"/>
<path d="M58.0999 152.564L63.9 147.164" stroke="#ffffff80" stroke-miterlimit="10"/>
<path d="M55.5999 149.864L61.4999 144.564" stroke="#ffffff80" stroke-miterlimit="10"/>
<path d="M53.2 147.064L59.1 141.864" stroke="#ffffff80" stroke-miterlimit="10"/>
<path d="M50.6999 144.264L56.7999 139.164" stroke="#ffffff80" stroke-miterlimit="10"/>
<path d="M48.4 141.364L54.6 136.364" stroke="#ffffff80" stroke-miterlimit="10"/>
<path d="M46.0999 138.464L52.2999 133.564" stroke="#ffffff80" stroke-miterlimit="10"/>
<path d="M43.8 135.564L50.2 130.764" stroke="#ffffff80" stroke-miterlimit="10"/>
<path d="M41.5999 132.564L47.9999 127.864" stroke="#ffffff80" stroke-miterlimit="10"/>
<path d="M39.4999 129.564L45.9999 124.964" stroke="#ffffff80" stroke-miterlimit="10"/>
<path d="M37.3 126.464L43.9 122.064" stroke="#ffffff80" stroke-miterlimit="10"/>
<path d="M35.3 123.364L41.9999 119.064" stroke="#ffffff80" stroke-miterlimit="10"/>
<path d="M33.3 120.264L39.9999 116.064" stroke="#ffffff80" stroke-miterlimit="10"/>
<path d="M31.4 117.064L38.2 112.964" stroke="#ffffff80" stroke-miterlimit="10"/>
<path d="M29.4999 113.864L36.4 109.864" stroke="#ffffff80" stroke-miterlimit="10"/>
<path d="M27.7 110.664L34.6 106.764" stroke="#ffffff80" stroke-miterlimit="10"/>
<path d="M25.9 107.364L32.9 103.664" stroke="#ffffff80" stroke-miterlimit="10"/>
<path d="M24.2 104.064L31.2 100.464" stroke="#ffffff80" stroke-miterlimit="10"/>
<path d="M22.4999 100.764L29.7 97.2642" stroke="#ffffff80" stroke-miterlimit="10"/>
<path d="M20.9 97.464L28.1 94.064" stroke="#ffffff80" stroke-miterlimit="10"/>
<path d="M19.4 94.0643L26.6 90.8643" stroke="#ffffff80" stroke-miterlimit="10"/>
<path d="M17.9 90.664L25.2 87.564" stroke="#ffffff80" stroke-miterlimit="10"/>
<path d="M16.4999 87.2642L23.7999 84.2642" stroke="#ffffff80" stroke-miterlimit="10"/>
<path d="M15.0999 83.7639L22.4999 80.9639" stroke="#ffffff80" stroke-miterlimit="10"/>
<path d="M13.7999 80.264L21.2999 77.564" stroke="#ffffff80" stroke-miterlimit="10"/>
<path d="M12.6 76.7641L20.1 74.1641" stroke="#ffffff80" stroke-miterlimit="10"/>
<path d="M11.4 73.2643L18.9999 70.8643" stroke="#ffffff80" stroke-miterlimit="10"/>
<path d="M10.3 69.7639L17.9 67.4639" stroke="#ffffff80" stroke-miterlimit="10"/>
<path d="M9.19995 66.1639L16.9 63.9639" stroke="#ffffff80" stroke-miterlimit="10"/>
<path d="M8.19995 62.564L15.9 60.564" stroke="#ffffff80" stroke-miterlimit="10"/>
<path d="M7.29996 59.064L14.9999 57.064" stroke="#ffffff80" stroke-miterlimit="10"/>
<path d="M6.49994 55.3641L14.2 53.6641" stroke="#ffffff80" stroke-miterlimit="10"/>
<path d="M5.59995 51.7641L13.4 50.1641" stroke="#ffffff80" stroke-miterlimit="10"/>
<path d="M4.89996 48.1641L12.7 46.6641" stroke="#ffffff80" stroke-miterlimit="10"/>
<path d="M4.19998 44.4641L12.1 43.1641" stroke="#ffffff80" stroke-miterlimit="10"/>
<path d="M3.59995 40.864L11.4999 39.564" stroke="#ffffff80" stroke-miterlimit="10"/>
<path d="M3.09995 37.164L10.9 36.064" stroke="#ffffff80" stroke-miterlimit="10"/>
<path d="M2.59995 33.464L10.4999 32.564" stroke="#ffffff80" stroke-miterlimit="10"/>
<path d="M2.19998 29.7639L10.1 28.9639" stroke="#ffffff80" stroke-miterlimit="10"/>
<path d="M1.79996 26.0639L9.69995 25.4639" stroke="#ffffff80" stroke-miterlimit="10"/>
<path d="M1.49994 22.3643L9.39996 21.8643" stroke="#ffffff80" stroke-miterlimit="10"/>
<path d="M1.29996 18.6642L9.19995 18.2642" stroke="#ffffff80" stroke-miterlimit="10"/>
<path d="M1.09998 14.9642L9.09998 14.7642" stroke="#ffffff80" stroke-miterlimit="10"/>
<path d="M0.999939 11.2641L8.99994 11.1641" stroke="#ffffff80" stroke-miterlimit="10"/>
<path d="M396.33 7.60872C396.33 6.15272 394.89 5.75272 393.402 5.75272C391.914 5.75272 390.466 6.15272 390.466 7.60872C390.466 9.06472 391.914 9.46472 393.402 9.46472C394.89 9.46472 396.33 9.06472 396.33 7.60872ZM395.722 7.60872C395.722 7.87272 395.634 8.08872 395.458 8.25672L391.754 6.68072C392.154 6.49672 392.722 6.40872 393.402 6.40872C394.81 6.40872 395.722 6.78472 395.722 7.60872ZM393.402 8.80872C391.994 8.80872 391.074 8.43272 391.074 7.60872C391.074 7.38472 391.138 7.19272 391.266 7.04072L394.93 8.58472C394.538 8.73672 394.018 8.80872 393.402 8.80872Z" fill="#ffffff80"/>
<path d="M388.311 35.8828L388.189 36.5761L393.759 37.558L393.851 37.038C392.971 36.6391 392.911 36.515 393.085 35.2053L392.565 35.1136L392.306 36.5869L388.311 35.8828ZM393.078 41.7932C393.33 40.3593 391.982 39.7154 390.516 39.4571C389.051 39.1988 387.556 39.3413 387.303 40.7752C387.05 42.2091 388.407 42.8544 389.872 43.1127C391.337 43.371 392.825 43.2271 393.078 41.7932ZM392.479 41.6876C392.433 41.9476 392.309 42.1451 392.106 42.28L388.732 40.0849C389.158 39.9731 389.733 39.9851 390.402 40.1031C391.789 40.3476 392.622 40.8762 392.479 41.6876ZM389.986 42.4666C388.599 42.2222 387.758 41.6922 387.902 40.8807C387.94 40.6601 388.037 40.4822 388.189 40.3547L391.529 42.5113C391.117 42.5929 390.592 42.5736 389.986 42.4666Z" fill="#ffffff80"/>
<path d="M380.736 67.8093L381.756 65.0052C382.236 65.2309 382.505 65.6609 382.614 66.4155L382.738 67.3123C382.863 68.209 383.255 68.7689 383.932 69.0152C384.812 69.3353 385.723 69.0286 386.115 67.9536C386.547 66.7658 386.089 65.9182 384.9 65.4428L384.659 66.1044C385.414 66.4388 385.826 66.9461 385.544 67.7204C385.3 68.3895 384.772 68.5547 384.178 68.3386C383.72 68.1717 383.469 67.808 383.378 67.2386L383.249 66.3999C383.049 65.1013 382.651 64.5817 381.448 64.0503L380.157 67.5986L380.736 67.8093ZM384.481 72.4429C384.979 71.0746 383.762 70.2063 382.364 69.6974C380.966 69.1885 379.468 69.0692 378.97 70.4374C378.472 71.8056 379.696 72.6767 381.095 73.1856C382.493 73.6945 383.983 73.8111 384.481 72.4429ZM383.909 72.2349C383.819 72.483 383.663 72.6559 383.44 72.7536L380.498 70.0058C380.937 69.9697 381.501 70.0813 382.14 70.3138C383.463 70.7954 384.191 71.4606 383.909 72.2349ZM381.319 72.5691C379.996 72.0876 379.26 71.4196 379.542 70.6453C379.618 70.4348 379.744 70.2763 379.916 70.1772L382.831 72.8812C382.411 72.89 381.898 72.7798 381.319 72.5691Z" fill="#ffffff80"/>
<path d="M370.336 95.3511C369.952 96.0162 369.437 96.1895 368.834 95.8415C368.307 95.5375 368.044 94.9697 368.452 94.2631C368.856 93.5633 369.4 93.4527 370.092 93.806L370.448 93.1894C369.37 92.6408 368.526 92.902 367.93 93.9343C367.366 94.9111 367.543 95.9181 368.485 96.4621C369.101 96.8181 369.634 96.7748 370.167 96.3158C370.071 96.8978 370.335 97.3366 370.8 97.6046C371.693 98.1206 372.489 97.7669 372.997 96.8871C373.565 95.9033 373.352 95.0232 372.328 94.4133L371.976 95.023C372.691 95.4638 372.823 95.9556 372.463 96.5791C372.171 97.0848 371.682 97.292 371.135 96.976C370.435 96.572 370.609 95.9983 371.052 95.3116L370.532 95.0116L370.336 95.3511ZM370.528 101.163C371.256 99.9019 370.209 98.8355 368.92 98.0915C367.632 97.3475 366.178 96.9699 365.45 98.2308C364.722 99.4917 365.776 100.562 367.064 101.306C368.353 102.05 369.8 102.424 370.528 101.163ZM370.002 100.859C369.87 101.087 369.685 101.23 369.449 101.288L367.029 98.0711C367.468 98.1118 368.004 98.3196 368.592 98.6596C369.812 99.3636 370.414 100.145 370.002 100.859ZM367.392 100.738C366.173 100.034 365.564 99.2484 365.976 98.5348C366.088 98.3408 366.24 98.2065 366.427 98.1389L368.828 101.308C368.412 101.244 367.926 101.046 367.392 100.738Z" fill="#ffffff80"/>
<path d="M350.507 119.8L350.07 120.321L351.16 121.236L350.62 121.879L351.086 122.27L351.626 121.627L354.39 123.946L354.786 123.474L353.702 119.327L353.15 118.864L351.597 120.715L350.507 119.8ZM353.241 119.703L354.049 122.772L352.063 121.106L353.241 119.703ZM351.997 126.922C352.933 125.806 352.087 124.574 350.947 123.618C349.808 122.661 348.441 122.037 347.505 123.152C346.57 124.267 347.422 125.505 348.561 126.461C349.701 127.418 351.061 128.037 351.997 126.922ZM351.532 126.531C351.362 126.733 351.156 126.842 350.913 126.857L349.089 123.269C349.513 123.385 350.005 123.683 350.526 124.12C351.604 125.025 352.061 125.9 351.532 126.531ZM348.983 125.959C347.905 125.054 347.442 124.174 347.971 123.543C348.115 123.371 348.288 123.265 348.483 123.231L350.297 126.769C349.9 126.634 349.455 126.355 348.983 125.959Z" fill="#ffffff80"/>
<path d="M333.864 145.105L332.233 142.515L331.743 142.926C331.768 143.417 331.619 143.761 331.276 144.049C330.645 144.579 330.007 144.404 329.508 143.81C329.009 143.215 328.973 142.525 329.592 142.006C330.058 141.615 330.555 141.584 331.063 141.941L331.608 141.483C330.681 140.653 329.693 141.117 329.196 141.534C328.271 142.31 328.242 143.421 328.977 144.297C329.723 145.185 330.792 145.228 331.565 144.58C331.859 144.333 332.097 144.008 332.155 143.604L333.027 145.003L331.225 146.515L331.621 146.987L333.864 145.105ZM329.116 149.256C330.231 148.32 329.612 146.96 328.656 145.82C327.699 144.68 326.462 143.828 325.347 144.764C324.231 145.7 324.856 147.066 325.812 148.206C326.769 149.346 328.001 150.192 329.116 149.256ZM328.725 148.79C328.523 148.96 328.301 149.031 328.059 149.004L326.886 145.154C327.284 145.342 327.716 145.721 328.153 146.242C329.058 147.32 329.357 148.26 328.725 148.79ZM326.315 147.784C325.41 146.706 325.106 145.759 325.738 145.23C325.909 145.086 326.097 145.011 326.296 145.012L327.469 148.811C327.1 148.608 326.711 148.256 326.315 147.784Z" fill="#ffffff80"/>
<path d="M304.728 164.235C305.315 164.948 306.071 165.122 306.819 164.69C307.969 164.026 308.047 162.688 307.083 161.018C306.339 159.73 305.266 158.815 303.998 159.547C302.973 160.139 302.879 161.256 303.383 162.129C303.851 162.94 304.798 163.381 305.727 162.845C306.274 162.529 306.572 162.006 306.567 161.501C307.283 162.741 307.299 163.729 306.565 164.153C306.066 164.441 305.664 164.257 305.33 163.887L304.728 164.235ZM305.569 162.252C304.96 162.604 304.323 162.334 303.967 161.718C303.607 161.094 303.692 160.408 304.301 160.056C304.883 159.72 305.589 159.95 305.949 160.574C306.305 161.19 306.151 161.916 305.569 162.252ZM302.752 167.038C304.012 166.31 303.639 164.863 302.895 163.575C302.151 162.286 301.08 161.232 299.82 161.96C298.559 162.688 298.936 164.142 299.68 165.431C300.424 166.719 301.491 167.766 302.752 167.038ZM302.448 166.512C302.219 166.644 301.988 166.676 301.754 166.607L301.267 162.612C301.627 162.866 301.987 163.314 302.327 163.903C303.031 165.122 303.161 166.1 302.448 166.512ZM300.248 165.103C299.544 163.883 299.41 162.899 300.124 162.487C300.318 162.375 300.516 162.334 300.711 162.369L301.206 166.314C300.879 166.051 300.556 165.636 300.248 165.103Z" fill="#ffffff80"/>
<path d="M280.124 177.728L279.914 177.149L276.997 178.211C277.552 176.042 277.8 175.109 277.52 172.725L276.813 172.982C277.152 174.894 276.939 176.392 276.358 178.468L276.561 179.025L280.124 177.728ZM273.739 180.188C275.107 179.69 274.991 178.2 274.482 176.802C273.973 175.403 273.102 174.179 271.734 174.677C270.366 175.175 270.485 176.673 270.994 178.071C271.503 179.469 272.371 180.686 273.739 180.188ZM273.531 179.616C273.283 179.707 273.05 179.698 272.832 179.59L273.046 175.57C273.356 175.883 273.633 176.387 273.865 177.026C274.347 178.349 274.306 179.335 273.531 179.616ZM271.61 177.847C271.129 176.524 271.167 175.531 271.942 175.249C272.152 175.172 272.354 175.167 272.541 175.235L272.343 179.206C272.066 178.89 271.821 178.426 271.61 177.847Z" fill="#ffffff80"/>
<path d="M246.286 184.598C245.776 185.07 245.642 185.37 245.735 185.897C245.891 186.78 246.676 187.275 247.677 187.099C248.646 186.928 249.248 186.196 249.093 185.314C248.99 184.731 248.68 184.493 248.121 184.275C248.704 183.847 248.946 183.333 248.84 182.726C248.659 181.702 247.762 181.129 246.659 181.324C245.532 181.522 244.909 182.363 245.089 183.387C245.196 183.994 245.592 184.396 246.286 184.598ZM247.574 186.516C246.96 186.624 246.502 186.331 246.402 185.764C246.309 185.236 246.665 184.816 247.256 184.711C247.926 184.593 248.337 184.943 248.422 185.424C248.51 185.928 248.228 186.4 247.574 186.516ZM247.153 184.128C246.507 184.242 245.881 183.963 245.755 183.246C245.635 182.568 246.053 182.032 246.777 181.904C247.439 181.787 248.045 182.135 248.164 182.813C248.288 183.514 247.807 184.013 247.153 184.128ZM242.807 187.957C244.241 187.704 244.385 186.217 244.126 184.751C243.868 183.286 243.223 181.929 241.789 182.182C240.355 182.435 240.212 183.93 240.471 185.396C240.729 186.861 241.373 188.21 242.807 187.957ZM242.701 187.358C242.441 187.404 242.213 187.355 242.017 187.211L242.926 183.29C243.177 183.652 243.362 184.196 243.48 184.865C243.725 186.252 243.513 187.215 242.701 187.358ZM241.117 185.282C240.872 183.895 241.083 182.924 241.894 182.781C242.115 182.742 242.315 182.772 242.487 182.871L241.603 186.748C241.385 186.388 241.224 185.889 241.117 185.282Z" fill="#ffffff80"/>
<path d="M217.851 185.89C217.699 184.978 217.131 184.45 216.267 184.45C214.939 184.45 214.203 185.57 214.203 187.498C214.203 188.986 214.675 190.314 216.139 190.314C217.323 190.314 217.963 189.394 217.963 188.386C217.963 187.45 217.363 186.594 216.291 186.594C215.659 186.594 215.139 186.898 214.891 187.338C214.891 185.906 215.371 185.042 216.219 185.042C216.795 185.042 217.051 185.402 217.155 185.89H217.851ZM216.131 187.186C216.835 187.186 217.251 187.738 217.251 188.45C217.251 189.17 216.835 189.722 216.131 189.722C215.459 189.722 214.963 189.17 214.963 188.45C214.963 187.738 215.459 187.186 216.131 187.186ZM211.073 190.314C212.529 190.314 212.929 188.874 212.929 187.386C212.929 185.898 212.529 184.45 211.073 184.45C209.617 184.45 209.217 185.898 209.217 187.386C209.217 188.874 209.617 190.314 211.073 190.314ZM211.073 189.706C210.809 189.706 210.593 189.618 210.425 189.442L212.001 185.738C212.185 186.138 212.273 186.706 212.273 187.386C212.273 188.794 211.897 189.706 211.073 189.706ZM209.873 187.386C209.873 185.978 210.249 185.058 211.073 185.058C211.297 185.058 211.489 185.122 211.641 185.25L210.097 188.914C209.945 188.522 209.873 188.002 209.873 187.386Z" fill="#ffffff80"/>
<path d="M187.71 182.717L187.016 182.595L186.034 188.165L186.554 188.256C186.953 187.376 187.077 187.317 188.387 187.491L188.479 186.971L187.005 186.711L187.71 182.717ZM181.799 187.483C183.233 187.736 183.877 186.387 184.135 184.922C184.394 183.456 184.251 181.961 182.817 181.708C181.383 181.455 180.738 182.812 180.48 184.277C180.221 185.743 180.365 187.23 181.799 187.483ZM181.905 186.884C181.645 186.838 181.447 186.714 181.312 186.512L183.507 183.138C183.619 183.564 183.607 184.138 183.489 184.808C183.245 186.194 182.716 187.027 181.905 186.884ZM181.126 184.391C181.37 183.005 181.9 182.164 182.712 182.307C182.932 182.346 183.11 182.442 183.238 182.595L181.081 185.935C180.999 185.522 181.019 184.998 181.126 184.391ZM176.929 186.625C178.363 186.877 179.007 185.529 179.265 184.063C179.523 182.598 179.381 181.102 177.947 180.85C176.513 180.597 175.868 181.953 175.61 183.419C175.351 184.884 175.495 186.372 176.929 186.625ZM177.035 186.026C176.775 185.98 176.577 185.856 176.442 185.653L178.637 182.279C178.749 182.705 178.737 183.28 178.619 183.949C178.375 185.336 177.846 186.169 177.035 186.026ZM176.256 183.533C176.5 182.146 177.03 181.305 177.841 181.448C178.062 181.487 178.24 181.584 178.367 181.736L176.211 185.076C176.129 184.664 176.149 184.139 176.256 183.533Z" fill="#ffffff80"/>
<path d="M157.688 175.632L157.027 175.391L155.092 180.706L155.589 180.887C156.134 180.089 156.267 180.053 157.526 180.451L157.707 179.955L156.301 179.444L157.688 175.632ZM153.041 173.941L152.38 173.7L150.445 179.015L150.941 179.196C151.487 178.398 151.62 178.361 152.879 178.76L153.06 178.264L151.654 177.752L153.041 173.941ZM146.393 177.608C147.761 178.106 148.629 176.89 149.138 175.492C149.647 174.093 149.766 172.596 148.398 172.098C147.03 171.6 146.159 172.824 145.65 174.222C145.141 175.62 145.025 177.11 146.393 177.608ZM146.601 177.037C146.353 176.947 146.18 176.79 146.082 176.567L148.83 173.626C148.866 174.064 148.754 174.628 148.522 175.267C148.04 176.59 147.375 177.319 146.601 177.037ZM146.267 174.446C146.748 173.123 147.416 172.387 148.19 172.669C148.401 172.746 148.559 172.872 148.658 173.044L145.954 175.959C145.946 175.539 146.056 175.025 146.267 174.446Z" fill="#ffffff80"/>
<path d="M129.324 163.276L128.715 162.924L125.887 167.822L126.344 168.086C127.02 167.395 127.157 167.382 128.328 167.993L128.592 167.536L127.296 166.788L129.324 163.276ZM123.071 160.376L125.655 161.868C125.349 162.302 124.879 162.492 124.117 162.468L123.213 162.435C122.308 162.402 121.688 162.691 121.328 163.315C120.86 164.125 121.004 165.076 121.995 165.648C123.089 166.28 124.003 165.977 124.678 164.888L124.068 164.536C123.608 165.222 123.037 165.539 122.323 165.127C121.707 164.771 121.636 164.222 121.952 163.675C122.196 163.252 122.597 163.068 123.174 163.078L124.022 163.096C125.336 163.125 125.917 162.823 126.649 161.731L123.379 159.843L123.071 160.376ZM117.857 163.26C119.118 163.988 120.185 162.941 120.929 161.652C121.673 160.363 122.05 158.91 120.789 158.182C119.529 157.454 118.458 158.507 117.714 159.796C116.97 161.085 116.597 162.532 117.857 163.26ZM118.161 162.733C117.933 162.601 117.79 162.417 117.732 162.181L120.949 159.761C120.908 160.199 120.701 160.735 120.361 161.324C119.657 162.543 118.875 163.145 118.161 162.733ZM118.282 160.124C118.986 158.905 119.772 158.296 120.485 158.708C120.679 158.82 120.814 158.971 120.881 159.158L117.712 161.559C117.777 161.144 117.974 160.658 118.282 160.124Z" fill="#ffffff80"/>
<path d="M103.639 146.379L103.1 145.927L99.4642 150.259L99.8687 150.599C100.654 150.036 100.791 150.047 101.839 150.852L102.178 150.448L101.032 149.486L103.639 146.379ZM98.106 145.193C97.5177 144.699 97.4366 144.161 97.884 143.628C98.2748 143.162 98.8797 143.001 99.5048 143.526C100.124 144.045 100.138 144.601 99.67 145.221L100.215 145.678C100.943 144.712 100.832 143.836 99.9191 143.07C99.0551 142.344 98.0328 142.343 97.3335 143.176C96.8758 143.722 96.8258 144.254 97.1853 144.859C96.6288 144.663 96.1508 144.847 95.8063 145.258C95.1429 146.048 95.3531 146.893 96.1313 147.546C97.0015 148.276 97.9051 148.22 98.6836 147.317L98.1443 146.865C97.586 147.493 97.0788 147.537 96.5273 147.074C96.08 146.699 95.9609 146.181 96.3671 145.697C96.8865 145.078 97.4213 145.349 98.0206 145.904L98.4063 145.445L98.106 145.193ZM92.3494 144.372C93.4647 145.308 94.6967 144.462 95.6532 143.322C96.6097 142.183 97.234 140.816 96.1187 139.88C95.0034 138.945 93.7663 139.797 92.8098 140.936C91.8533 142.076 91.2341 143.436 92.3494 144.372ZM92.7402 143.907C92.538 143.737 92.4291 143.531 92.4135 143.288L96.0017 141.464C95.8855 141.888 95.5878 142.38 95.1507 142.901C94.2456 143.979 93.3714 144.436 92.7402 143.907ZM93.3123 141.358C94.2173 140.28 95.0967 139.816 95.7279 140.346C95.8995 140.49 96.0054 140.663 96.0396 140.858L92.5017 142.672C92.6372 142.275 92.9163 141.83 93.3123 141.358Z" fill="#ffffff80"/>
<path d="M81.0922 125.118L80.6397 124.578L76.3072 128.214L76.6466 128.619C77.5178 128.201 77.6511 128.235 78.5425 129.21L78.9469 128.871L77.9853 127.725L81.0922 125.118ZM77.5945 120.95L77.1574 120.429L76.0666 121.344L75.5267 120.701L75.061 121.091L75.6009 121.735L72.8372 124.054L73.2331 124.526L77.5052 124.178L78.0567 123.716L76.5037 121.865L77.5945 120.95ZM77.2156 123.659L74.0525 123.922L76.038 122.256L77.2156 123.659ZM70.3221 121.181C71.258 122.297 72.6182 121.678 73.758 120.721C74.8978 119.765 75.7499 118.527 74.814 117.412C73.878 116.297 72.5117 116.921 71.3719 117.878C70.2321 118.834 69.3862 120.066 70.3221 121.181ZM70.7879 120.791C70.6182 120.588 70.5467 120.366 70.5735 120.125L74.4239 118.951C74.2357 119.349 73.8572 119.781 73.3363 120.219C72.2578 121.124 71.3175 121.422 70.7879 120.791ZM71.7936 118.38C72.8721 117.475 73.8186 117.172 74.3482 117.803C74.4922 117.975 74.5666 118.163 74.5663 118.361L70.7672 119.534C70.9697 119.166 71.3218 118.776 71.7936 118.38Z" fill="#ffffff80"/>
<path d="M62.8193 100.315L62.4673 99.7055L57.5692 102.533L57.8332 102.991C58.7638 102.731 58.889 102.788 59.5975 103.903L60.0548 103.639L59.3068 102.343L62.8193 100.315ZM56.1599 99.9647L58.9937 98.8089L58.6737 98.2547C58.1862 98.1944 57.8727 97.9874 57.6487 97.5994C57.2367 96.8858 57.5198 96.2882 58.1918 95.9002C58.8638 95.5122 59.5499 95.5965 59.9539 96.2962C60.2579 96.8227 60.2015 97.3171 59.7619 97.7557L60.1179 98.3723C61.0968 97.6039 60.8113 96.5494 60.4873 95.9882C59.8833 94.9421 58.7948 94.7207 57.8041 95.2927C56.7995 95.8727 56.572 96.9186 57.076 97.7915C57.268 98.124 57.5472 98.4155 57.9347 98.5428L56.4054 99.1579L55.2294 97.121L54.6959 97.429L56.1599 99.9647ZM52.8964 94.5683C53.6244 95.8292 55.0715 95.4556 56.3601 94.7116C57.6487 93.9676 58.7027 92.8972 57.9747 91.6363C57.2467 90.3754 55.7927 90.753 54.5041 91.497C53.2155 92.241 52.1684 93.3074 52.8964 94.5683ZM53.423 94.2643C53.291 94.0357 53.2592 93.8046 53.3276 93.5711L57.3233 93.0839C57.0689 93.4433 56.621 93.8035 56.0321 94.1435C54.8128 94.8475 53.835 94.9779 53.423 94.2643ZM54.8321 92.0651C56.0514 91.3611 57.0361 91.2267 57.4481 91.9403C57.5601 92.1343 57.6007 92.3325 57.5659 92.5282L53.6208 93.0231C53.8843 92.6954 54.2986 92.3731 54.8321 92.0651Z" fill="#ffffff80"/>
<path d="M48.9144 72.7538L48.6737 72.0923L43.3587 74.0266L43.5393 74.5228C44.5009 74.4282 44.6144 74.5061 45.1185 75.7273L45.6147 75.5468L45.103 74.141L48.9144 72.7538ZM42.5583 67.8038C41.7532 68.2586 41.4513 68.9729 41.7468 69.7848C42.201 71.0327 43.5052 71.3413 45.3169 70.6819C46.7152 70.173 47.8017 69.2753 47.301 67.8996C46.8961 66.787 45.8127 66.5002 44.8655 66.8449C43.9859 67.1651 43.3867 68.0216 43.7533 69.029C43.9695 69.6229 44.433 70.0076 44.9313 70.0901C43.5856 70.5799 42.6096 70.4243 42.3195 69.6274C42.1226 69.0862 42.3733 68.7225 42.7963 68.4579L42.5583 67.8038ZM44.3644 68.9769C44.1236 68.3153 44.5 67.7356 45.1691 67.4921C45.8457 67.2459 46.5067 67.448 46.7474 68.1096C46.9773 68.741 46.6282 69.3959 45.9516 69.6422C45.2825 69.8857 44.5942 69.6084 44.3644 68.9769ZM40.1403 65.3707C40.6383 66.7389 42.1283 66.6223 43.5265 66.1134C44.9248 65.6045 46.1487 64.7334 45.6508 63.3652C45.1528 61.997 43.6553 62.1164 42.257 62.6253C40.8588 63.1342 39.6424 64.0025 40.1403 65.3707ZM40.7117 65.1628C40.6214 64.9147 40.6302 64.6816 40.7382 64.4636L44.7578 64.6778C44.4448 64.9875 43.9412 65.2644 43.3022 65.497C41.9791 65.9785 40.9935 65.9371 40.7117 65.1628ZM42.4814 63.2417C43.8045 62.7602 44.7976 62.7989 45.0794 63.5732C45.156 63.7837 45.1615 63.986 45.0932 64.1726L41.1221 63.9748C41.4385 63.6979 41.9025 63.4524 42.4814 63.2417Z" fill="#ffffff80"/>
<path d="M40.1542 43.1213L40.032 42.428L34.4619 43.4099L34.5536 43.9298C35.517 44.0037 35.6152 44.1001 35.8996 45.3903L36.4195 45.2987L36.1598 43.8254L40.1542 43.1213ZM34.1095 41.0418L34.7161 40.9349L34.1773 37.8781C36.2166 38.802 37.0924 39.2082 39.4887 39.3462L39.3582 38.6057C37.4169 38.6067 35.9776 38.1375 34.0342 37.2047L33.4512 37.3075L34.1095 41.0418ZM32.7958 34.3267C33.0485 35.7606 34.5361 35.9045 36.0015 35.6462C37.4668 35.3879 38.8234 34.7426 38.5706 33.3087C38.3179 31.8749 36.8224 31.7323 35.3571 31.9906C33.8917 32.2489 32.543 32.8929 32.7958 34.3267ZM33.3945 34.2212C33.3487 33.9612 33.3979 33.7332 33.542 33.5372L37.4633 34.4462C37.1013 34.6969 36.5572 34.8821 35.8876 35.0002C34.501 35.2446 33.5376 35.0326 33.3945 34.2212ZM35.4709 32.6367C36.8575 32.3922 37.8288 32.6028 37.9719 33.4143C38.0108 33.6349 37.9811 33.8351 37.8814 34.007L34.0051 33.1225C34.3647 32.9048 34.8643 32.7436 35.4709 32.6367Z" fill="#ffffff80"/>
<path d="M36.5951 12.494V11.79H30.9391V12.318C31.8751 12.558 31.9551 12.67 32.0111 13.99H32.5391V12.494H36.5951ZM33.5791 6.56466C33.2031 5.98066 32.9311 5.79666 32.3951 5.79666C31.4991 5.79666 30.8751 6.48466 30.8751 7.50066C30.8751 8.48466 31.4911 9.20466 32.3871 9.20466C32.9791 9.20466 33.2671 8.94066 33.5791 8.42866C33.8991 9.07666 34.3631 9.40466 34.9791 9.40466C36.0191 9.40466 36.7391 8.62066 36.7391 7.50066C36.7391 6.35666 36.0191 5.59666 34.9791 5.59666C34.3631 5.59666 33.8991 5.91666 33.5791 6.56466ZM31.4671 7.50066C31.4671 6.87666 31.8351 6.47666 32.4111 6.47666C32.9471 6.47666 33.2991 6.90066 33.2991 7.50066C33.2991 8.18066 32.8831 8.52466 32.3951 8.52466C31.8831 8.52466 31.4671 8.16466 31.4671 7.50066ZM33.8911 7.50066C33.8911 6.84466 34.2751 6.27666 35.0031 6.27666C35.6911 6.27666 36.1471 6.78066 36.1471 7.51666C36.1471 8.18866 35.6991 8.72466 35.0111 8.72466C34.2991 8.72466 33.8911 8.16466 33.8911 7.50066ZM30.8751 2.55534C30.8751 4.01134 32.3151 4.41134 33.8031 4.41134C35.2911 4.41134 36.7391 4.01134 36.7391 2.55534C36.7391 1.09934 35.2911 0.699344 33.8031 0.699344C32.3151 0.699344 30.8751 1.09934 30.8751 2.55534ZM31.4831 2.55534C31.4831 2.29134 31.5711 2.07534 31.7471 1.90734L35.4511 3.48334C35.0511 3.66734 34.4831 3.75534 33.8031 3.75534C32.3951 3.75534 31.4831 3.37934 31.4831 2.55534ZM33.8031 1.35534C35.2111 1.35534 36.1311 1.73134 36.1311 2.55534C36.1311 2.77934 36.0671 2.97134 35.9391 3.12334L32.2751 1.57934C32.6671 1.42734 33.1871 1.35534 33.8031 1.35534Z" fill="#ffffff80"/>
<path d="M381 7.56396L367.2 7.56396" stroke="#ffffff80" stroke-miterlimit="10"/>
<path d="M342.8 7.56396L227.6 7.56396" stroke="#ffffff80" stroke-miterlimit="10"/>
<path d="M340.8 30.064L227.4 10.064" stroke="#ffffff80" stroke-miterlimit="10"/>
<path d="M335 51.7643L226.8 12.3643" stroke="#ffffff80" stroke-miterlimit="10"/>
<path d="M325.5 72.164L225.7 14.564" stroke="#ffffff80" stroke-miterlimit="10"/>
<path d="M312.6 90.664L224.3 16.564" stroke="#ffffff80" stroke-miterlimit="10"/>
<path d="M296.6 106.564L222.6 18.3643" stroke="#ffffff80" stroke-miterlimit="10"/>
<path d="M278.2 119.464L220.6 19.7642" stroke="#ffffff80" stroke-miterlimit="10"/>
<path d="M257.8 128.964L218.4 20.7642" stroke="#ffffff80" stroke-miterlimit="10"/>
<path d="M236 134.764L216 21.3643" stroke="#ffffff80" stroke-miterlimit="10"/>
<path d="M191.2 134.764L211.2 21.3643" stroke="#ffffff80" stroke-miterlimit="10"/>
<path d="M169.4 128.964L208.8 20.7642" stroke="#ffffff80" stroke-miterlimit="10"/>
<path d="M149 119.464L206.6 19.7642" stroke="#ffffff80" stroke-miterlimit="10"/>
<path d="M130.6 106.564L204.6 18.3643" stroke="#ffffff80" stroke-miterlimit="10"/>
<path d="M114.6 90.664L202.9 16.564" stroke="#ffffff80" stroke-miterlimit="10"/>
<path d="M101.7 72.164L201.5 14.564" stroke="#ffffff80" stroke-miterlimit="10"/>
<path d="M92.1999 51.7643L200.4 12.3643" stroke="#ffffff80" stroke-miterlimit="10"/>
<path d="M86.3999 30.064L199.8 10.064" stroke="#ffffff80" stroke-miterlimit="10"/>
<path d="M84.4 7.56396L199.6 7.56396" stroke="#ffffff80" stroke-miterlimit="10"/>
<path d="M378.4 36.6642L364.8 34.2642" stroke="#ffffff80" stroke-miterlimit="10"/>
<path d="M370.9 64.864L357.9 60.064" stroke="#ffffff80" stroke-miterlimit="10"/>
<path d="M358.5 91.2643L346.6 84.3643" stroke="#ffffff80" stroke-miterlimit="10"/>
<path d="M341.8 115.164L331.3 106.264" stroke="#ffffff80" stroke-miterlimit="10"/>
<path d="M321.2 135.764L312.3 125.264" stroke="#ffffff80" stroke-miterlimit="10"/>
<path d="M297.3 152.564L290.4 140.564" stroke="#ffffff80" stroke-miterlimit="10"/>
<path d="M270.8 164.864L266.1 151.864" stroke="#ffffff80" stroke-miterlimit="10"/>
<path d="M242.7 172.364L240.3 158.864" stroke="#ffffff80" stroke-miterlimit="10"/>
<path d="M213.6 174.964V161.164" stroke="#ffffff80" stroke-miterlimit="10"/>
<path d="M184.5 172.364L186.9 158.864" stroke="#ffffff80" stroke-miterlimit="10"/>
<path d="M156.4 164.864L161.1 151.864" stroke="#ffffff80" stroke-miterlimit="10"/>
<path d="M129.9 152.564L136.8 140.564" stroke="#ffffff80" stroke-miterlimit="10"/>
<path d="M106 135.764L114.9 125.264" stroke="#ffffff80" stroke-miterlimit="10"/>
<path d="M85.4 115.164L95.9999 106.264" stroke="#ffffff80" stroke-miterlimit="10"/>
<path d="M68.7 91.2643L80.6 84.3643" stroke="#ffffff80" stroke-miterlimit="10"/>
<path d="M56.2999 64.864L69.2999 60.064" stroke="#ffffff80" stroke-miterlimit="10"/>
<path d="M48.8 36.6642L62.4 34.2642" stroke="#ffffff80" stroke-miterlimit="10"/>
<path d="M46.2 7.56396L59.9999 7.56396" stroke="#ffffff80" stroke-miterlimit="10"/>
<path d="M352.183 2.67009V3.37409L357.839 3.37409V2.84609C356.903 2.60609 356.823 2.49409 356.767 1.17409H356.239V2.67009H352.183ZM355.199 8.59941C355.575 9.18341 355.847 9.36741 356.383 9.36741C357.279 9.36741 357.903 8.67941 357.903 7.66341C357.903 6.67941 357.287 5.95941 356.391 5.95941C355.799 5.95941 355.511 6.22341 355.199 6.73541C354.879 6.08741 354.415 5.75941 353.799 5.75941C352.759 5.75941 352.039 6.54341 352.039 7.66341C352.039 8.80741 352.759 9.56741 353.799 9.56741C354.415 9.56741 354.879 9.24741 355.199 8.59941ZM357.311 7.66341C357.311 8.28741 356.943 8.68741 356.367 8.68741C355.831 8.68741 355.479 8.26341 355.479 7.66341C355.479 6.98341 355.895 6.63941 356.383 6.63941C356.895 6.63941 357.311 6.99941 357.311 7.66341ZM354.887 7.66341C354.887 8.31941 354.503 8.88741 353.775 8.88741C353.087 8.88741 352.631 8.38341 352.631 7.64741C352.631 6.97541 353.079 6.43941 353.767 6.43941C354.479 6.43941 354.887 6.99941 354.887 7.66341ZM357.903 12.6087C357.903 11.1527 356.463 10.7527 354.975 10.7527C353.487 10.7527 352.039 11.1527 352.039 12.6087C352.039 14.0647 353.487 14.4647 354.975 14.4647C356.463 14.4647 357.903 14.0647 357.903 12.6087ZM357.295 12.6087C357.295 12.8727 357.207 13.0887 357.031 13.2567L353.327 11.6807C353.727 11.4967 354.295 11.4087 354.975 11.4087C356.383 11.4087 357.295 11.7847 357.295 12.6087ZM354.975 13.8087C353.567 13.8087 352.647 13.4327 352.647 12.6087C352.647 12.3847 352.711 12.1927 352.839 12.0407L356.503 13.5847C356.111 13.7367 355.591 13.8087 354.975 13.8087Z" fill="#ffffff80"/>
<path d="M350.892 26.7989L350.77 27.4922L356.34 28.474L356.432 27.9541C355.552 27.5552 355.492 27.431 355.666 26.1214L355.146 26.0297L354.887 27.503L350.892 26.7989ZM355.862 30.8199L355.255 30.7129L354.716 33.7698C353.116 32.2042 352.432 31.5231 350.227 30.5739L350.096 31.3145C351.921 31.9773 353.113 32.9104 354.62 34.4515L355.203 34.5542L355.862 30.8199ZM354.8 37.5794C355.053 36.1455 353.704 35.5016 352.239 35.2433C350.773 34.985 349.278 35.1276 349.025 36.5614C348.772 37.9953 350.129 38.6406 351.594 38.8989C353.06 39.1572 354.547 39.0133 354.8 37.5794ZM354.201 37.4739C354.155 37.7339 354.031 37.9313 353.829 38.0662L350.455 35.8711C350.881 35.7594 351.455 35.7713 352.125 35.8894C353.511 36.1338 354.344 36.6624 354.201 37.4739ZM351.708 38.2529C350.322 38.0084 349.481 37.4784 349.624 36.667C349.663 36.4464 349.759 36.2684 349.912 36.1409L353.252 38.2975C352.839 38.3792 352.315 38.3598 351.708 38.2529Z" fill="#ffffff80"/>
<path d="M345.54 50.3504L345.299 51.0119L350.614 52.9463L350.795 52.4501C349.997 51.9045 349.96 51.7719 350.359 50.5123L349.863 50.3317L349.351 51.7375L345.54 50.3504ZM347.228 58.2279C348.137 58.3969 348.827 58.0438 349.122 57.2319C349.577 55.9839 348.776 54.9093 346.964 54.2499C345.566 53.741 344.157 53.7304 343.656 55.1061C343.251 56.2187 343.897 57.1347 344.844 57.4795C345.723 57.7996 346.733 57.5285 347.1 56.5212C347.316 55.9273 347.208 55.3347 346.879 54.9511C348.225 55.4409 348.873 56.1874 348.583 56.9843C348.386 57.5256 347.96 57.643 347.466 57.5738L347.228 58.2279ZM346.598 56.1684C346.357 56.8299 345.696 57.032 345.027 56.7885C344.351 56.5423 343.974 55.9626 344.215 55.301C344.445 54.6696 345.133 54.3923 345.81 54.6385C346.479 54.882 346.828 55.5369 346.598 56.1684ZM347.516 61.6459C348.014 60.2777 346.798 59.4094 345.399 58.9005C344.001 58.3916 342.504 58.2722 342.006 59.6404C341.508 61.0086 342.731 61.8797 344.13 62.3886C345.528 62.8975 347.018 63.0141 347.516 61.6459ZM346.945 61.438C346.854 61.6861 346.698 61.859 346.475 61.9566L343.533 59.2089C343.972 59.1728 344.536 59.2844 345.175 59.5169C346.498 59.9984 347.226 60.6637 346.945 61.438ZM344.354 61.7722C343.031 61.2907 342.295 60.6227 342.577 59.8484C342.654 59.6379 342.779 59.4793 342.952 59.3803L345.867 62.0843C345.446 62.093 344.933 61.9829 344.354 61.7722Z" fill="#ffffff80"/>
<path d="M336.016 72.6439L335.664 73.2535L340.562 76.0815L340.826 75.6243C340.135 74.9484 340.122 74.8114 340.733 73.6403L340.276 73.3763L339.528 74.6719L336.016 72.6439ZM339.042 78.5863L336.624 76.71L336.304 77.2643C336.495 77.7166 336.473 78.0916 336.249 78.4796C335.837 79.1932 335.178 79.2468 334.506 78.8588C333.834 78.4708 333.564 77.8345 333.968 77.1348C334.272 76.6083 334.728 76.4099 335.328 76.5713L335.684 75.9547C334.529 75.4911 333.758 76.2656 333.434 76.8268C332.83 77.8729 333.183 78.9263 334.173 79.4983C335.178 80.0783 336.197 79.7524 336.701 78.8795C336.893 78.5469 337.006 78.1595 336.923 77.7602L338.22 78.7771L337.044 80.814L337.578 81.122L339.042 78.5863ZM336 84.1107C336.728 82.8498 335.681 81.7834 334.392 81.0394C333.103 80.2954 331.65 79.9178 330.922 81.1787C330.194 82.4396 331.247 83.51 332.536 84.254C333.825 84.998 335.272 85.3716 336 84.1107ZM335.473 83.8067C335.341 84.0353 335.157 84.1784 334.921 84.2359L332.501 81.0191C332.939 81.0597 333.475 81.2675 334.064 81.6075C335.283 82.3115 335.885 83.0931 335.473 83.8067ZM332.864 83.6859C331.645 82.9819 331.036 82.1963 331.448 81.4827C331.56 81.2887 331.711 81.1544 331.898 81.0868L334.299 84.2559C333.884 84.1916 333.398 83.9939 332.864 83.6859Z" fill="#ffffff80"/>
<path d="M322.961 92.8426L322.509 93.3819L326.841 97.0176L327.181 96.6131C326.618 95.8276 326.629 95.6904 327.434 94.6433L327.03 94.3039L326.068 95.4498L322.961 92.8426ZM319.464 97.0107L319.026 97.5316L320.117 98.4469L319.577 99.0904L320.043 99.4812L320.583 98.8377L323.347 101.157L323.743 100.685L322.659 96.5382L322.107 96.0754L320.554 97.926L319.464 97.0107ZM322.198 96.9136L323.006 99.983L321.02 98.3169L322.198 96.9136ZM320.954 104.132C321.89 103.017 321.044 101.785 319.904 100.829C318.765 99.8722 317.398 99.2478 316.462 100.363C315.526 101.478 316.378 102.716 317.518 103.672C318.658 104.629 320.018 105.248 320.954 104.132ZM320.488 103.742C320.319 103.944 320.112 104.053 319.87 104.068L318.045 100.48C318.47 100.596 318.962 100.894 319.483 101.331C320.561 102.236 321.018 103.11 320.488 103.742ZM317.94 103.17C316.861 102.264 316.398 101.385 316.928 100.754C317.072 100.582 317.245 100.476 317.44 100.442L319.254 103.98C318.856 103.845 318.412 103.565 317.94 103.17Z" fill="#ffffff80"/>
<path d="M306.438 110.653L305.899 111.106L309.535 115.438L309.939 115.099C309.521 114.228 309.556 114.094 310.531 113.203L310.191 112.799L309.045 113.76L306.438 110.653ZM304.309 115.896C303.721 116.39 303.177 116.377 302.73 115.844C302.339 115.378 302.286 114.754 302.911 114.23C303.53 113.71 304.079 113.792 304.608 114.361L305.154 113.903C304.328 113.019 303.446 112.976 302.533 113.742C301.669 114.467 301.49 115.474 302.189 116.307C302.647 116.853 303.163 116.994 303.821 116.745C303.531 117.259 303.629 117.762 303.974 118.173C304.637 118.963 305.506 118.903 306.284 118.25C307.154 117.519 307.256 116.62 306.502 115.696L305.962 116.149C306.484 116.808 306.44 117.315 305.888 117.778C305.441 118.153 304.91 118.181 304.504 117.697C303.985 117.078 304.345 116.598 304.995 116.104L304.61 115.645L304.309 115.896ZM302.502 121.423C303.617 120.487 302.998 119.127 302.042 117.987C301.085 116.848 299.848 115.996 298.733 116.932C297.617 117.867 298.242 119.234 299.198 120.374C300.155 121.513 301.387 122.359 302.502 121.423ZM302.111 120.958C301.909 121.127 301.687 121.199 301.445 121.172L300.271 117.322C300.67 117.51 301.102 117.888 301.539 118.409C302.444 119.488 302.742 120.428 302.111 120.958ZM299.701 119.952C298.796 118.873 298.492 117.927 299.123 117.397C299.295 117.253 299.483 117.179 299.682 117.179L300.855 120.978C300.486 120.776 300.097 120.424 299.701 119.952Z" fill="#ffffff80"/>
<path d="M287.121 125.084L286.512 125.436L289.34 130.334L289.797 130.07C289.537 129.14 289.594 129.015 290.709 128.306L290.445 127.849L289.149 128.597L287.121 125.084ZM281.484 129.05L284.068 127.558C284.291 128.04 284.22 128.542 283.818 129.19L283.338 129.957C282.857 130.724 282.797 131.405 283.157 132.029C283.625 132.839 284.521 133.19 285.512 132.618C286.606 131.986 286.801 131.043 286.195 129.914L285.586 130.266C285.949 131.008 285.938 131.661 285.224 132.073C284.608 132.429 284.097 132.216 283.781 131.669C283.537 131.246 283.579 130.806 283.875 130.312L284.315 129.586C284.997 128.463 285.026 127.809 284.446 126.629L281.176 128.517L281.484 129.05ZM281.375 135.007C282.635 134.279 282.262 132.832 281.518 131.543C280.774 130.255 279.703 129.201 278.443 129.929C277.182 130.657 277.559 132.111 278.303 133.399C279.047 134.688 280.114 135.735 281.375 135.007ZM281.071 134.481C280.842 134.613 280.611 134.644 280.377 134.576L279.89 130.58C280.25 130.835 280.61 131.283 280.95 131.871C281.654 133.091 281.784 134.069 281.071 134.481ZM278.871 133.071C278.167 131.852 278.033 130.867 278.747 130.455C278.941 130.343 279.139 130.303 279.334 130.338L279.829 134.283C279.502 134.019 279.179 133.605 278.871 133.071Z" fill="#ffffff80"/>
<path d="M265.632 136.159L264.971 136.4L266.905 141.715L267.401 141.534C267.307 140.573 267.385 140.459 268.606 139.955L268.425 139.459L267.02 139.971L265.632 136.159ZM260.985 137.851L260.324 138.091L262.258 143.406L262.754 143.226C262.66 142.264 262.738 142.151 263.959 141.647L263.778 141.15L262.373 141.662L260.985 137.851ZM258.249 144.933C259.618 144.435 259.501 142.945 258.992 141.547C258.483 140.149 257.612 138.925 256.244 139.423C254.876 139.921 254.995 141.418 255.504 142.817C256.013 144.215 256.881 145.431 258.249 144.933ZM258.041 144.362C257.793 144.452 257.56 144.444 257.342 144.336L257.556 140.316C257.866 140.629 258.143 141.133 258.376 141.772C258.857 143.095 258.816 144.08 258.041 144.362ZM256.12 142.592C255.639 141.269 255.678 140.276 256.452 139.994C256.662 139.918 256.865 139.912 257.051 139.98L256.853 143.952C256.577 143.635 256.331 143.171 256.12 142.592Z" fill="#ffffff80"/>
<path d="M242.469 143.189L241.776 143.311L242.758 148.881L243.278 148.79C243.351 147.826 243.448 147.728 244.738 147.444L244.646 146.924L243.173 147.183L242.469 143.189ZM238.545 149.689C239.978 149.436 240.122 147.949 239.864 146.483C239.606 145.018 238.96 143.661 237.527 143.914C236.093 144.167 235.95 145.662 236.208 147.128C236.467 148.593 237.111 149.942 238.545 149.689ZM238.439 149.09C238.179 149.136 237.951 149.087 237.755 148.943L238.664 145.021C238.915 145.383 239.1 145.927 239.218 146.597C239.462 147.984 239.25 148.947 238.439 149.09ZM236.854 147.014C236.61 145.627 236.821 144.656 237.632 144.513C237.853 144.474 238.053 144.504 238.225 144.603L237.34 148.48C237.123 148.12 236.961 147.62 236.854 147.014ZM233.674 150.547C235.108 150.295 235.252 148.807 234.994 147.342C234.736 145.876 234.09 144.52 232.656 144.773C231.223 145.025 231.08 146.521 231.338 147.986C231.597 149.451 232.241 150.8 233.674 150.547ZM233.569 149.949C233.309 149.994 233.081 149.945 232.885 149.801L233.794 145.88C234.045 146.242 234.23 146.786 234.348 147.456C234.592 148.842 234.38 149.806 233.569 149.949ZM231.984 147.872C231.74 146.486 231.95 145.514 232.762 145.371C232.983 145.332 233.183 145.362 233.355 145.462L232.47 149.338C232.252 148.978 232.091 148.479 231.984 147.872Z" fill="#ffffff80"/>
<path d="M217.853 147.46C217.701 146.548 217.133 146.02 216.269 146.02C214.941 146.02 214.205 147.14 214.205 149.068C214.205 150.556 214.677 151.884 216.141 151.884C217.325 151.884 217.965 150.964 217.965 149.956C217.965 149.02 217.365 148.164 216.293 148.164C215.661 148.164 215.141 148.468 214.893 148.908C214.893 147.476 215.373 146.612 216.221 146.612C216.797 146.612 217.053 146.972 217.157 147.46H217.853ZM216.133 148.756C216.837 148.756 217.253 149.308 217.253 150.02C217.253 150.74 216.837 151.292 216.133 151.292C215.461 151.292 214.965 150.74 214.965 150.02C214.965 149.308 215.461 148.756 216.133 148.756ZM211.076 151.884C212.532 151.884 212.932 150.444 212.932 148.956C212.932 147.468 212.532 146.02 211.076 146.02C209.62 146.02 209.22 147.468 209.22 148.956C209.22 150.444 209.62 151.884 211.076 151.884ZM211.076 151.276C210.812 151.276 210.596 151.188 210.428 151.012L212.004 147.308C212.188 147.708 212.276 148.276 212.276 148.956C212.276 150.364 211.9 151.276 211.076 151.276ZM209.876 148.956C209.876 147.548 210.252 146.628 211.076 146.628C211.3 146.628 211.492 146.692 211.644 146.82L210.1 150.484C209.948 150.092 209.876 149.572 209.876 148.956Z" fill="#ffffff80"/>
<path d="M190.484 147.248C189.844 147.517 189.616 147.753 189.523 148.281C189.367 149.163 189.936 149.897 190.937 150.073C191.906 150.244 192.722 149.763 192.877 148.88C192.98 148.297 192.77 147.968 192.32 147.572C193.014 147.369 193.417 146.969 193.524 146.362C193.705 145.338 193.058 144.493 191.955 144.298C190.828 144.1 189.955 144.677 189.774 145.701C189.667 146.308 189.902 146.82 190.484 147.248ZM191.04 149.49C190.425 149.382 190.095 148.95 190.195 148.383C190.288 147.855 190.767 147.582 191.358 147.686C192.027 147.804 192.294 148.274 192.209 148.754C192.12 149.258 191.694 149.606 191.04 149.49ZM191.46 147.103C190.814 146.989 190.322 146.513 190.448 145.796C190.567 145.118 191.143 144.756 191.868 144.884C192.53 145.001 192.98 145.535 192.86 146.213C192.737 146.914 192.114 147.218 191.46 147.103ZM186.067 149.215C187.501 149.468 188.144 148.119 188.403 146.654C188.661 145.188 188.519 143.693 187.085 143.44C185.651 143.187 185.006 144.544 184.747 146.009C184.489 147.475 184.633 148.962 186.067 149.215ZM186.172 148.616C185.912 148.57 185.715 148.446 185.58 148.244L187.775 144.869C187.887 145.295 187.875 145.87 187.757 146.54C187.512 147.926 186.984 148.759 186.172 148.616ZM185.393 146.123C185.638 144.736 186.168 143.896 186.979 144.039C187.2 144.078 187.378 144.174 187.505 144.326L185.349 147.667C185.267 147.254 185.286 146.73 185.393 146.123Z" fill="#ffffff80"/>
<path d="M168.36 144.573L168.571 143.994L165.654 142.933C167.474 141.629 168.263 141.073 169.581 139.067L168.874 138.81C167.905 140.491 166.779 141.503 164.999 142.72L164.797 143.276L168.36 144.573ZM161.888 142.354C163.256 142.852 164.124 141.635 164.633 140.237C165.142 138.839 165.261 137.341 163.893 136.843C162.525 136.345 161.654 137.569 161.145 138.968C160.636 140.366 160.519 141.856 161.888 142.354ZM162.096 141.782C161.847 141.692 161.675 141.536 161.577 141.313L164.325 138.371C164.361 138.81 164.249 139.374 164.017 140.013C163.535 141.336 162.87 142.064 162.096 141.782ZM161.761 139.192C162.243 137.869 162.911 137.133 163.685 137.415C163.896 137.491 164.054 137.617 164.153 137.789L161.449 140.704C161.44 140.284 161.551 139.771 161.761 139.192Z" fill="#ffffff80"/>
<path d="M142.654 131.542C142.33 132.408 142.558 133.149 143.306 133.581C144.456 134.245 145.654 133.643 146.618 131.973C147.362 130.685 147.617 129.299 146.349 128.567C145.324 127.975 144.309 128.452 143.805 129.324C143.337 130.135 143.429 131.176 144.357 131.712C144.905 132.028 145.507 132.025 145.942 131.768C145.226 133.008 144.378 133.516 143.644 133.092C143.145 132.804 143.103 132.365 143.257 131.89L142.654 131.542ZM144.792 131.28C144.182 130.928 144.098 130.242 144.454 129.625C144.814 129.002 145.45 128.731 146.06 129.083C146.642 129.419 146.795 130.146 146.435 130.769C146.079 131.386 145.374 131.616 144.792 131.28ZM139.238 131.232C140.499 131.96 141.566 130.913 142.31 129.625C143.054 128.336 143.431 126.882 142.17 126.154C140.909 125.426 139.839 126.48 139.095 127.769C138.351 129.057 137.977 130.504 139.238 131.232ZM139.542 130.706C139.314 130.574 139.171 130.39 139.113 130.153L142.33 127.734C142.289 128.172 142.081 128.708 141.741 129.297C141.037 130.516 140.256 131.118 139.542 130.706ZM139.663 128.097C140.367 126.877 141.153 126.269 141.866 126.681C142.06 126.793 142.194 126.944 142.262 127.131L139.093 129.532C139.157 129.117 139.355 128.63 139.663 128.097Z" fill="#ffffff80"/>
<path d="M123.879 120.497L126.146 118.442L125.656 118.03C125.177 118.14 124.812 118.053 124.469 117.765C123.837 117.235 123.899 116.577 124.398 115.983C124.897 115.388 125.57 115.233 126.189 115.752C126.655 116.143 126.771 116.627 126.508 117.189L127.053 117.647C127.71 116.59 127.082 115.697 126.585 115.28C125.66 114.504 124.561 114.668 123.826 115.544C123.08 116.433 123.224 117.493 123.996 118.141C124.29 118.388 124.652 118.567 125.06 118.554L123.833 119.655L122.032 118.143L121.636 118.615L123.879 120.497ZM118.966 116.542C120.082 117.478 121.314 116.632 122.27 115.492C123.227 114.352 123.851 112.986 122.736 112.05C121.62 111.114 120.383 111.966 119.427 113.106C118.47 114.246 117.851 115.606 118.966 116.542ZM119.357 116.076C119.155 115.906 119.046 115.7 119.031 115.457L122.619 113.633C122.503 114.058 122.205 114.549 121.768 115.07C120.863 116.149 119.988 116.606 119.357 116.076ZM119.929 113.528C120.834 112.449 121.714 111.986 122.345 112.516C122.517 112.66 122.622 112.832 122.657 113.028L119.119 114.842C119.254 114.444 119.533 113.999 119.929 113.528Z" fill="#ffffff80"/>
<path d="M108.641 98.1654L108.204 97.6445L107.113 98.5599L106.573 97.9164L106.107 98.3073L106.647 98.9507L103.884 101.27L104.28 101.742L108.552 101.394L109.103 100.931L107.55 99.0808L108.641 98.1654ZM108.262 100.875L105.099 101.138L107.084 99.4716L108.262 100.875ZM101.369 98.3973C102.304 99.5126 103.665 98.8934 104.804 97.9369C105.944 96.9804 106.796 95.7432 105.86 94.6279C104.924 93.5126 103.558 94.137 102.418 95.0935C101.279 96.05 100.433 97.282 101.369 98.3973ZM101.834 98.0065C101.665 97.8042 101.593 97.5822 101.62 97.3404L105.47 96.1667C105.282 96.5647 104.904 96.9973 104.383 97.4344C103.304 98.3394 102.364 98.6377 101.834 98.0065ZM102.84 95.596C103.919 94.6909 104.865 94.3875 105.395 95.0187C105.539 95.1903 105.613 95.3785 105.613 95.5772L101.814 96.7498C102.016 96.3813 102.368 95.9919 102.84 95.596Z" fill="#ffffff80"/>
<path d="M92.5566 80.2623C92.1726 79.5972 92.2804 79.0638 92.8831 78.7158C93.4097 78.4118 94.0331 78.4676 94.4411 79.1743C94.8451 79.874 94.6688 80.4007 94.0168 80.8233L94.3728 81.4399C95.3869 80.7805 95.5825 79.9193 94.9865 78.887C94.4225 77.9102 93.4624 77.5593 92.5202 78.1033C91.9036 78.4593 91.6746 78.9425 91.8057 79.6335C91.3495 79.2595 90.8376 79.2687 90.3734 79.5367C89.4797 80.0527 89.3883 80.9184 89.8963 81.7983C90.4643 82.782 91.3327 83.0381 92.3729 82.456L92.0209 81.8463C91.2815 82.2455 90.7897 82.1138 90.4297 81.4903C90.1377 80.9845 90.2029 80.4573 90.7502 80.1413C91.4499 79.7373 91.8597 80.1751 92.233 80.9017L92.7526 80.6017L92.5566 80.2623ZM87.4276 77.5225C88.1556 78.7834 89.6027 78.4098 90.8913 77.6658C92.1799 76.9218 93.2339 75.8514 92.5059 74.5905C91.7779 73.3297 90.3239 73.7073 89.0353 74.4513C87.7467 75.1953 86.6996 76.2617 87.4276 77.5225ZM87.9542 77.2185C87.8222 76.9899 87.7904 76.7589 87.8588 76.5254L91.8544 76.0382C91.6 76.3975 91.1522 76.7577 90.5633 77.0977C89.3439 77.8017 88.3662 77.9321 87.9542 77.2185ZM89.3633 75.0193C90.5826 74.3153 91.5673 74.181 91.9793 74.8945C92.0913 75.0885 92.1319 75.2868 92.0971 75.4824L88.152 75.9773C88.4155 75.6497 88.8298 75.3273 89.3633 75.0193Z" fill="#ffffff80"/>
<path d="M82.9539 55.7216L83.9745 58.5257C83.4619 58.6611 82.9793 58.5047 82.4112 57.9964L81.7391 57.3896C81.0671 56.7829 80.4068 56.606 79.7302 56.8523C78.8507 57.1724 78.3492 57.9934 78.7405 59.0684C79.1728 60.2562 80.0682 60.6114 81.2847 60.2112L81.0439 59.5496C80.2505 59.7788 79.6093 59.6546 79.3275 58.8803C79.084 58.2112 79.3826 57.745 79.9765 57.5289C80.435 57.362 80.8609 57.4794 81.2964 57.8573L81.9342 58.4169C82.9221 59.2833 83.5612 59.4252 84.8242 59.0592L83.5328 55.5109L82.9539 55.7216ZM77.1066 54.5792C77.6046 55.9474 79.0945 55.8308 80.4928 55.3219C81.8911 54.813 83.115 53.9419 82.617 52.5737C82.1191 51.2055 80.6216 51.3248 79.2233 51.8337C77.825 52.3426 76.6087 53.211 77.1066 54.5792ZM77.678 54.3712C77.5877 54.1232 77.5965 53.8901 77.7044 53.672L81.7241 53.8862C81.4111 54.1959 80.9075 54.4729 80.2685 54.7054C78.9454 55.187 77.9598 55.1455 77.678 54.3712ZM79.4477 52.4502C80.7708 51.9686 81.7639 52.0073 82.0457 52.7816C82.1223 52.9921 82.1278 53.1944 82.0595 53.381L78.0884 53.1832C78.4048 52.9063 78.8688 52.6608 79.4477 52.4502Z" fill="#ffffff80"/>
<path d="M77.5733 34.0418L77.4511 33.3485L71.8811 34.3304L71.9728 34.8503C72.9362 34.9242 73.0344 35.0206 73.3187 36.3108L73.8387 36.2192L73.579 34.7459L77.5733 34.0418ZM71.0734 30.1173C71.3262 31.5512 72.8138 31.6952 74.2791 31.4368C75.7445 31.1785 77.1011 30.5332 76.8483 29.0994C76.5956 27.6655 75.1001 27.5229 73.6347 27.7813C72.1694 28.0396 70.8207 28.6835 71.0734 30.1173ZM71.6722 30.0118C71.6264 29.7518 71.6755 29.5238 71.8197 29.3278L75.741 30.2368C75.379 30.4875 74.8349 30.6728 74.1653 30.7908C72.7787 31.0352 71.8153 30.8233 71.6722 30.0118ZM73.7486 28.4273C75.1352 28.1829 76.1065 28.3934 76.2496 29.2049C76.2884 29.4255 76.2587 29.6257 76.1591 29.7976L72.2827 28.9131C72.6424 28.6954 73.142 28.5342 73.7486 28.4273Z" fill="#ffffff80"/>
<path d="M69.3009 7.55632C69.3009 9.01232 70.7409 9.41232 72.2289 9.41232C73.7169 9.41232 75.1649 9.01232 75.1649 7.55632C75.1649 6.10032 73.7169 5.70032 72.2289 5.70032C70.7409 5.70032 69.3009 6.10032 69.3009 7.55632ZM69.9089 7.55632C69.9089 7.29232 69.9969 7.07632 70.1729 6.90832L73.8769 8.48432C73.4769 8.66832 72.9089 8.75632 72.2289 8.75632C70.8209 8.75632 69.9089 8.38032 69.9089 7.55632ZM72.2289 6.35632C73.6369 6.35632 74.5569 6.73232 74.5569 7.55632C74.5569 7.78032 74.4929 7.97232 74.3649 8.12432L70.7009 6.58032C71.0929 6.42832 71.6129 6.35632 72.2289 6.35632Z" fill="#ffffff80"/>
<path d="M213.6 136.764V7.56396" stroke="#ffffff80" stroke-miterlimit="10"/>
</svg>
