<svg  viewBox="0 0 130 130" fill="none" xmlns="http://www.w3.org/2000/svg">
<g style="mix-blend-mode:multiply" clip-path="url(#clip0_1198_5094)">
<path d="M1.2 128.6C1.5866 128.6 1.9 128.287 1.9 127.9C1.9 127.513 1.5866 127.2 1.2 127.2C0.813401 127.2 0.5 127.513 0.5 127.9C0.5 128.287 0.813401 128.6 1.2 128.6Z" fill="#ffffff80" stroke="#ffffff80" stroke-miterlimit="10"/>
<path d="M11.8001 128.6C12.1867 128.6 12.5001 128.287 12.5001 127.9C12.5001 127.513 12.1867 127.2 11.8001 127.2C11.4135 127.2 11.1001 127.513 11.1001 127.9C11.1001 128.287 11.4135 128.6 11.8001 128.6Z" fill="#ffffff80" stroke="#ffffff80" stroke-miterlimit="10"/>
<path d="M22.3001 128.6C22.6867 128.6 23.0001 128.287 23.0001 127.9C23.0001 127.513 22.6867 127.2 22.3001 127.2C21.9135 127.2 21.6001 127.513 21.6001 127.9C21.6001 128.287 21.9135 128.6 22.3001 128.6Z" fill="#ffffff80" stroke="#ffffff80" stroke-miterlimit="10"/>
<path d="M32.9 128.6C33.2866 128.6 33.5999 128.287 33.5999 127.9C33.5999 127.513 33.2866 127.2 32.9 127.2C32.5134 127.2 32.2 127.513 32.2 127.9C32.2 128.287 32.5134 128.6 32.9 128.6Z" fill="#ffffff80" stroke="#ffffff80" stroke-miterlimit="10"/>
<path d="M43.5 128.6C43.8866 128.6 44.2001 128.287 44.2001 127.9C44.2001 127.513 43.8866 127.2 43.5 127.2C43.1135 127.2 42.8 127.513 42.8 127.9C42.8 128.287 43.1135 128.6 43.5 128.6Z" fill="#ffffff80" stroke="#ffffff80" stroke-miterlimit="10"/>
<path d="M54 128.6C54.3866 128.6 54.7001 128.287 54.7001 127.9C54.7001 127.513 54.3866 127.2 54 127.2C53.6135 127.2 53.3 127.513 53.3 127.9C53.3 128.287 53.6135 128.6 54 128.6Z" fill="#ffffff80" stroke="#ffffff80" stroke-miterlimit="10"/>
<path d="M64.5999 128.6C64.9865 128.6 65.2999 128.287 65.2999 127.9C65.2999 127.513 64.9865 127.2 64.5999 127.2C64.2133 127.2 63.8999 127.513 63.8999 127.9C63.8999 128.287 64.2133 128.6 64.5999 128.6Z" fill="#ffffff80" stroke="#ffffff80" stroke-miterlimit="10"/>
<path d="M75.0999 128.6C75.4865 128.6 75.7999 128.287 75.7999 127.9C75.7999 127.513 75.4865 127.2 75.0999 127.2C74.7133 127.2 74.3999 127.513 74.3999 127.9C74.3999 128.287 74.7133 128.6 75.0999 128.6Z" fill="#ffffff80" stroke="#ffffff80" stroke-miterlimit="10"/>
<path d="M85.7 128.6C86.0866 128.6 86.4 128.287 86.4 127.9C86.4 127.513 86.0866 127.2 85.7 127.2C85.3134 127.2 85 127.513 85 127.9C85 128.287 85.3134 128.6 85.7 128.6Z" fill="#ffffff80" stroke="#ffffff80" stroke-miterlimit="10"/>
<path d="M96.3001 128.6C96.6867 128.6 97.0001 128.287 97.0001 127.9C97.0001 127.513 96.6867 127.2 96.3001 127.2C95.9135 127.2 95.6001 127.513 95.6001 127.9C95.6001 128.287 95.9135 128.6 96.3001 128.6Z" fill="#ffffff80" stroke="#ffffff80" stroke-miterlimit="10"/>
<path d="M106.8 128.6C107.187 128.6 107.5 128.287 107.5 127.9C107.5 127.513 107.187 127.2 106.8 127.2C106.414 127.2 106.1 127.513 106.1 127.9C106.1 128.287 106.414 128.6 106.8 128.6Z" fill="#ffffff80" stroke="#ffffff80" stroke-miterlimit="10"/>
<path d="M117.4 128.6C117.787 128.6 118.1 128.287 118.1 127.9C118.1 127.513 117.787 127.2 117.4 127.2C117.013 127.2 116.7 127.513 116.7 127.9C116.7 128.287 117.013 128.6 117.4 128.6Z" fill="#ffffff80" stroke="#ffffff80" stroke-miterlimit="10"/>
<path d="M127.9 128.6C128.287 128.6 128.6 128.287 128.6 127.9C128.6 127.513 128.287 127.2 127.9 127.2C127.513 127.2 127.2 127.513 127.2 127.9C127.2 128.287 127.513 128.6 127.9 128.6Z" fill="#ffffff80" stroke="#ffffff80" stroke-miterlimit="10"/>
<path d="M1.2 118.1C1.5866 118.1 1.9 117.787 1.9 117.4C1.9 117.013 1.5866 116.7 1.2 116.7C0.813401 116.7 0.5 117.013 0.5 117.4C0.5 117.787 0.813401 118.1 1.2 118.1Z" fill="#ffffff80" stroke="#ffffff80" stroke-miterlimit="10"/>
<path d="M11.8001 118.1C12.1867 118.1 12.5001 117.787 12.5001 117.4C12.5001 117.013 12.1867 116.7 11.8001 116.7C11.4135 116.7 11.1001 117.013 11.1001 117.4C11.1001 117.787 11.4135 118.1 11.8001 118.1Z" fill="#ffffff80" stroke="#ffffff80" stroke-miterlimit="10"/>
<path d="M22.3001 118.1C22.6867 118.1 23.0001 117.787 23.0001 117.4C23.0001 117.013 22.6867 116.7 22.3001 116.7C21.9135 116.7 21.6001 117.013 21.6001 117.4C21.6001 117.787 21.9135 118.1 22.3001 118.1Z" fill="#ffffff80" stroke="#ffffff80" stroke-miterlimit="10"/>
<path d="M32.9 118.1C33.2866 118.1 33.5999 117.787 33.5999 117.4C33.5999 117.013 33.2866 116.7 32.9 116.7C32.5134 116.7 32.2 117.013 32.2 117.4C32.2 117.787 32.5134 118.1 32.9 118.1Z" fill="#ffffff80" stroke="#ffffff80" stroke-miterlimit="10"/>
<path d="M43.5 118.1C43.8866 118.1 44.2001 117.787 44.2001 117.4C44.2001 117.013 43.8866 116.7 43.5 116.7C43.1135 116.7 42.8 117.013 42.8 117.4C42.8 117.787 43.1135 118.1 43.5 118.1Z" fill="#ffffff80" stroke="#ffffff80" stroke-miterlimit="10"/>
<path d="M54 118.1C54.3866 118.1 54.7001 117.787 54.7001 117.4C54.7001 117.013 54.3866 116.7 54 116.7C53.6135 116.7 53.3 117.013 53.3 117.4C53.3 117.787 53.6135 118.1 54 118.1Z" fill="#ffffff80" stroke="#ffffff80" stroke-miterlimit="10"/>
<path d="M64.5999 118.1C64.9865 118.1 65.2999 117.787 65.2999 117.4C65.2999 117.013 64.9865 116.7 64.5999 116.7C64.2133 116.7 63.8999 117.013 63.8999 117.4C63.8999 117.787 64.2133 118.1 64.5999 118.1Z" fill="#ffffff80" stroke="#ffffff80" stroke-miterlimit="10"/>
<path d="M75.0999 118.1C75.4865 118.1 75.7999 117.787 75.7999 117.4C75.7999 117.013 75.4865 116.7 75.0999 116.7C74.7133 116.7 74.3999 117.013 74.3999 117.4C74.3999 117.787 74.7133 118.1 75.0999 118.1Z" fill="#ffffff80" stroke="#ffffff80" stroke-miterlimit="10"/>
<path d="M85.7 118.1C86.0866 118.1 86.4 117.787 86.4 117.4C86.4 117.013 86.0866 116.7 85.7 116.7C85.3134 116.7 85 117.013 85 117.4C85 117.787 85.3134 118.1 85.7 118.1Z" fill="#ffffff80" stroke="#ffffff80" stroke-miterlimit="10"/>
<path d="M96.3001 118.1C96.6867 118.1 97.0001 117.787 97.0001 117.4C97.0001 117.013 96.6867 116.7 96.3001 116.7C95.9135 116.7 95.6001 117.013 95.6001 117.4C95.6001 117.787 95.9135 118.1 96.3001 118.1Z" fill="#ffffff80" stroke="#ffffff80" stroke-miterlimit="10"/>
<path d="M106.8 118.1C107.187 118.1 107.5 117.787 107.5 117.4C107.5 117.013 107.187 116.7 106.8 116.7C106.414 116.7 106.1 117.013 106.1 117.4C106.1 117.787 106.414 118.1 106.8 118.1Z" fill="#ffffff80" stroke="#ffffff80" stroke-miterlimit="10"/>
<path d="M117.4 118.1C117.787 118.1 118.1 117.787 118.1 117.4C118.1 117.013 117.787 116.7 117.4 116.7C117.013 116.7 116.7 117.013 116.7 117.4C116.7 117.787 117.013 118.1 117.4 118.1Z" fill="#ffffff80" stroke="#ffffff80" stroke-miterlimit="10"/>
<path d="M127.9 118.1C128.287 118.1 128.6 117.787 128.6 117.4C128.6 117.013 128.287 116.7 127.9 116.7C127.513 116.7 127.2 117.013 127.2 117.4C127.2 117.787 127.513 118.1 127.9 118.1Z" fill="#ffffff80" stroke="#ffffff80" stroke-miterlimit="10"/>
<path d="M1.2 107.5C1.5866 107.5 1.9 107.187 1.9 106.8C1.9 106.413 1.5866 106.1 1.2 106.1C0.813401 106.1 0.5 106.413 0.5 106.8C0.5 107.187 0.813401 107.5 1.2 107.5Z" fill="#ffffff80" stroke="#ffffff80" stroke-miterlimit="10"/>
<path d="M11.8001 107.5C12.1867 107.5 12.5001 107.187 12.5001 106.8C12.5001 106.413 12.1867 106.1 11.8001 106.1C11.4135 106.1 11.1001 106.413 11.1001 106.8C11.1001 107.187 11.4135 107.5 11.8001 107.5Z" fill="#ffffff80" stroke="#ffffff80" stroke-miterlimit="10"/>
<path d="M22.3001 107.5C22.6867 107.5 23.0001 107.187 23.0001 106.8C23.0001 106.413 22.6867 106.1 22.3001 106.1C21.9135 106.1 21.6001 106.413 21.6001 106.8C21.6001 107.187 21.9135 107.5 22.3001 107.5Z" fill="#ffffff80" stroke="#ffffff80" stroke-miterlimit="10"/>
<path d="M32.9 107.5C33.2866 107.5 33.5999 107.187 33.5999 106.8C33.5999 106.413 33.2866 106.1 32.9 106.1C32.5134 106.1 32.2 106.413 32.2 106.8C32.2 107.187 32.5134 107.5 32.9 107.5Z" fill="#ffffff80" stroke="#ffffff80" stroke-miterlimit="10"/>
<path d="M43.5 107.5C43.8866 107.5 44.2001 107.187 44.2001 106.8C44.2001 106.413 43.8866 106.1 43.5 106.1C43.1135 106.1 42.8 106.413 42.8 106.8C42.8 107.187 43.1135 107.5 43.5 107.5Z" fill="#ffffff80" stroke="#ffffff80" stroke-miterlimit="10"/>
<path d="M54 107.5C54.3866 107.5 54.7001 107.187 54.7001 106.8C54.7001 106.413 54.3866 106.1 54 106.1C53.6135 106.1 53.3 106.413 53.3 106.8C53.3 107.187 53.6135 107.5 54 107.5Z" fill="#ffffff80" stroke="#ffffff80" stroke-miterlimit="10"/>
<path d="M64.5999 107.5C64.9865 107.5 65.2999 107.187 65.2999 106.8C65.2999 106.413 64.9865 106.1 64.5999 106.1C64.2133 106.1 63.8999 106.413 63.8999 106.8C63.8999 107.187 64.2133 107.5 64.5999 107.5Z" fill="#ffffff80" stroke="#ffffff80" stroke-miterlimit="10"/>
<path d="M75.0999 107.5C75.4865 107.5 75.7999 107.187 75.7999 106.8C75.7999 106.413 75.4865 106.1 75.0999 106.1C74.7133 106.1 74.3999 106.413 74.3999 106.8C74.3999 107.187 74.7133 107.5 75.0999 107.5Z" fill="#ffffff80" stroke="#ffffff80" stroke-miterlimit="10"/>
<path d="M85.7 107.5C86.0866 107.5 86.4 107.187 86.4 106.8C86.4 106.413 86.0866 106.1 85.7 106.1C85.3134 106.1 85 106.413 85 106.8C85 107.187 85.3134 107.5 85.7 107.5Z" fill="#ffffff80" stroke="#ffffff80" stroke-miterlimit="10"/>
<path d="M96.3001 107.5C96.6867 107.5 97.0001 107.187 97.0001 106.8C97.0001 106.413 96.6867 106.1 96.3001 106.1C95.9135 106.1 95.6001 106.413 95.6001 106.8C95.6001 107.187 95.9135 107.5 96.3001 107.5Z" fill="#ffffff80" stroke="#ffffff80" stroke-miterlimit="10"/>
<path d="M106.8 107.5C107.187 107.5 107.5 107.187 107.5 106.8C107.5 106.413 107.187 106.1 106.8 106.1C106.414 106.1 106.1 106.413 106.1 106.8C106.1 107.187 106.414 107.5 106.8 107.5Z" fill="#ffffff80" stroke="#ffffff80" stroke-miterlimit="10"/>
<path d="M117.4 107.5C117.787 107.5 118.1 107.187 118.1 106.8C118.1 106.413 117.787 106.1 117.4 106.1C117.013 106.1 116.7 106.413 116.7 106.8C116.7 107.187 117.013 107.5 117.4 107.5Z" fill="#ffffff80" stroke="#ffffff80" stroke-miterlimit="10"/>
<path d="M127.9 107.5C128.287 107.5 128.6 107.187 128.6 106.8C128.6 106.413 128.287 106.1 127.9 106.1C127.513 106.1 127.2 106.413 127.2 106.8C127.2 107.187 127.513 107.5 127.9 107.5Z" fill="#ffffff80" stroke="#ffffff80" stroke-miterlimit="10"/>
<path d="M1.2 96.9C1.5866 96.9 1.9 96.5866 1.9 96.2C1.9 95.8134 1.5866 95.5 1.2 95.5C0.813401 95.5 0.5 95.8134 0.5 96.2C0.5 96.5866 0.813401 96.9 1.2 96.9Z" fill="#ffffff80" stroke="#ffffff80" stroke-miterlimit="10"/>
<path d="M11.8001 96.9C12.1867 96.9 12.5001 96.5866 12.5001 96.2C12.5001 95.8134 12.1867 95.5 11.8001 95.5C11.4135 95.5 11.1001 95.8134 11.1001 96.2C11.1001 96.5866 11.4135 96.9 11.8001 96.9Z" fill="#ffffff80" stroke="#ffffff80" stroke-miterlimit="10"/>
<path d="M22.3001 96.9C22.6867 96.9 23.0001 96.5866 23.0001 96.2C23.0001 95.8134 22.6867 95.5 22.3001 95.5C21.9135 95.5 21.6001 95.8134 21.6001 96.2C21.6001 96.5866 21.9135 96.9 22.3001 96.9Z" fill="#ffffff80" stroke="#ffffff80" stroke-miterlimit="10"/>
<path d="M32.9 96.9C33.2866 96.9 33.5999 96.5866 33.5999 96.2C33.5999 95.8134 33.2866 95.5 32.9 95.5C32.5134 95.5 32.2 95.8134 32.2 96.2C32.2 96.5866 32.5134 96.9 32.9 96.9Z" fill="#ffffff80" stroke="#ffffff80" stroke-miterlimit="10"/>
<path d="M43.5 96.9C43.8866 96.9 44.2001 96.5866 44.2001 96.2C44.2001 95.8134 43.8866 95.5 43.5 95.5C43.1135 95.5 42.8 95.8134 42.8 96.2C42.8 96.5866 43.1135 96.9 43.5 96.9Z" fill="#ffffff80" stroke="#ffffff80" stroke-miterlimit="10"/>
<path d="M54 96.9C54.3866 96.9 54.7001 96.5866 54.7001 96.2C54.7001 95.8134 54.3866 95.5 54 95.5C53.6135 95.5 53.3 95.8134 53.3 96.2C53.3 96.5866 53.6135 96.9 54 96.9Z" fill="#ffffff80" stroke="#ffffff80" stroke-miterlimit="10"/>
<path d="M64.5999 96.9C64.9865 96.9 65.2999 96.5866 65.2999 96.2C65.2999 95.8134 64.9865 95.5 64.5999 95.5C64.2133 95.5 63.8999 95.8134 63.8999 96.2C63.8999 96.5866 64.2133 96.9 64.5999 96.9Z" fill="#ffffff80" stroke="#ffffff80" stroke-miterlimit="10"/>
<path d="M75.0999 96.9C75.4865 96.9 75.7999 96.5866 75.7999 96.2C75.7999 95.8134 75.4865 95.5 75.0999 95.5C74.7133 95.5 74.3999 95.8134 74.3999 96.2C74.3999 96.5866 74.7133 96.9 75.0999 96.9Z" fill="#ffffff80" stroke="#ffffff80" stroke-miterlimit="10"/>
<path d="M85.7 96.9C86.0866 96.9 86.4 96.5866 86.4 96.2C86.4 95.8134 86.0866 95.5 85.7 95.5C85.3134 95.5 85 95.8134 85 96.2C85 96.5866 85.3134 96.9 85.7 96.9Z" fill="#ffffff80" stroke="#ffffff80" stroke-miterlimit="10"/>
<path d="M96.3001 96.9C96.6867 96.9 97.0001 96.5866 97.0001 96.2C97.0001 95.8134 96.6867 95.5 96.3001 95.5C95.9135 95.5 95.6001 95.8134 95.6001 96.2C95.6001 96.5866 95.9135 96.9 96.3001 96.9Z" fill="#ffffff80" stroke="#ffffff80" stroke-miterlimit="10"/>
<path d="M106.8 96.9C107.187 96.9 107.5 96.5866 107.5 96.2C107.5 95.8134 107.187 95.5 106.8 95.5C106.414 95.5 106.1 95.8134 106.1 96.2C106.1 96.5866 106.414 96.9 106.8 96.9Z" fill="#ffffff80" stroke="#ffffff80" stroke-miterlimit="10"/>
<path d="M117.4 96.9C117.787 96.9 118.1 96.5866 118.1 96.2C118.1 95.8134 117.787 95.5 117.4 95.5C117.013 95.5 116.7 95.8134 116.7 96.2C116.7 96.5866 117.013 96.9 117.4 96.9Z" fill="#ffffff80" stroke="#ffffff80" stroke-miterlimit="10"/>
<path d="M127.9 96.9C128.287 96.9 128.6 96.5866 128.6 96.2C128.6 95.8134 128.287 95.5 127.9 95.5C127.513 95.5 127.2 95.8134 127.2 96.2C127.2 96.5866 127.513 96.9 127.9 96.9Z" fill="#ffffff80" stroke="#ffffff80" stroke-miterlimit="10"/>
<path d="M1.2 86.4C1.5866 86.4 1.9 86.0866 1.9 85.7C1.9 85.3134 1.5866 85 1.2 85C0.813401 85 0.5 85.3134 0.5 85.7C0.5 86.0866 0.813401 86.4 1.2 86.4Z" fill="#ffffff80" stroke="#ffffff80" stroke-miterlimit="10"/>
<path d="M11.8001 86.4C12.1867 86.4 12.5001 86.0866 12.5001 85.7C12.5001 85.3134 12.1867 85 11.8001 85C11.4135 85 11.1001 85.3134 11.1001 85.7C11.1001 86.0866 11.4135 86.4 11.8001 86.4Z" fill="#ffffff80" stroke="#ffffff80" stroke-miterlimit="10"/>
<path d="M22.3001 86.4C22.6867 86.4 23.0001 86.0866 23.0001 85.7C23.0001 85.3134 22.6867 85 22.3001 85C21.9135 85 21.6001 85.3134 21.6001 85.7C21.6001 86.0866 21.9135 86.4 22.3001 86.4Z" fill="#ffffff80" stroke="#ffffff80" stroke-miterlimit="10"/>
<path d="M32.9 86.4C33.2866 86.4 33.5999 86.0866 33.5999 85.7C33.5999 85.3134 33.2866 85 32.9 85C32.5134 85 32.2 85.3134 32.2 85.7C32.2 86.0866 32.5134 86.4 32.9 86.4Z" fill="#ffffff80" stroke="#ffffff80" stroke-miterlimit="10"/>
<path d="M43.5 86.4C43.8866 86.4 44.2001 86.0866 44.2001 85.7C44.2001 85.3134 43.8866 85 43.5 85C43.1135 85 42.8 85.3134 42.8 85.7C42.8 86.0866 43.1135 86.4 43.5 86.4Z" fill="#ffffff80" stroke="#ffffff80" stroke-miterlimit="10"/>
<path d="M54 86.4C54.3866 86.4 54.7001 86.0866 54.7001 85.7C54.7001 85.3134 54.3866 85 54 85C53.6135 85 53.3 85.3134 53.3 85.7C53.3 86.0866 53.6135 86.4 54 86.4Z" fill="#ffffff80" stroke="#ffffff80" stroke-miterlimit="10"/>
<path d="M64.5999 86.4C64.9865 86.4 65.2999 86.0866 65.2999 85.7C65.2999 85.3134 64.9865 85 64.5999 85C64.2133 85 63.8999 85.3134 63.8999 85.7C63.8999 86.0866 64.2133 86.4 64.5999 86.4Z" fill="#ffffff80" stroke="#ffffff80" stroke-miterlimit="10"/>
<path d="M75.0999 86.4C75.4865 86.4 75.7999 86.0866 75.7999 85.7C75.7999 85.3134 75.4865 85 75.0999 85C74.7133 85 74.3999 85.3134 74.3999 85.7C74.3999 86.0866 74.7133 86.4 75.0999 86.4Z" fill="#ffffff80" stroke="#ffffff80" stroke-miterlimit="10"/>
<path d="M85.7 86.4C86.0866 86.4 86.4 86.0866 86.4 85.7C86.4 85.3134 86.0866 85 85.7 85C85.3134 85 85 85.3134 85 85.7C85 86.0866 85.3134 86.4 85.7 86.4Z" fill="#ffffff80" stroke="#ffffff80" stroke-miterlimit="10"/>
<path d="M96.3001 86.4C96.6867 86.4 97.0001 86.0866 97.0001 85.7C97.0001 85.3134 96.6867 85 96.3001 85C95.9135 85 95.6001 85.3134 95.6001 85.7C95.6001 86.0866 95.9135 86.4 96.3001 86.4Z" fill="#ffffff80" stroke="#ffffff80" stroke-miterlimit="10"/>
<path d="M106.8 86.4C107.187 86.4 107.5 86.0866 107.5 85.7C107.5 85.3134 107.187 85 106.8 85C106.414 85 106.1 85.3134 106.1 85.7C106.1 86.0866 106.414 86.4 106.8 86.4Z" fill="#ffffff80" stroke="#ffffff80" stroke-miterlimit="10"/>
<path d="M117.4 86.4C117.787 86.4 118.1 86.0866 118.1 85.7C118.1 85.3134 117.787 85 117.4 85C117.013 85 116.7 85.3134 116.7 85.7C116.7 86.0866 117.013 86.4 117.4 86.4Z" fill="#ffffff80" stroke="#ffffff80" stroke-miterlimit="10"/>
<path d="M127.9 86.4C128.287 86.4 128.6 86.0866 128.6 85.7C128.6 85.3134 128.287 85 127.9 85C127.513 85 127.2 85.3134 127.2 85.7C127.2 86.0866 127.513 86.4 127.9 86.4Z" fill="#ffffff80" stroke="#ffffff80" stroke-miterlimit="10"/>
<path d="M1.2 75.8C1.5866 75.8 1.9 75.4866 1.9 75.1C1.9 74.7134 1.5866 74.4 1.2 74.4C0.813401 74.4 0.5 74.7134 0.5 75.1C0.5 75.4866 0.813401 75.8 1.2 75.8Z" fill="#ffffff80" stroke="#ffffff80" stroke-miterlimit="10"/>
<path d="M11.8001 75.8C12.1867 75.8 12.5001 75.4866 12.5001 75.1C12.5001 74.7134 12.1867 74.4 11.8001 74.4C11.4135 74.4 11.1001 74.7134 11.1001 75.1C11.1001 75.4866 11.4135 75.8 11.8001 75.8Z" fill="#ffffff80" stroke="#ffffff80" stroke-miterlimit="10"/>
<path d="M22.3001 75.8C22.6867 75.8 23.0001 75.4866 23.0001 75.1C23.0001 74.7134 22.6867 74.4 22.3001 74.4C21.9135 74.4 21.6001 74.7134 21.6001 75.1C21.6001 75.4866 21.9135 75.8 22.3001 75.8Z" fill="#ffffff80" stroke="#ffffff80" stroke-miterlimit="10"/>
<path d="M32.9 75.8C33.2866 75.8 33.5999 75.4866 33.5999 75.1C33.5999 74.7134 33.2866 74.4 32.9 74.4C32.5134 74.4 32.2 74.7134 32.2 75.1C32.2 75.4866 32.5134 75.8 32.9 75.8Z" fill="#ffffff80" stroke="#ffffff80" stroke-miterlimit="10"/>
<path d="M43.5 75.8C43.8866 75.8 44.2001 75.4866 44.2001 75.1C44.2001 74.7134 43.8866 74.4 43.5 74.4C43.1135 74.4 42.8 74.7134 42.8 75.1C42.8 75.4866 43.1135 75.8 43.5 75.8Z" fill="#ffffff80" stroke="#ffffff80" stroke-miterlimit="10"/>
<path d="M54 75.8C54.3866 75.8 54.7001 75.4866 54.7001 75.1C54.7001 74.7134 54.3866 74.4 54 74.4C53.6135 74.4 53.3 74.7134 53.3 75.1C53.3 75.4866 53.6135 75.8 54 75.8Z" fill="#ffffff80" stroke="#ffffff80" stroke-miterlimit="10"/>
<path d="M64.5999 75.8C64.9865 75.8 65.2999 75.4866 65.2999 75.1C65.2999 74.7134 64.9865 74.4 64.5999 74.4C64.2133 74.4 63.8999 74.7134 63.8999 75.1C63.8999 75.4866 64.2133 75.8 64.5999 75.8Z" fill="#ffffff80" stroke="#ffffff80" stroke-miterlimit="10"/>
<path d="M75.0999 75.8C75.4865 75.8 75.7999 75.4866 75.7999 75.1C75.7999 74.7134 75.4865 74.4 75.0999 74.4C74.7133 74.4 74.3999 74.7134 74.3999 75.1C74.3999 75.4866 74.7133 75.8 75.0999 75.8Z" fill="#ffffff80" stroke="#ffffff80" stroke-miterlimit="10"/>
<path d="M85.7 75.8C86.0866 75.8 86.4 75.4866 86.4 75.1C86.4 74.7134 86.0866 74.4 85.7 74.4C85.3134 74.4 85 74.7134 85 75.1C85 75.4866 85.3134 75.8 85.7 75.8Z" fill="#ffffff80" stroke="#ffffff80" stroke-miterlimit="10"/>
<path d="M96.3001 75.8C96.6867 75.8 97.0001 75.4866 97.0001 75.1C97.0001 74.7134 96.6867 74.4 96.3001 74.4C95.9135 74.4 95.6001 74.7134 95.6001 75.1C95.6001 75.4866 95.9135 75.8 96.3001 75.8Z" fill="#ffffff80" stroke="#ffffff80" stroke-miterlimit="10"/>
<path d="M106.8 75.8C107.187 75.8 107.5 75.4866 107.5 75.1C107.5 74.7134 107.187 74.4 106.8 74.4C106.414 74.4 106.1 74.7134 106.1 75.1C106.1 75.4866 106.414 75.8 106.8 75.8Z" fill="#ffffff80" stroke="#ffffff80" stroke-miterlimit="10"/>
<path d="M117.4 75.8C117.787 75.8 118.1 75.4866 118.1 75.1C118.1 74.7134 117.787 74.4 117.4 74.4C117.013 74.4 116.7 74.7134 116.7 75.1C116.7 75.4866 117.013 75.8 117.4 75.8Z" fill="#ffffff80" stroke="#ffffff80" stroke-miterlimit="10"/>
<path d="M127.9 75.8C128.287 75.8 128.6 75.4866 128.6 75.1C128.6 74.7134 128.287 74.4 127.9 74.4C127.513 74.4 127.2 74.7134 127.2 75.1C127.2 75.4866 127.513 75.8 127.9 75.8Z" fill="#ffffff80" stroke="#ffffff80" stroke-miterlimit="10"/>
<path d="M1.2 65.3C1.5866 65.3 1.9 64.9866 1.9 64.6C1.9 64.2134 1.5866 63.9 1.2 63.9C0.813401 63.9 0.5 64.2134 0.5 64.6C0.5 64.9866 0.813401 65.3 1.2 65.3Z" fill="#ffffff80" stroke="#ffffff80" stroke-miterlimit="10"/>
<path d="M11.8001 65.3C12.1867 65.3 12.5001 64.9866 12.5001 64.6C12.5001 64.2134 12.1867 63.9 11.8001 63.9C11.4135 63.9 11.1001 64.2134 11.1001 64.6C11.1001 64.9866 11.4135 65.3 11.8001 65.3Z" fill="#ffffff80" stroke="#ffffff80" stroke-miterlimit="10"/>
<path d="M22.3001 65.3C22.6867 65.3 23.0001 64.9866 23.0001 64.6C23.0001 64.2134 22.6867 63.9 22.3001 63.9C21.9135 63.9 21.6001 64.2134 21.6001 64.6C21.6001 64.9866 21.9135 65.3 22.3001 65.3Z" fill="#ffffff80" stroke="#ffffff80" stroke-miterlimit="10"/>
<path d="M32.9 65.3C33.2866 65.3 33.5999 64.9866 33.5999 64.6C33.5999 64.2134 33.2866 63.9 32.9 63.9C32.5134 63.9 32.2 64.2134 32.2 64.6C32.2 64.9866 32.5134 65.3 32.9 65.3Z" fill="#ffffff80" stroke="#ffffff80" stroke-miterlimit="10"/>
<path d="M43.5 65.3C43.8866 65.3 44.2001 64.9866 44.2001 64.6C44.2001 64.2134 43.8866 63.9 43.5 63.9C43.1135 63.9 42.8 64.2134 42.8 64.6C42.8 64.9866 43.1135 65.3 43.5 65.3Z" fill="#ffffff80" stroke="#ffffff80" stroke-miterlimit="10"/>
<path d="M54 65.3C54.3866 65.3 54.7001 64.9866 54.7001 64.6C54.7001 64.2134 54.3866 63.9 54 63.9C53.6135 63.9 53.3 64.2134 53.3 64.6C53.3 64.9866 53.6135 65.3 54 65.3Z" fill="#ffffff80" stroke="#ffffff80" stroke-miterlimit="10"/>
<path d="M64.5999 65.3C64.9865 65.3 65.2999 64.9866 65.2999 64.6C65.2999 64.2134 64.9865 63.9 64.5999 63.9C64.2133 63.9 63.8999 64.2134 63.8999 64.6C63.8999 64.9866 64.2133 65.3 64.5999 65.3Z" fill="#ffffff80" stroke="#ffffff80" stroke-miterlimit="10"/>
<path d="M75.0999 65.3C75.4865 65.3 75.7999 64.9866 75.7999 64.6C75.7999 64.2134 75.4865 63.9 75.0999 63.9C74.7133 63.9 74.3999 64.2134 74.3999 64.6C74.3999 64.9866 74.7133 65.3 75.0999 65.3Z" fill="#ffffff80" stroke="#ffffff80" stroke-miterlimit="10"/>
<path d="M85.7 65.3C86.0866 65.3 86.4 64.9866 86.4 64.6C86.4 64.2134 86.0866 63.9 85.7 63.9C85.3134 63.9 85 64.2134 85 64.6C85 64.9866 85.3134 65.3 85.7 65.3Z" fill="#ffffff80" stroke="#ffffff80" stroke-miterlimit="10"/>
<path d="M96.3001 65.3C96.6867 65.3 97.0001 64.9866 97.0001 64.6C97.0001 64.2134 96.6867 63.9 96.3001 63.9C95.9135 63.9 95.6001 64.2134 95.6001 64.6C95.6001 64.9866 95.9135 65.3 96.3001 65.3Z" fill="#ffffff80" stroke="#ffffff80" stroke-miterlimit="10"/>
<path d="M106.8 65.3C107.187 65.3 107.5 64.9866 107.5 64.6C107.5 64.2134 107.187 63.9 106.8 63.9C106.414 63.9 106.1 64.2134 106.1 64.6C106.1 64.9866 106.414 65.3 106.8 65.3Z" fill="#ffffff80" stroke="#ffffff80" stroke-miterlimit="10"/>
<path d="M117.4 65.3C117.787 65.3 118.1 64.9866 118.1 64.6C118.1 64.2134 117.787 63.9 117.4 63.9C117.013 63.9 116.7 64.2134 116.7 64.6C116.7 64.9866 117.013 65.3 117.4 65.3Z" fill="#ffffff80" stroke="#ffffff80" stroke-miterlimit="10"/>
<path d="M127.9 65.3C128.287 65.3 128.6 64.9866 128.6 64.6C128.6 64.2134 128.287 63.9 127.9 63.9C127.513 63.9 127.2 64.2134 127.2 64.6C127.2 64.9866 127.513 65.3 127.9 65.3Z" fill="#ffffff80" stroke="#ffffff80" stroke-miterlimit="10"/>
<path d="M1.2 54.7C1.5866 54.7 1.9 54.3866 1.9 54C1.9 53.6134 1.5866 53.3 1.2 53.3C0.813401 53.3 0.5 53.6134 0.5 54C0.5 54.3866 0.813401 54.7 1.2 54.7Z" fill="#ffffff80" stroke="#ffffff80" stroke-miterlimit="10"/>
<path d="M11.8001 54.7C12.1867 54.7 12.5001 54.3866 12.5001 54C12.5001 53.6134 12.1867 53.3 11.8001 53.3C11.4135 53.3 11.1001 53.6134 11.1001 54C11.1001 54.3866 11.4135 54.7 11.8001 54.7Z" fill="#ffffff80" stroke="#ffffff80" stroke-miterlimit="10"/>
<path d="M22.3001 54.7C22.6867 54.7 23.0001 54.3866 23.0001 54C23.0001 53.6134 22.6867 53.3 22.3001 53.3C21.9135 53.3 21.6001 53.6134 21.6001 54C21.6001 54.3866 21.9135 54.7 22.3001 54.7Z" fill="#ffffff80" stroke="#ffffff80" stroke-miterlimit="10"/>
<path d="M32.9 54.7C33.2866 54.7 33.5999 54.3866 33.5999 54C33.5999 53.6134 33.2866 53.3 32.9 53.3C32.5134 53.3 32.2 53.6134 32.2 54C32.2 54.3866 32.5134 54.7 32.9 54.7Z" fill="#ffffff80" stroke="#ffffff80" stroke-miterlimit="10"/>
<path d="M43.5 54.7C43.8866 54.7 44.2001 54.3866 44.2001 54C44.2001 53.6134 43.8866 53.3 43.5 53.3C43.1135 53.3 42.8 53.6134 42.8 54C42.8 54.3866 43.1135 54.7 43.5 54.7Z" fill="#ffffff80" stroke="#ffffff80" stroke-miterlimit="10"/>
<path d="M54 54.7C54.3866 54.7 54.7001 54.3866 54.7001 54C54.7001 53.6134 54.3866 53.3 54 53.3C53.6135 53.3 53.3 53.6134 53.3 54C53.3 54.3866 53.6135 54.7 54 54.7Z" fill="#ffffff80" stroke="#ffffff80" stroke-miterlimit="10"/>
<path d="M64.5999 54.7C64.9865 54.7 65.2999 54.3866 65.2999 54C65.2999 53.6134 64.9865 53.3 64.5999 53.3C64.2133 53.3 63.8999 53.6134 63.8999 54C63.8999 54.3866 64.2133 54.7 64.5999 54.7Z" fill="#ffffff80" stroke="#ffffff80" stroke-miterlimit="10"/>
<path d="M75.0999 54.7C75.4865 54.7 75.7999 54.3866 75.7999 54C75.7999 53.6134 75.4865 53.3 75.0999 53.3C74.7133 53.3 74.3999 53.6134 74.3999 54C74.3999 54.3866 74.7133 54.7 75.0999 54.7Z" fill="#ffffff80" stroke="#ffffff80" stroke-miterlimit="10"/>
<path d="M85.7 54.7C86.0866 54.7 86.4 54.3866 86.4 54C86.4 53.6134 86.0866 53.3 85.7 53.3C85.3134 53.3 85 53.6134 85 54C85 54.3866 85.3134 54.7 85.7 54.7Z" fill="#ffffff80" stroke="#ffffff80" stroke-miterlimit="10"/>
<path d="M96.3001 54.7C96.6867 54.7 97.0001 54.3866 97.0001 54C97.0001 53.6134 96.6867 53.3 96.3001 53.3C95.9135 53.3 95.6001 53.6134 95.6001 54C95.6001 54.3866 95.9135 54.7 96.3001 54.7Z" fill="#ffffff80" stroke="#ffffff80" stroke-miterlimit="10"/>
<path d="M106.8 54.7C107.187 54.7 107.5 54.3866 107.5 54C107.5 53.6134 107.187 53.3 106.8 53.3C106.414 53.3 106.1 53.6134 106.1 54C106.1 54.3866 106.414 54.7 106.8 54.7Z" fill="#ffffff80" stroke="#ffffff80" stroke-miterlimit="10"/>
<path d="M117.4 54.7C117.787 54.7 118.1 54.3866 118.1 54C118.1 53.6134 117.787 53.3 117.4 53.3C117.013 53.3 116.7 53.6134 116.7 54C116.7 54.3866 117.013 54.7 117.4 54.7Z" fill="#ffffff80" stroke="#ffffff80" stroke-miterlimit="10"/>
<path d="M127.9 54.7C128.287 54.7 128.6 54.3866 128.6 54C128.6 53.6134 128.287 53.3 127.9 53.3C127.513 53.3 127.2 53.6134 127.2 54C127.2 54.3866 127.513 54.7 127.9 54.7Z" fill="#ffffff80" stroke="#ffffff80" stroke-miterlimit="10"/>
<path d="M1.2 44.2C1.5866 44.2 1.9 43.8866 1.9 43.5C1.9 43.1134 1.5866 42.8 1.2 42.8C0.813401 42.8 0.5 43.1134 0.5 43.5C0.5 43.8866 0.813401 44.2 1.2 44.2Z" fill="#ffffff80" stroke="#ffffff80" stroke-miterlimit="10"/>
<path d="M11.8001 44.2C12.1867 44.2 12.5001 43.8866 12.5001 43.5C12.5001 43.1134 12.1867 42.8 11.8001 42.8C11.4135 42.8 11.1001 43.1134 11.1001 43.5C11.1001 43.8866 11.4135 44.2 11.8001 44.2Z" fill="#ffffff80" stroke="#ffffff80" stroke-miterlimit="10"/>
<path d="M22.3001 44.2C22.6867 44.2 23.0001 43.8866 23.0001 43.5C23.0001 43.1134 22.6867 42.8 22.3001 42.8C21.9135 42.8 21.6001 43.1134 21.6001 43.5C21.6001 43.8866 21.9135 44.2 22.3001 44.2Z" fill="#ffffff80" stroke="#ffffff80" stroke-miterlimit="10"/>
<path d="M32.9 44.2C33.2866 44.2 33.5999 43.8866 33.5999 43.5C33.5999 43.1134 33.2866 42.8 32.9 42.8C32.5134 42.8 32.2 43.1134 32.2 43.5C32.2 43.8866 32.5134 44.2 32.9 44.2Z" fill="#ffffff80" stroke="#ffffff80" stroke-miterlimit="10"/>
<path d="M43.5 44.2C43.8866 44.2 44.2001 43.8866 44.2001 43.5C44.2001 43.1134 43.8866 42.8 43.5 42.8C43.1135 42.8 42.8 43.1134 42.8 43.5C42.8 43.8866 43.1135 44.2 43.5 44.2Z" fill="#ffffff80" stroke="#ffffff80" stroke-miterlimit="10"/>
<path d="M54 44.2C54.3866 44.2 54.7001 43.8866 54.7001 43.5C54.7001 43.1134 54.3866 42.8 54 42.8C53.6135 42.8 53.3 43.1134 53.3 43.5C53.3 43.8866 53.6135 44.2 54 44.2Z" fill="#ffffff80" stroke="#ffffff80" stroke-miterlimit="10"/>
<path d="M64.5999 44.2C64.9865 44.2 65.2999 43.8866 65.2999 43.5C65.2999 43.1134 64.9865 42.8 64.5999 42.8C64.2133 42.8 63.8999 43.1134 63.8999 43.5C63.8999 43.8866 64.2133 44.2 64.5999 44.2Z" fill="#ffffff80" stroke="#ffffff80" stroke-miterlimit="10"/>
<path d="M75.0999 44.2C75.4865 44.2 75.7999 43.8866 75.7999 43.5C75.7999 43.1134 75.4865 42.8 75.0999 42.8C74.7133 42.8 74.3999 43.1134 74.3999 43.5C74.3999 43.8866 74.7133 44.2 75.0999 44.2Z" fill="#ffffff80" stroke="#ffffff80" stroke-miterlimit="10"/>
<path d="M85.7 44.2C86.0866 44.2 86.4 43.8866 86.4 43.5C86.4 43.1134 86.0866 42.8 85.7 42.8C85.3134 42.8 85 43.1134 85 43.5C85 43.8866 85.3134 44.2 85.7 44.2Z" fill="#ffffff80" stroke="#ffffff80" stroke-miterlimit="10"/>
<path d="M96.3001 44.2C96.6867 44.2 97.0001 43.8866 97.0001 43.5C97.0001 43.1134 96.6867 42.8 96.3001 42.8C95.9135 42.8 95.6001 43.1134 95.6001 43.5C95.6001 43.8866 95.9135 44.2 96.3001 44.2Z" fill="#ffffff80" stroke="#ffffff80" stroke-miterlimit="10"/>
<path d="M106.8 44.2C107.187 44.2 107.5 43.8866 107.5 43.5C107.5 43.1134 107.187 42.8 106.8 42.8C106.414 42.8 106.1 43.1134 106.1 43.5C106.1 43.8866 106.414 44.2 106.8 44.2Z" fill="#ffffff80" stroke="#ffffff80" stroke-miterlimit="10"/>
<path d="M117.4 44.2C117.787 44.2 118.1 43.8866 118.1 43.5C118.1 43.1134 117.787 42.8 117.4 42.8C117.013 42.8 116.7 43.1134 116.7 43.5C116.7 43.8866 117.013 44.2 117.4 44.2Z" fill="#ffffff80" stroke="#ffffff80" stroke-miterlimit="10"/>
<path d="M127.9 44.2C128.287 44.2 128.6 43.8866 128.6 43.5C128.6 43.1134 128.287 42.8 127.9 42.8C127.513 42.8 127.2 43.1134 127.2 43.5C127.2 43.8866 127.513 44.2 127.9 44.2Z" fill="#ffffff80" stroke="#ffffff80" stroke-miterlimit="10"/>
<path d="M1.2 33.6C1.5866 33.6 1.9 33.2866 1.9 32.9C1.9 32.5134 1.5866 32.2 1.2 32.2C0.813401 32.2 0.5 32.5134 0.5 32.9C0.5 33.2866 0.813401 33.6 1.2 33.6Z" fill="#ffffff80" stroke="#ffffff80" stroke-miterlimit="10"/>
<path d="M11.8001 33.6C12.1867 33.6 12.5001 33.2866 12.5001 32.9C12.5001 32.5134 12.1867 32.2 11.8001 32.2C11.4135 32.2 11.1001 32.5134 11.1001 32.9C11.1001 33.2866 11.4135 33.6 11.8001 33.6Z" fill="#ffffff80" stroke="#ffffff80" stroke-miterlimit="10"/>
<path d="M22.3001 33.6C22.6867 33.6 23.0001 33.2866 23.0001 32.9C23.0001 32.5134 22.6867 32.2 22.3001 32.2C21.9135 32.2 21.6001 32.5134 21.6001 32.9C21.6001 33.2866 21.9135 33.6 22.3001 33.6Z" fill="#ffffff80" stroke="#ffffff80" stroke-miterlimit="10"/>
<path d="M32.9 33.6C33.2866 33.6 33.5999 33.2866 33.5999 32.9C33.5999 32.5134 33.2866 32.2 32.9 32.2C32.5134 32.2 32.2 32.5134 32.2 32.9C32.2 33.2866 32.5134 33.6 32.9 33.6Z" fill="#ffffff80" stroke="#ffffff80" stroke-miterlimit="10"/>
<path d="M43.5 33.6C43.8866 33.6 44.2001 33.2866 44.2001 32.9C44.2001 32.5134 43.8866 32.2 43.5 32.2C43.1135 32.2 42.8 32.5134 42.8 32.9C42.8 33.2866 43.1135 33.6 43.5 33.6Z" fill="#ffffff80" stroke="#ffffff80" stroke-miterlimit="10"/>
<path d="M54 33.6C54.3866 33.6 54.7001 33.2866 54.7001 32.9C54.7001 32.5134 54.3866 32.2 54 32.2C53.6135 32.2 53.3 32.5134 53.3 32.9C53.3 33.2866 53.6135 33.6 54 33.6Z" fill="#ffffff80" stroke="#ffffff80" stroke-miterlimit="10"/>
<path d="M64.5999 33.6C64.9865 33.6 65.2999 33.2866 65.2999 32.9C65.2999 32.5134 64.9865 32.2 64.5999 32.2C64.2133 32.2 63.8999 32.5134 63.8999 32.9C63.8999 33.2866 64.2133 33.6 64.5999 33.6Z" fill="#ffffff80" stroke="#ffffff80" stroke-miterlimit="10"/>
<path d="M75.0999 33.6C75.4865 33.6 75.7999 33.2866 75.7999 32.9C75.7999 32.5134 75.4865 32.2 75.0999 32.2C74.7133 32.2 74.3999 32.5134 74.3999 32.9C74.3999 33.2866 74.7133 33.6 75.0999 33.6Z" fill="#ffffff80" stroke="#ffffff80" stroke-miterlimit="10"/>
<path d="M85.7 33.6C86.0866 33.6 86.4 33.2866 86.4 32.9C86.4 32.5134 86.0866 32.2 85.7 32.2C85.3134 32.2 85 32.5134 85 32.9C85 33.2866 85.3134 33.6 85.7 33.6Z" fill="#ffffff80" stroke="#ffffff80" stroke-miterlimit="10"/>
<path d="M96.3001 33.6C96.6867 33.6 97.0001 33.2866 97.0001 32.9C97.0001 32.5134 96.6867 32.2 96.3001 32.2C95.9135 32.2 95.6001 32.5134 95.6001 32.9C95.6001 33.2866 95.9135 33.6 96.3001 33.6Z" fill="#ffffff80" stroke="#ffffff80" stroke-miterlimit="10"/>
<path d="M106.8 33.6C107.187 33.6 107.5 33.2866 107.5 32.9C107.5 32.5134 107.187 32.2 106.8 32.2C106.414 32.2 106.1 32.5134 106.1 32.9C106.1 33.2866 106.414 33.6 106.8 33.6Z" fill="#ffffff80" stroke="#ffffff80" stroke-miterlimit="10"/>
<path d="M117.4 33.6C117.787 33.6 118.1 33.2866 118.1 32.9C118.1 32.5134 117.787 32.2 117.4 32.2C117.013 32.2 116.7 32.5134 116.7 32.9C116.7 33.2866 117.013 33.6 117.4 33.6Z" fill="#ffffff80" stroke="#ffffff80" stroke-miterlimit="10"/>
<path d="M127.9 33.6C128.287 33.6 128.6 33.2866 128.6 32.9C128.6 32.5134 128.287 32.2 127.9 32.2C127.513 32.2 127.2 32.5134 127.2 32.9C127.2 33.2866 127.513 33.6 127.9 33.6Z" fill="#ffffff80" stroke="#ffffff80" stroke-miterlimit="10"/>
<path d="M1.2 23C1.5866 23 1.9 22.6866 1.9 22.3C1.9 21.9134 1.5866 21.6 1.2 21.6C0.813401 21.6 0.5 21.9134 0.5 22.3C0.5 22.6866 0.813401 23 1.2 23Z" fill="#ffffff80" stroke="#ffffff80" stroke-miterlimit="10"/>
<path d="M11.8001 23C12.1867 23 12.5001 22.6866 12.5001 22.3C12.5001 21.9134 12.1867 21.6 11.8001 21.6C11.4135 21.6 11.1001 21.9134 11.1001 22.3C11.1001 22.6866 11.4135 23 11.8001 23Z" fill="#ffffff80" stroke="#ffffff80" stroke-miterlimit="10"/>
<path d="M22.3001 23C22.6867 23 23.0001 22.6866 23.0001 22.3C23.0001 21.9134 22.6867 21.6 22.3001 21.6C21.9135 21.6 21.6001 21.9134 21.6001 22.3C21.6001 22.6866 21.9135 23 22.3001 23Z" fill="#ffffff80" stroke="#ffffff80" stroke-miterlimit="10"/>
<path d="M32.9 23C33.2866 23 33.5999 22.6866 33.5999 22.3C33.5999 21.9134 33.2866 21.6 32.9 21.6C32.5134 21.6 32.2 21.9134 32.2 22.3C32.2 22.6866 32.5134 23 32.9 23Z" fill="#ffffff80" stroke="#ffffff80" stroke-miterlimit="10"/>
<path d="M43.5 23C43.8866 23 44.2001 22.6866 44.2001 22.3C44.2001 21.9134 43.8866 21.6 43.5 21.6C43.1135 21.6 42.8 21.9134 42.8 22.3C42.8 22.6866 43.1135 23 43.5 23Z" fill="#ffffff80" stroke="#ffffff80" stroke-miterlimit="10"/>
<path d="M54 23C54.3866 23 54.7001 22.6866 54.7001 22.3C54.7001 21.9134 54.3866 21.6 54 21.6C53.6135 21.6 53.3 21.9134 53.3 22.3C53.3 22.6866 53.6135 23 54 23Z" fill="#ffffff80" stroke="#ffffff80" stroke-miterlimit="10"/>
<path d="M64.5999 23C64.9865 23 65.2999 22.6866 65.2999 22.3C65.2999 21.9134 64.9865 21.6 64.5999 21.6C64.2133 21.6 63.8999 21.9134 63.8999 22.3C63.8999 22.6866 64.2133 23 64.5999 23Z" fill="#ffffff80" stroke="#ffffff80" stroke-miterlimit="10"/>
<path d="M75.0999 23C75.4865 23 75.7999 22.6866 75.7999 22.3C75.7999 21.9134 75.4865 21.6 75.0999 21.6C74.7133 21.6 74.3999 21.9134 74.3999 22.3C74.3999 22.6866 74.7133 23 75.0999 23Z" fill="#ffffff80" stroke="#ffffff80" stroke-miterlimit="10"/>
<path d="M85.7 23C86.0866 23 86.4 22.6866 86.4 22.3C86.4 21.9134 86.0866 21.6 85.7 21.6C85.3134 21.6 85 21.9134 85 22.3C85 22.6866 85.3134 23 85.7 23Z" fill="#ffffff80" stroke="#ffffff80" stroke-miterlimit="10"/>
<path d="M96.3001 23C96.6867 23 97.0001 22.6866 97.0001 22.3C97.0001 21.9134 96.6867 21.6 96.3001 21.6C95.9135 21.6 95.6001 21.9134 95.6001 22.3C95.6001 22.6866 95.9135 23 96.3001 23Z" fill="#ffffff80" stroke="#ffffff80" stroke-miterlimit="10"/>
<path d="M106.8 23C107.187 23 107.5 22.6866 107.5 22.3C107.5 21.9134 107.187 21.6 106.8 21.6C106.414 21.6 106.1 21.9134 106.1 22.3C106.1 22.6866 106.414 23 106.8 23Z" fill="#ffffff80" stroke="#ffffff80" stroke-miterlimit="10"/>
<path d="M117.4 23C117.787 23 118.1 22.6866 118.1 22.3C118.1 21.9134 117.787 21.6 117.4 21.6C117.013 21.6 116.7 21.9134 116.7 22.3C116.7 22.6866 117.013 23 117.4 23Z" fill="#ffffff80" stroke="#ffffff80" stroke-miterlimit="10"/>
<path d="M127.9 23C128.287 23 128.6 22.6866 128.6 22.3C128.6 21.9134 128.287 21.6 127.9 21.6C127.513 21.6 127.2 21.9134 127.2 22.3C127.2 22.6866 127.513 23 127.9 23Z" fill="#ffffff80" stroke="#ffffff80" stroke-miterlimit="10"/>
<path d="M1.2 12.5C1.5866 12.5 1.9 12.1866 1.9 11.8C1.9 11.4134 1.5866 11.1 1.2 11.1C0.813401 11.1 0.5 11.4134 0.5 11.8C0.5 12.1866 0.813401 12.5 1.2 12.5Z" fill="#ffffff80" stroke="#ffffff80" stroke-miterlimit="10"/>
<path d="M11.8001 12.5C12.1867 12.5 12.5001 12.1866 12.5001 11.8C12.5001 11.4134 12.1867 11.1 11.8001 11.1C11.4135 11.1 11.1001 11.4134 11.1001 11.8C11.1001 12.1866 11.4135 12.5 11.8001 12.5Z" fill="#ffffff80" stroke="#ffffff80" stroke-miterlimit="10"/>
<path d="M22.3001 12.5C22.6867 12.5 23.0001 12.1866 23.0001 11.8C23.0001 11.4134 22.6867 11.1 22.3001 11.1C21.9135 11.1 21.6001 11.4134 21.6001 11.8C21.6001 12.1866 21.9135 12.5 22.3001 12.5Z" fill="#ffffff80" stroke="#ffffff80" stroke-miterlimit="10"/>
<path d="M32.9 12.5C33.2866 12.5 33.5999 12.1866 33.5999 11.8C33.5999 11.4134 33.2866 11.1 32.9 11.1C32.5134 11.1 32.2 11.4134 32.2 11.8C32.2 12.1866 32.5134 12.5 32.9 12.5Z" fill="#ffffff80" stroke="#ffffff80" stroke-miterlimit="10"/>
<path d="M43.5 12.5C43.8866 12.5 44.2001 12.1866 44.2001 11.8C44.2001 11.4134 43.8866 11.1 43.5 11.1C43.1135 11.1 42.8 11.4134 42.8 11.8C42.8 12.1866 43.1135 12.5 43.5 12.5Z" fill="#ffffff80" stroke="#ffffff80" stroke-miterlimit="10"/>
<path d="M54 12.5C54.3866 12.5 54.7001 12.1866 54.7001 11.8C54.7001 11.4134 54.3866 11.1 54 11.1C53.6135 11.1 53.3 11.4134 53.3 11.8C53.3 12.1866 53.6135 12.5 54 12.5Z" fill="#ffffff80" stroke="#ffffff80" stroke-miterlimit="10"/>
<path d="M64.5999 12.5C64.9865 12.5 65.2999 12.1866 65.2999 11.8C65.2999 11.4134 64.9865 11.1 64.5999 11.1C64.2133 11.1 63.8999 11.4134 63.8999 11.8C63.8999 12.1866 64.2133 12.5 64.5999 12.5Z" fill="#ffffff80" stroke="#ffffff80" stroke-miterlimit="10"/>
<path d="M75.0999 12.5C75.4865 12.5 75.7999 12.1866 75.7999 11.8C75.7999 11.4134 75.4865 11.1 75.0999 11.1C74.7133 11.1 74.3999 11.4134 74.3999 11.8C74.3999 12.1866 74.7133 12.5 75.0999 12.5Z" fill="#ffffff80" stroke="#ffffff80" stroke-miterlimit="10"/>
<path d="M85.7 12.5C86.0866 12.5 86.4 12.1866 86.4 11.8C86.4 11.4134 86.0866 11.1 85.7 11.1C85.3134 11.1 85 11.4134 85 11.8C85 12.1866 85.3134 12.5 85.7 12.5Z" fill="#ffffff80" stroke="#ffffff80" stroke-miterlimit="10"/>
<path d="M96.3001 12.5C96.6867 12.5 97.0001 12.1866 97.0001 11.8C97.0001 11.4134 96.6867 11.1 96.3001 11.1C95.9135 11.1 95.6001 11.4134 95.6001 11.8C95.6001 12.1866 95.9135 12.5 96.3001 12.5Z" fill="#ffffff80" stroke="#ffffff80" stroke-miterlimit="10"/>
<path d="M106.8 12.5C107.187 12.5 107.5 12.1866 107.5 11.8C107.5 11.4134 107.187 11.1 106.8 11.1C106.414 11.1 106.1 11.4134 106.1 11.8C106.1 12.1866 106.414 12.5 106.8 12.5Z" fill="#ffffff80" stroke="#ffffff80" stroke-miterlimit="10"/>
<path d="M117.4 12.5C117.787 12.5 118.1 12.1866 118.1 11.8C118.1 11.4134 117.787 11.1 117.4 11.1C117.013 11.1 116.7 11.4134 116.7 11.8C116.7 12.1866 117.013 12.5 117.4 12.5Z" fill="#ffffff80" stroke="#ffffff80" stroke-miterlimit="10"/>
<path d="M127.9 12.5C128.287 12.5 128.6 12.1866 128.6 11.8C128.6 11.4134 128.287 11.1 127.9 11.1C127.513 11.1 127.2 11.4134 127.2 11.8C127.2 12.1866 127.513 12.5 127.9 12.5Z" fill="#ffffff80" stroke="#ffffff80" stroke-miterlimit="10"/>
<path d="M1.2 1.9C1.5866 1.9 1.9 1.5866 1.9 1.2C1.9 0.813401 1.5866 0.5 1.2 0.5C0.813401 0.5 0.5 0.813401 0.5 1.2C0.5 1.5866 0.813401 1.9 1.2 1.9Z" fill="#ffffff80" stroke="#ffffff80" stroke-miterlimit="10"/>
<path d="M11.8001 1.9C12.1867 1.9 12.5001 1.5866 12.5001 1.2C12.5001 0.813401 12.1867 0.5 11.8001 0.5C11.4135 0.5 11.1001 0.813401 11.1001 1.2C11.1001 1.5866 11.4135 1.9 11.8001 1.9Z" fill="#ffffff80" stroke="#ffffff80" stroke-miterlimit="10"/>
<path d="M22.3001 1.9C22.6867 1.9 23.0001 1.5866 23.0001 1.2C23.0001 0.813401 22.6867 0.5 22.3001 0.5C21.9135 0.5 21.6001 0.813401 21.6001 1.2C21.6001 1.5866 21.9135 1.9 22.3001 1.9Z" fill="#ffffff80" stroke="#ffffff80" stroke-miterlimit="10"/>
<path d="M32.9 1.9C33.2866 1.9 33.5999 1.5866 33.5999 1.2C33.5999 0.813401 33.2866 0.5 32.9 0.5C32.5134 0.5 32.2 0.813401 32.2 1.2C32.2 1.5866 32.5134 1.9 32.9 1.9Z" fill="#ffffff80" stroke="#ffffff80" stroke-miterlimit="10"/>
<path d="M43.5 1.9C43.8866 1.9 44.2001 1.5866 44.2001 1.2C44.2001 0.813401 43.8866 0.5 43.5 0.5C43.1135 0.5 42.8 0.813401 42.8 1.2C42.8 1.5866 43.1135 1.9 43.5 1.9Z" fill="#ffffff80" stroke="#ffffff80" stroke-miterlimit="10"/>
<path d="M54 1.9C54.3866 1.9 54.7001 1.5866 54.7001 1.2C54.7001 0.813401 54.3866 0.5 54 0.5C53.6135 0.5 53.3 0.813401 53.3 1.2C53.3 1.5866 53.6135 1.9 54 1.9Z" fill="#ffffff80" stroke="#ffffff80" stroke-miterlimit="10"/>
<path d="M64.5999 1.9C64.9865 1.9 65.2999 1.5866 65.2999 1.2C65.2999 0.813401 64.9865 0.5 64.5999 0.5C64.2133 0.5 63.8999 0.813401 63.8999 1.2C63.8999 1.5866 64.2133 1.9 64.5999 1.9Z" fill="#ffffff80" stroke="#ffffff80" stroke-miterlimit="10"/>
<path d="M75.0999 1.9C75.4865 1.9 75.7999 1.5866 75.7999 1.2C75.7999 0.813401 75.4865 0.5 75.0999 0.5C74.7133 0.5 74.3999 0.813401 74.3999 1.2C74.3999 1.5866 74.7133 1.9 75.0999 1.9Z" fill="#ffffff80" stroke="#ffffff80" stroke-miterlimit="10"/>
<path d="M85.7 1.9C86.0866 1.9 86.4 1.5866 86.4 1.2C86.4 0.813401 86.0866 0.5 85.7 0.5C85.3134 0.5 85 0.813401 85 1.2C85 1.5866 85.3134 1.9 85.7 1.9Z" fill="#ffffff80" stroke="#ffffff80" stroke-miterlimit="10"/>
<path d="M96.3001 1.9C96.6867 1.9 97.0001 1.5866 97.0001 1.2C97.0001 0.813401 96.6867 0.5 96.3001 0.5C95.9135 0.5 95.6001 0.813401 95.6001 1.2C95.6001 1.5866 95.9135 1.9 96.3001 1.9Z" fill="#ffffff80" stroke="#ffffff80" stroke-miterlimit="10"/>
<path d="M106.8 1.9C107.187 1.9 107.5 1.5866 107.5 1.2C107.5 0.813401 107.187 0.5 106.8 0.5C106.414 0.5 106.1 0.813401 106.1 1.2C106.1 1.5866 106.414 1.9 106.8 1.9Z" fill="#ffffff80" stroke="#ffffff80" stroke-miterlimit="10"/>
<path d="M117.4 1.9C117.787 1.9 118.1 1.5866 118.1 1.2C118.1 0.813401 117.787 0.5 117.4 0.5C117.013 0.5 116.7 0.813401 116.7 1.2C116.7 1.5866 117.013 1.9 117.4 1.9Z" fill="#ffffff80" stroke="#ffffff80" stroke-miterlimit="10"/>
<path d="M127.9 1.9C128.287 1.9 128.6 1.5866 128.6 1.2C128.6 0.813401 128.287 0.5 127.9 0.5C127.513 0.5 127.2 0.813401 127.2 1.2C127.2 1.5866 127.513 1.9 127.9 1.9Z" fill="#ffffff80" stroke="#ffffff80" stroke-miterlimit="10"/>
</g>
<defs>
<clipPath id="clip0_1198_5094">
<rect width="129.2" height="129.2" fill="#ffffff80"/>
</clipPath>
</defs>
</svg>
